g S_fx_lzy_xishou_01
v 0.4008419 -0.0042856364 -0.07054775
v 0.3527027 -0.04847684 -0.2146232
v 0.35065624 -0.012856906 -0.21164322
v 0.4051267 -0.044481054 -0.071541086
v 0.4510275 0.0042856345 0.07054772
v 0.35120758 -0.08398692 -0.2172214
v 0.45755064 -0.040485255 0.07154105
v 0.5012132 0.012856906 0.21164322
v 0.50997466 -0.03648946 0.2146232
v 0.40536562 -0.08534138 -0.07240714
v 0.34617126 -0.1196623 -0.21952808
v 0.45952368 -0.08669582 0.07240711
v 0.51368177 -0.088050276 0.2172214
v 0.40145677 -0.12666471 -0.07317604
v 0.3375302 -0.15515031 -0.22160125
v 0.4567423 -0.13366713 0.07317601
v 0.5120278 -0.14066955 0.21952808
v 0.39330712 -0.16802673 -0.07386711
v 0.32526156 -0.1900848 -0.22348155
v 0.44908404 -0.18090317 0.07386707
v 0.504861 -0.1937796 0.22160125
v 0.38086945 -0.20898859 -0.07449388
v 0.30938372 -0.22409406 -0.22519833
v 0.43647727 -0.2278924 0.07449383
v 0.49208513 -0.24679618 0.22348155
v 0.36414337 -0.249103 -0.075066134
v 0.28995606 -0.25680223 -0.2267734
v 0.41890296 -0.27411193 0.07506609
v 0.47366259 -0.29912084 0.22519833
v 0.34317634 -0.28791806 -0.075591154
v 0.26707804 -0.28783724 -0.22822383
v 0.39639664 -0.3190339 0.07559112
v 0.4496169 -0.35014972 0.2267734
v 0.31806397 -0.32498375 -0.07607463
v 0.2408899 -0.31683427 -0.22956435
v 0.36904994 -0.3621302 0.0760746
v 0.42003593 -0.39927667 0.22822383
v 0.28895026 -0.3598566 -0.07652147
v 0.21157135 -0.34343964 -0.23080507
v 0.33701065 -0.4028789 0.076521434
v 0.385071 -0.44590122 0.22956435
v 0.2560268 -0.39210483 -0.07693504
v 0.17934023 -0.3673152 -0.23195508
v 0.3004823 -0.44077003 0.07693501
v 0.34493777 -0.48943526 0.23080507
v 0.21953201 -0.42131332 -0.077318385
v 0.14445202 -0.38814318 -0.23302223
v 0.2597238 -0.47531143 0.07731835
v 0.29991558 -0.5293095 0.23195508
v 0.1797496 -0.44708914 -0.0776741
v 0.10719599 -0.4056304 -0.23401313
v 0.2150472 -0.5060351 0.07767406
v 0.2503448 -0.56498104 0.23302223
v 0.13700613 -0.46906626 -0.0780044
v 0.067894936 -0.41951087 -0.23493324
v 0.1668163 -0.5325021 0.07800436
v 0.19662642 -0.595938 0.23401313
v 0.091668755 -0.4869102 -0.0783111
v 0.02689938 -0.42955053 -0.23578726
v 0.11544259 -0.5543095 0.07831106
v 0.13921642 -0.6217088 0.23493324
v 0.044141553 -0.5003223 -0.07859577
v -0.015410543 -0.43554977 -0.2365791
v 0.061383728 -0.571094 0.078595735
v 0.0786259 -0.64186573 0.23578726
v -0.0051368647 -0.50904405 -0.078859724
v -0.058654062 -0.43685544 -0.23748136
v 0.0051368154 -0.58253837 0.07885969
v 0.015410496 -0.6560327 0.2365791
v -0.055705436 -0.51269716 -0.07916047
v -0.10229228 -0.4338417 -0.23829958
v -0.05275681 -0.58853894 0.07916044
v -0.04980818 -0.6643806 0.23748136
v -0.10703172 -0.51127934 -0.0794332
v -0.14589284 -0.4264441 -0.23903936
v -0.11177115 -0.5887169 0.07943318
v -0.11651059 -0.6661546 0.23829958
v -0.15860328 -0.5046781 -0.0796798
v -0.18901177 -0.4146415 -0.23970464
v -0.17131373 -0.582912 0.07967978
v -0.1840242 -0.661146 0.23903936
v -0.20989196 -0.49283287 -0.07990156
v -0.2312023 -0.39845785 -0.24030013
v -0.23077217 -0.57102424 0.07990154
v -0.25165236 -0.6492156 0.23970464
v -0.2603611 -0.4757375 -0.08010006
v -0.27201754 -0.37796336 -0.24082889
v -0.28951988 -0.5530172 0.08010004
v -0.31867865 -0.6302968 0.24030013
v -0.30946988 -0.45344126 -0.08027632
v -0.31101578 -0.3532735 -0.24129425
v -0.34692222 -0.52891916 0.08027629
v -0.38437456 -0.60439706 0.24082889
v -0.35668007 -0.42604902 -0.08043143
v -0.34776434 -0.3245496 -0.24169892
v -0.40234435 -0.49882454 0.0804314
v -0.44800866 -0.5716001 0.24129425
v -0.40146032 -0.39372206 -0.08056633
v -0.38184538 -0.29199734 -0.24204522
v -0.45515633 -0.4628946 0.0805663
v -0.5088523 -0.53206706 0.24169892
v -0.44329393 -0.3566768 -0.08068175
v -0.4128598 -0.25586626 -0.24233608
v -0.5047425 -0.4213562 0.08068174
v -0.5661911 -0.48603562 0.24204522
v -0.48168293 -0.31518424 -0.0807787
v -0.44043127 -0.21644771 -0.24257326
v -0.55050606 -0.37450224 0.080778696
v -0.6193292 -0.43382022 0.24233608
v -0.51615465 -0.2695679 -0.08085776
v -0.46421316 -0.17407098 -0.24275817
v -0.59187806 -0.3226881 0.080857754
v -0.66760147 -0.3758083 0.24257326
v -0.5462678 -0.22020064 -0.0809194
v -0.48388925 -0.12910406 -0.2428931
v -0.6283224 -0.2663303 0.080919385
v -0.7103771 -0.31246 0.24275817
v -0.5716163 -0.16750377 -0.08096437
v -0.49918 -0.08194635 -0.2429799
v -0.6593433 -0.20590347 0.080964364
v -0.74707043 -0.24430318 0.2428931
v -0.59183556 -0.111941166 -0.08099331
v -0.5098439 -0.033029735 -0.2430191
v -0.68449116 -0.14193597 0.080993295
v -0.77714676 -0.17193079 0.2429799
v -0.6066063 -0.054016873 -0.08100637
v -0.5156836 0.017188843 -0.24301258
v -0.70336866 -0.07500402 0.08100636
v -0.8001311 -0.095991164 0.2430191
v -0.6156597 0.0057296543 -0.081004195
v -0.5160754 0.068238124 -0.24294658
v -0.7156357 -0.0057295356 0.081004195
v -0.8156118 -0.017188726 0.2430126
v -0.61862344 0.0667323 -0.08098221
v -0.51139075 0.119523205 -0.2428188
v -0.7211715 0.06522648 0.08098219
v -0.82371956 0.06372065 0.24294662
v -0.615498 0.12836401 -0.08093961
v -0.5015898 0.17053524 -0.24263118
v -0.71960527 0.1372048 0.080939606
v -0.8237125 0.1460456 0.24281885
v -0.60619026 0.19001245 -0.08087707
v -0.48668197 0.22076233 -0.24238582
v -0.7107907 0.20948969 0.080877066
v -0.81539124 0.22896689 0.24263123
v -0.5906683 0.25105366 -0.08079529
v -0.46672663 0.26969355 -0.24208304
v -0.6946547 0.28134498 0.08079527
v -0.798641 0.3116363 0.24238586
v -0.56896305 0.31085825 -0.08069437
v -0.44183806 0.31681797 -0.2417254
v -0.6711995 0.35202292 0.08069436
v -0.7734359 0.39318758 0.24208309
v -0.54117084 0.36879593 -0.08057515
v -0.41217947 0.36163923 -0.24131429
v -0.6405036 0.42077383 0.08057514
v -0.7398364 0.4727518 0.24172544
v -0.5074513 0.4242452 -0.08043811
v -0.37796503 0.40367234 -0.24085
v -0.6027231 0.4868512 0.0804381
v -0.697995 0.54945713 0.24131434
v -0.46802807 0.47659728 -0.080283344
v -0.33945784 0.4424553 -0.2403344
v -0.5580911 0.5495222 0.080283344
v -0.6481541 0.6224472 0.24085005
v -0.42318782 0.525264 -0.08011148
v -0.29696906 0.47754753 -0.23976833
v -0.5069178 0.6080728 0.080111474
v -0.5906478 0.6908816 0.24033445
v -0.37327754 0.5696836 -0.07992279
v -0.25085407 0.5085424 -0.23915343
v -0.44958606 0.6618197 0.07992278
v -0.5258945 0.7539557 0.23976837
v -0.31870326 0.60932773 -0.079717815
v -0.20150867 0.53506494 -0.23848963
v -0.38655245 0.710113 0.07971781
v -0.45440164 0.81089824 0.23915343
v -0.25992453 0.64370704 -0.07949655
v -0.14937164 0.5567785 -0.23777816
v -0.31834036 0.75234914 0.07949654
v -0.37675625 0.86099124 0.23848963
v -0.19745462 0.67237633 -0.07925939
v -0.09491039 0.573392 -0.2370205
v -0.2455376 0.7879742 0.07925938
v -0.2936206 0.90357196 0.23777816
v -0.13185088 0.69494194 -0.079006836
v -0.038626943 0.58465725 -0.23621663
v -0.16879137 0.8164919 0.07900682
v -0.20573187 0.9380418 0.2370205
v -0.06371487 0.7110637 -0.07873889
v 0.018952416 0.590379 -0.23536819
v -0.08880279 0.83747005 0.078738876
v -0.11389072 0.9638765 0.23621663
v 0.0063174795 0.7204625 -0.078456074
v 0.077276856 0.58996576 -0.23432481
v -0.006317458 0.85054594 0.07845606
v -0.018952396 0.9806294 0.23536819
v 0.07757719 0.722773 -0.07810828
v 0.13569725 0.58378166 -0.23322341
v 0.07787752 0.85558033 0.07810826
v 0.078177854 0.9883876 0.23432481
v 0.14934362 0.7179974 -0.07774115
v 0.19364159 0.5718038 -0.23206358
v 0.16299002 0.852213 0.07774113
v 0.17663638 0.98642874 0.23322341
v 0.22090943 0.7060586 -0.077354535
v 0.25053608 0.5540676 -0.23084791
v 0.24817728 0.84031355 0.07735451
v 0.27544513 0.97456837 0.23206358
v 0.29155627 0.6869522 -0.07694931
v 0.30580547 0.5306647 -0.22957604
v 0.33257648 0.81983674 0.07694929
v 0.37359667 0.9527213 0.23084791
v 0.36056206 0.6607451 -0.07652536
v 0.35888717 0.5017447 -0.2282497
v 0.4153186 0.79082555 0.07652533
v 0.4700752 0.92090607 0.22957604
v 0.42721128 0.6275778 -0.07608325
v 0.40922847 0.46751213 -0.22686891
v 0.49553546 0.75341094 0.07608321
v 0.56385964 0.8792441 0.2282497
v 0.4907989 0.5876625 -0.07562298
v 0.45630074 0.42822662 -0.22543535
v 0.5723694 0.70781296 0.07562295
v 0.6539399 0.8279633 0.22686891
v 0.5506409 0.541283 -0.07514514
v 0.49959496 0.38420233 -0.22395004
v 0.6449811 0.65433925 0.0751451
v 0.7393213 0.7673957 0.22543535
v 0.60607755 0.4887933 -0.074650034
v 0.5386348 0.33580372 -0.2224134
v 0.7125601 0.5933843 0.07465
v 0.81904274 0.6979753 0.22395004
v 0.65648407 0.43061483 -0.07413782
v 0.57297933 0.2834415 -0.22082599
v 0.7743334 0.52542603 0.074137785
v 0.89218277 0.6202372 0.2224134
v 0.70127594 0.36723253 -0.07360869
v 0.6022271 0.2275722 -0.21918932
v 0.82957256 0.45102358 0.073608644
v 0.9578692 0.53481466 0.22082599
v 0.7399164 0.29919058 -0.07306313
v 0.62601995 0.16869274 -0.2175032
v 0.87760574 0.37080893 0.07306308
v 1.015295 0.4424273 0.21918927
v 0.7719205 0.22708991 -0.07250108
v 0.6440498 0.10733749 -0.21576883
v 0.9178211 0.2854871 0.07250104
v 1.0637217 0.34388426 0.21750316
v 0.79686356 0.15158166 -0.071922965
v 0.65606046 0.04406979 -0.21398683
v 0.9496772 0.19582585 0.07192291
v 1.102491 0.24007003 0.21576878
v 0.8143843 0.07336107 -0.07132896
v 0.66185117 -0.020520443 -0.21215835
v 0.9727081 0.102652356 0.07132891
v 1.1310319 0.13194364 0.2139868
v 0.82419086 -0.006840255 -0.07071947
v 0.66088146 -0.08581275 -0.21001579
v 0.9865306 0.0068399357 0.07071941
v 1.1488703 0.020520128 0.2121583
v 0.82593125 -0.0882546 -0.07000529
v 0.6534782 -0.1511099 -0.20781462
v 0.990981 -0.09069645 0.07000523
v 1.1560307 -0.0931383 0.21001574
v 0.81959844 -0.1700704 -0.069271564
v 0.63963187 -0.2157777 -0.20555489
v 0.98571867 -0.18903089 0.06927151
v 1.151839 -0.20799139 0.20781457
v 0.8051317 -0.25148323 -0.06851832
v 0.619394 -0.2791848 -0.20323767
v 0.97063154 -0.28718874 0.068518266
v 1.1361313 -0.32289428 0.20555484
v 0.7825497 -0.33168373 -0.06774591
v 0.59288085 -0.34069723 -0.20086485
v 0.9457053 -0.38418266 0.06774586
v 1.108861 -0.4366816 0.20323762
v 0.7519531 -0.4098594 -0.06695497
v 0.56026864 -0.39969578 -0.19843607
v 0.91102546 -0.47902152 0.06695492
v 1.0700978 -0.5481837 0.2008648
v 0.71352357 -0.48520696 -0.066145375
v 0.5217969 -0.45557716 -0.19595326
v 0.8667785 -0.5707182 0.06614533
v 1.0200334 -0.6562294 0.19843602
v 0.6675241 -0.55693954 -0.06531778
v 0.47776052 -0.50776196 -0.1934168
v 0.8132513 -0.658302 0.06531773
v 0.95897853 -0.7596644 0.19595324
v 0.614295 -0.62429553 -0.06447229
v 0.4285158 -0.5556969 -0.19082746
v 0.7508296 -0.74082905 0.06447224
v 0.8873641 -0.8573626 0.19341676
v 0.5542552 -0.6865452 -0.063609175
v 0.37447372 -0.59886247 -0.18818639
v 0.6799946 -0.8173934 0.06360912
v 0.8057339 -0.9482417 0.19082743
v 0.48789722 -0.742998 -0.062728815
v 0.31609318 -0.6367811 -0.18549442
v 0.60132074 -0.8871337 0.06272877
v 0.71474427 -1.0312693 0.18818636
v 0.41578272 -0.79301274 -0.061831485
v 0.25388435 -0.6690173 -0.18275182
v 0.5154723 -0.94924444 0.06183145
v 0.61516184 -1.1054761 0.18549438
v 0.33853897 -0.83600193 -0.06091729
v 0.18839866 -0.6951867 -0.17996076
v 0.4231936 -1.0029867 0.060917247
v 0.50784826 -1.1699713 0.18275179
v 0.25685343 -0.8714399 -0.059986938
v 0.12022653 -0.71495724 -0.17712083
v 0.32530823 -1.0476931 0.059986897
v 0.39376304 -1.2239463 0.17996073
v 0.17146705 -0.8988683 -0.059040297
v 0.049993746 -0.72805405 -0.17423303
v 0.22270758 -1.0827793 0.05904026
v 0.2739481 -1.2666904 0.17712083
v 0.083167605 -0.9179017 -0.058077697
v -0.021650394 -0.7342647 -0.17129895
v 0.11634149 -1.1077493 0.058077667
v 0.14951536 -1.297597 0.17423303
v -0.0072170305 -0.928233 -0.05709967
v -0.094022185 -0.7331169 -0.1679477
v 0.0072163353 -1.1222014 0.05709964
v 0.021649703 -1.3161699 0.17129895
v -0.09882322 -0.9295293 -0.055982575
v -0.16637857 -0.72486395 -0.16453929
v -0.103624254 -1.1259416 0.05598255
v -0.1084253 -1.3223541 0.1679477
v -0.19074802 -0.92176276 -0.054846447
v -0.23802514 -0.70949835 -0.1610758
v -0.21511748 -1.1186616 0.05484642
v -0.23948693 -1.3155606 0.16453929
v -0.28209418 -0.90488416 -0.053691942
v -0.30826434 -0.68707967 -0.1575569
v -0.32616317 -1.10027 0.053691924
v -0.37023222 -1.2956558 0.1610758
v -0.37195536 -0.87893337 -0.05251898
v -0.37640646 -0.6577359 -0.15398495
v -0.4356464 -1.0707872 0.052518964
v -0.4993375 -1.2626408 0.1575569
v -0.45942888 -0.844041 -0.051328324
v -0.44177282 -0.62166077 -0.15036082
v -0.5424513 -1.030346 0.05132831
v -0.6254738 -1.2166511 0.15398495
v -0.543625 -0.80042577 -0.050120275
v -0.5036992 -0.5791172 -0.1466854
v -0.6454771 -0.9791908 0.05012027
v -0.74732924 -1.1579559 0.15036082
v -0.6236711 -0.74839765 -0.048895143
v -0.56154996 -0.5304305 -0.14295995
v -0.74364305 -0.91767806 0.04889514
v -0.8636149 -1.0869585 0.14668542
v -0.6987262 -0.6883523 -0.047653325
v -0.61471814 -0.47599018 -0.13918585
v -0.8359024 -0.8462741 0.047653317
v -0.9730786 -1.0041959 0.14295997
v -0.76798564 -0.6207709 -0.046395283
v -0.66263413 -0.41624397 -0.13536322
v -0.9212532 -0.76555157 0.046395287
v -1.0745207 -0.9103323 0.13918586
v -0.83069324 -0.54621327 -0.045121077
v -0.704772 -0.35169545 -0.13149397
v -0.9987524 -0.67618257 0.04512108
v -1.1668117 -0.80615187 0.13536324
v -0.8861458 -0.46531665 -0.04383133
v -0.7406529 -0.28290224 -0.12757842
v -1.0675195 -0.5789379 0.043831334
v -1.2488934 -0.6925592 0.131494
v -0.9337025 -0.3787895 -0.04252614
v -0.7698529 -0.21046676 -0.12361819
v -1.1267523 -0.47467682 0.042526152
v -1.3198019 -0.5705641 0.12757845
v -0.97279227 -0.28740466 -0.041206058
v -0.7920054 -0.13503602 -0.11961345
v -1.1757315 -0.36434254 0.041206073
v -1.3786709 -0.44128042 0.12361821
v -1.00292 -0.19199164 -0.03987115
v -0.8068089 -0.05729122 -0.11556474
v -1.2138346 -0.24894728 0.039871164
v -1.4247493 -0.3059029 0.11961348
v -1.0236729 -0.093431614 -0.03852158
v -0.81421745 0.024666907 -0.1114703
v -1.0347884 0.008222323 -0.03715676
v -1.240537 -0.129572 0.038521603
v -1.4574013 -0.16571242 0.115564786
v -1.2553592 -0.008222266 0.037156783
v -1.4759301 -0.024666855 0.111470334
vt 1.0000005 0.33333397
vt 0.9895838 7.1525574E-07
vt 1.0000005 7.1525574E-07
vt 0.9895838 0.33333397
vt 1.0000005 0.66666734
vt 0.9791671 7.1525574E-07
vt 0.9895838 0.66666734
vt 1.0000005 1.0000007
vt 0.98958373 1.0000007
vt 0.9791671 0.33333397
vt 0.9687505 7.1525574E-07
vt 0.9791671 0.66666734
vt 0.9791671 1.0000007
vt 0.9687505 0.33333397
vt 0.9583338 7.1525574E-07
vt 0.9687504 0.66666734
vt 0.9687504 1.0000007
vt 0.9583338 0.33333397
vt 0.9479171 7.1525574E-07
vt 0.9583338 0.66666734
vt 0.95833373 1.0000007
vt 0.9479171 0.33333397
vt 0.9375005 7.1525574E-07
vt 0.9479171 0.66666734
vt 0.9479171 1.0000007
vt 0.9375005 0.33333397
vt 0.9270838 7.1525574E-07
vt 0.9375004 0.66666734
vt 0.9375004 1.0000007
vt 0.9270838 0.33333397
vt 0.9166671 7.1525574E-07
vt 0.9270838 0.66666734
vt 0.92708373 1.0000007
vt 0.9166671 0.33333397
vt 0.9062505 7.1525574E-07
vt 0.9166671 0.66666734
vt 0.9166671 1.0000007
vt 0.9062505 0.33333397
vt 0.8958338 7.1525574E-07
vt 0.9062504 0.66666734
vt 0.9062504 1.0000007
vt 0.8958338 0.33333397
vt 0.88541716 7.1525574E-07
vt 0.8958338 0.66666734
vt 0.89583373 1.0000007
vt 0.8854171 0.33333397
vt 0.8750005 7.1525574E-07
vt 0.8854171 0.66666734
vt 0.8854171 1.0000007
vt 0.8750005 0.33333397
vt 0.8645838 7.1525574E-07
vt 0.8750005 0.66666734
vt 0.8750004 1.0000007
vt 0.8645838 0.33333397
vt 0.8541671 7.1525574E-07
vt 0.8645838 0.66666734
vt 0.86458373 1.0000007
vt 0.8541671 0.33333397
vt 0.8437505 7.1525574E-07
vt 0.8541671 0.66666734
vt 0.8541671 1.0000007
vt 0.8437505 0.33333397
vt 0.8333338 7.1525574E-07
vt 0.8437504 0.66666734
vt 0.8437504 1.0000007
vt 0.8333338 0.33333397
vt 0.8229171 7.1525574E-07
vt 0.83333373 0.66666734
vt 0.83333373 1.0000007
vt 0.8229171 0.33333397
vt 0.8125005 7.1525574E-07
vt 0.8229171 0.66666734
vt 0.8229171 1.0000007
vt 0.8125004 0.33333397
vt 0.8020838 7.1525574E-07
vt 0.8125004 0.66666734
vt 0.8125004 1.0000007
vt 0.80208373 0.33333397
vt 0.7916671 7.1525574E-07
vt 0.80208373 0.66666734
vt 0.80208373 1.0000007
vt 0.7916671 0.33333397
vt 0.7812504 7.1525574E-07
vt 0.7916671 0.66666734
vt 0.79166704 1.0000007
vt 0.7812504 0.33333397
vt 0.77083373 7.1525574E-07
vt 0.7812504 0.66666734
vt 0.78125036 1.0000007
vt 0.77083373 0.33333397
vt 0.7604171 7.1525574E-07
vt 0.77083373 0.66666734
vt 0.77083373 1.0000007
vt 0.7604171 0.33333397
vt 0.7500004 7.1525574E-07
vt 0.76041704 0.66666734
vt 0.76041704 1.0000007
vt 0.7500004 0.33333397
vt 0.73958373 7.1525574E-07
vt 0.75000036 0.66666734
vt 0.75000036 1.0000007
vt 0.73958373 0.33333397
vt 0.7291671 7.1525574E-07
vt 0.73958373 0.66666734
vt 0.73958373 1.0000007
vt 0.7291671 0.33333397
vt 0.7187505 7.1525574E-07
vt 0.7291671 0.66666734
vt 0.7291671 1.0000007
vt 0.7187505 0.33333397
vt 0.7083338 7.1525574E-07
vt 0.7187504 0.66666734
vt 0.7187504 1.0000007
vt 0.7083338 0.33333397
vt 0.6979171 7.1525574E-07
vt 0.70833373 0.66666734
vt 0.70833373 1.0000007
vt 0.6979171 0.33333397
vt 0.6875005 7.1525574E-07
vt 0.6979171 0.66666734
vt 0.6979171 1.0000007
vt 0.6875005 0.33333397
vt 0.67708385 7.1525574E-07
vt 0.6875005 0.66666734
vt 0.6875005 1.0000007
vt 0.67708385 0.33333397
vt 0.66666716 7.1525574E-07
vt 0.6770838 0.66666734
vt 0.6770838 1.0000007
vt 0.66666716 0.33333397
vt 0.6562505 7.1525574E-07
vt 0.6666671 0.66666734
vt 0.6666671 1.0000007
vt 0.6562505 0.33333397
vt 0.64583385 7.1525574E-07
vt 0.6562505 0.66666734
vt 0.6562505 1.0000007
vt 0.64583385 0.33333397
vt 0.6354172 7.1525574E-07
vt 0.64583385 0.66666734
vt 0.64583385 1.0000007
vt 0.6354172 0.33333397
vt 0.62500054 7.1525574E-07
vt 0.63541716 0.66666734
vt 0.63541716 1.0000007
vt 0.62500054 0.33333397
vt 0.61458385 7.1525574E-07
vt 0.6250005 0.66666734
vt 0.6250005 1.0000007
vt 0.61458385 0.33333397
vt 0.6041672 7.1525574E-07
vt 0.61458385 0.66666734
vt 0.61458385 1.0000007
vt 0.6041672 0.33333397
vt 0.5937506 7.1525574E-07
vt 0.6041672 0.66666734
vt 0.6041672 1.0000007
vt 0.5937506 0.33333397
vt 0.5833339 7.1525574E-07
vt 0.59375054 0.66666734
vt 0.59375054 1.0000007
vt 0.5833339 0.33333397
vt 0.5729172 7.1525574E-07
vt 0.58333385 0.66666734
vt 0.58333385 1.0000007
vt 0.5729172 0.33333397
vt 0.5625006 7.1525574E-07
vt 0.5729172 0.66666734
vt 0.5729172 1.0000007
vt 0.5625006 0.33333397
vt 0.55208397 7.1525574E-07
vt 0.5625006 0.66666734
vt 0.5625006 1.0000007
vt 0.55208397 0.33333397
vt 0.5416673 7.1525574E-07
vt 0.5520839 0.66666734
vt 0.5520839 1.0000007
vt 0.5416673 0.33333397
vt 0.5312506 7.1525574E-07
vt 0.5416672 0.66666734
vt 0.5416672 1.0000007
vt 0.5312506 0.33333397
vt 0.52083397 7.1525574E-07
vt 0.5312506 0.66666734
vt 0.5312506 1.0000007
vt 0.52083397 0.33333397
vt 0.51041734 7.1525574E-07
vt 0.52083397 0.66666734
vt 0.52083397 1.0000007
vt 0.51041734 0.33333397
vt 0.50000066 7.1525574E-07
vt 0.5104173 0.66666734
vt 0.5104173 1.0000007
vt 0.50000066 0.33333397
vt 0.48958403 7.1525574E-07
vt 0.5000006 0.66666734
vt 0.5000006 1.0000007
vt 0.48958397 0.33333397
vt 0.47916734 7.1525574E-07
vt 0.48958397 0.66666734
vt 0.48958397 1.0000007
vt 0.47916728 0.33333397
vt 0.46875066 7.1525574E-07
vt 0.47916728 0.66666734
vt 0.47916728 1.0000007
vt 0.4687506 0.33333397
vt 0.45833397 7.1525574E-07
vt 0.4687506 0.66666734
vt 0.4687506 1.0000007
vt 0.4583339 0.33333397
vt 0.44791728 7.1525574E-07
vt 0.4583339 0.66666734
vt 0.4583339 1.0000007
vt 0.44791722 0.33333397
vt 0.4375006 7.1525574E-07
vt 0.44791722 0.66666734
vt 0.44791722 1.0000007
vt 0.43750054 0.33333397
vt 0.4270839 7.1525574E-07
vt 0.43750054 0.66666734
vt 0.43750054 1.0000007
vt 0.42708385 0.33333397
vt 0.41666722 7.1525574E-07
vt 0.42708385 0.66666734
vt 0.42708385 1.0000007
vt 0.41666716 0.33333397
vt 0.40625054 7.1525574E-07
vt 0.41666716 0.66666734
vt 0.41666716 1.0000007
vt 0.40625048 0.33333397
vt 0.39583385 7.1525574E-07
vt 0.40625048 0.66666734
vt 0.40625048 1.0000007
vt 0.3958338 0.33333397
vt 0.38541716 7.1525574E-07
vt 0.3958338 0.66666734
vt 0.3958338 1.0000007
vt 0.3854171 0.33333397
vt 0.37500048 7.1525574E-07
vt 0.3854171 0.66666734
vt 0.3854171 1.0000007
vt 0.37500042 0.33333397
vt 0.3645838 7.1525574E-07
vt 0.37500042 0.66666734
vt 0.37500042 1.0000007
vt 0.36458373 0.33333397
vt 0.3541671 7.1525574E-07
vt 0.36458373 0.66666734
vt 0.36458373 1.0000007
vt 0.35416704 0.33333397
vt 0.34375042 7.1525574E-07
vt 0.35416704 0.66666734
vt 0.35416704 1.0000007
vt 0.34375036 0.33333397
vt 0.33333373 7.1525574E-07
vt 0.34375036 0.66666734
vt 0.34375036 1.0000007
vt 0.33333367 0.33333397
vt 0.32291704 7.1525574E-07
vt 0.33333367 0.66666734
vt 0.33333367 1.0000007
vt 0.32291698 0.33333397
vt 0.31250036 7.1525574E-07
vt 0.32291698 0.66666734
vt 0.32291698 1.0000007
vt 0.3125003 0.3333339
vt 0.30208367 7.1525574E-07
vt 0.3125003 0.66666734
vt 0.3125003 1.0000007
vt 0.3020836 0.3333339
vt 0.29166698 7.1525574E-07
vt 0.3020836 0.66666734
vt 0.3020836 1.0000007
vt 0.29166692 0.3333339
vt 0.2812503 7.1525574E-07
vt 0.29166692 0.66666734
vt 0.29166692 1.0000007
vt 0.28125024 0.3333339
vt 0.2708336 7.1525574E-07
vt 0.28125024 0.66666734
vt 0.28125024 1.0000007
vt 0.27083355 0.3333339
vt 0.26041692 7.1525574E-07
vt 0.27083355 0.66666734
vt 0.27083355 1.0000007
vt 0.26041687 0.3333339
vt 0.25000024 7.1525574E-07
vt 0.26041687 0.66666734
vt 0.26041687 1.0000007
vt 0.25000018 0.3333339
vt 0.23958355 7.1525574E-07
vt 0.25000018 0.66666734
vt 0.25000018 1.0000007
vt 0.23958349 0.3333339
vt 0.22916687 7.1525574E-07
vt 0.23958349 0.66666734
vt 0.23958349 1.0000007
vt 0.2291668 0.3333339
vt 0.21875018 7.1525574E-07
vt 0.2291668 0.66666734
vt 0.2291668 1.0000007
vt 0.21875012 0.3333339
vt 0.20833349 7.1525574E-07
vt 0.21875012 0.66666734
vt 0.21875012 1.0000007
vt 0.20833343 0.3333339
vt 0.1979168 7.1525574E-07
vt 0.20833343 0.66666734
vt 0.20833343 1.0000007
vt 0.19791675 0.3333339
vt 0.18750012 7.1525574E-07
vt 0.19791675 0.66666734
vt 0.19791675 1.0000007
vt 0.18750006 0.3333339
vt 0.17708343 7.1525574E-07
vt 0.18750006 0.66666734
vt 0.18750006 1.0000007
vt 0.17708337 0.3333339
vt 0.16666675 7.1525574E-07
vt 0.17708337 0.66666734
vt 0.17708337 1.0000007
vt 0.16666669 0.3333339
vt 0.15625006 7.1525574E-07
vt 0.16666669 0.66666734
vt 0.16666669 1.0000007
vt 0.15625 0.3333339
vt 0.14583337 7.1525574E-07
vt 0.15625 0.66666734
vt 0.15625 1.0000007
vt 0.14583331 0.3333339
vt 0.13541669 7.1525574E-07
vt 0.14583331 0.66666734
vt 0.14583331 1.0000007
vt 0.13541663 0.3333339
vt 0.125 7.1525574E-07
vt 0.13541663 0.66666734
vt 0.13541663 1.0000007
vt 0.12499994 0.3333339
vt 0.11458331 7.1525574E-07
vt 0.12499994 0.66666734
vt 0.12499994 1.0000007
vt 0.114583254 0.3333339
vt 0.10416663 7.1525574E-07
vt 0.114583254 0.66666734
vt 0.114583254 1.0000007
vt 0.10416657 0.3333339
vt 0.09374994 7.1525574E-07
vt 0.10416657 0.66666734
vt 0.10416657 1.0000007
vt 0.09374988 0.3333339
vt 0.083333254 7.1525574E-07
vt 0.09374988 0.66666734
vt 0.09374988 1.0000007
vt 0.083333194 0.3333339
vt 0.07291657 7.1525574E-07
vt 0.083333194 0.66666734
vt 0.083333194 1.0000007
vt 0.07291651 0.3333339
vt 0.06249988 7.1525574E-07
vt 0.07291651 0.66666734
vt 0.07291651 1.0000007
vt 0.06249982 0.3333339
vt 0.052083194 7.1525574E-07
vt 0.06249982 0.66666734
vt 0.06249982 1.0000007
vt 0.052083135 0.3333339
vt 0.041666508 7.1525574E-07
vt 0.052083135 0.66666734
vt 0.052083135 1.0000007
vt 0.041666448 0.3333339
vt 0.031249821 7.1525574E-07
vt 0.041666448 0.66666734
vt 0.041666448 1.0000007
vt 0.031249762 0.3333339
vt 0.020833135 7.1525574E-07
vt 0.031249762 0.66666734
vt 0.031249762 1.0000007
vt 0.020833075 0.3333339
vt 0.010416448 7.1525574E-07
vt 0.020833075 0.66666734
vt 0.020833075 1.0000007
vt 0.0104163885 0.3333339
vt -3.5762787E-07 7.1525574E-07
vt -3.5762787E-07 0.3333339
vt 0.0104163885 0.66666734
vt 0.0104163885 1.0000007
vt -3.5762787E-07 0.66666734
vt -3.5762787E-07 1.0000007
vn -0.9335733 -0.1076095 0.34184936
vn -0.93749106 -0.04527609 0.34505177
vn -0.9348586 -0.0959819 0.34179923
vn -0.93671304 -0.059866983 0.34494153
vn -0.9310721 -0.12751226 0.34182647
vn -0.9352669 0.04953088 0.3504605
vn -0.93517065 -0.08047758 0.34493357
vn -0.929807 -0.136572 0.34177035
vn -0.9345272 -0.087376714 0.3449989
vn -0.93595123 0.03507856 0.3503782
vn -0.92351466 0.14300199 0.35590887
vn -0.93649656 0.01422094 0.35038817
vn -0.9365567 0.007022787 0.35044602
vn -0.9256046 0.12896627 0.35584253
vn -0.90244794 0.23455292 0.3613485
vn -0.92824084 0.108340956 0.35585257
vn -0.92904556 0.10104307 0.35589987
vn -0.9058763 0.22102983 0.36129496
vn -0.8723427 0.3232518 0.3667784
vn -0.91055685 0.20086026 0.36130503
vn -0.9121164 0.19358258 0.3613438
vn -0.8770365 0.31034157 0.36673546
vn -0.833566 0.40821165 0.3721976
vn -0.8836906 0.29084116 0.36674556
vn -0.8859983 0.2836923 0.36677748
vn -0.839445 0.3960129 0.37216368
vn -0.7865679 0.48859492 0.37760553
vn -0.8479793 0.3773827 0.37217382
vn -0.8510147 0.370461 0.37219992
vn -0.79354554 0.47719923 0.3775795
vn -0.731885 0.5636079 0.383002
vn -0.8038492 0.4596222 0.37758967
vn -0.807581 0.4530156 0.37761068
vn -0.739866 0.5531027 0.38298273
vn -0.67012393 0.6325269 0.38838613
vn -0.7518079 0.5367507 0.38299298
vn -0.75619394 0.5305415 0.3830097
vn -0.67900616 0.6229905 0.3883727
vn -0.6019526 0.69470006 0.39375752
vn -0.6924397 0.60801816 0.38838288
vn -0.6974297 0.6022794 0.38839576
vn -0.61163044 0.6861994 0.3937493
vn -0.52810717 0.74953914 0.39911643
vn -0.62639964 0.6727383 0.39375952
vn -0.63193816 0.6675328 0.39376906
vn -0.538469 0.7421321 0.39911297
vn -0.44937566 0.7965373 0.4044625
vn -0.5544045 0.73029876 0.39912322
vn -0.56042904 0.72568226 0.39912987
vn -0.46030405 0.7902719 0.4044631
vn -0.3665847 0.8352747 0.40979487
vn -0.47722507 0.780165 0.40447345
vn -0.48366708 0.7761856 0.40447745
vn -0.37796056 0.8301869 0.40979937
vn -0.28059408 0.86541754 0.41511372
vn -0.3956802 0.82188386 0.40980968
vn -0.40246803 0.81858057 0.40981132
vn -0.2922978 0.8615312 0.4151216
vn -0.1922934 0.88671947 0.42041874
vn -0.31062683 0.8550886 0.4151319
vn -0.31768683 0.8524911 0.41513133
vn -0.20420389 0.88404727 0.4204298
vn -0.099777326 0.89917105 0.42607027
vn -0.2229487 0.8795022 0.42043996
vn -0.23020507 0.87763196 0.42043757
vn -0.11330306 0.8975703 0.42606327
vn -0.0068820277 0.901733 0.4322388
vn -0.13452494 0.89465106 0.42603117
vn -0.14283684 0.89337367 0.42600596
vn -0.02174821 0.9014843 0.43226504
vn 0.082773775 0.89478326 0.43876123
vn -0.045354277 0.90059817 0.43227983
vn -0.05457031 0.9000917 0.43226966
vn 0.068079785 0.8960057 0.4387926
vn 0.17093085 0.87893414 0.44526124
vn 0.044643857 0.8974714 0.4388076
vn 0.03545547 0.89788765 0.4387945
vn 0.1565495 0.88159096 0.44529706
vn 0.25671148 0.85441893 0.45173827
vn 0.1335176 0.8853644 0.4453122
vn 0.124452226 0.886692 0.44529647
vn 0.24277748 0.858461 0.45177838
vn 0.33926377 0.8215594 0.4581923
vn 0.22037373 0.86447555 0.4517936
vn 0.21152316 0.8666931 0.4517754
vn 0.32590726 0.8269244 0.45823643
vn 0.41778272 0.780758 0.4646228
vn 0.30434948 0.8350909 0.45825177
vn 0.29580337 0.8381673 0.4582313
vn 0.4051257 0.7873719 0.4646705
vn 0.4915108 0.73249483 0.471029
vn 0.38461939 0.7975807 0.4646859
vn 0.37646246 0.8014761 0.46466333
vn 0.47966638 0.74027276 0.47108
vn 0.5597465 0.6773205 0.47741067
vn 0.46040273 0.7523951 0.47109547
vn 0.45271415 0.75706136 0.47107106
vn 0.54881763 0.686168 0.4774647
vn 0.62184685 0.61585355 0.4837673
vn 0.53097117 0.70005864 0.4774803
vn 0.5238235 0.70544064 0.47745413
vn 0.6119269 0.6256673 0.48382443
vn 0.67724234 0.54876786 0.49009863
vn 0.5956576 0.6411637 0.48384002
vn 0.58911765 0.6471986 0.4838123
vn 0.6684125 0.5594367 0.49015835
vn 0.72543544 0.47678724 0.4964045
vn 0.65386087 0.57636386 0.49017408
vn 0.6479878 0.5829836 0.4901448
vn 0.7177652 0.48819453 0.49646673
vn 0.7660026 0.40068483 0.5026845
vn 0.7050515 0.5063671 0.49648243
vn 0.6998959 0.5134992 0.49645185
vn 0.7595502 0.4127068 0.502749
vn 0.79860574 0.32126483 0.50893795
vn 0.7487768 0.43192676 0.5027649
vn 0.7443824 0.43949318 0.5027332
vn 0.79341614 0.33377388 0.50900465
vn 0.82299274 0.23935011 0.51516443
vn 0.7846646 0.35383543 0.50902057
vn 0.7810667 0.3617544 0.5089877
vn 0.8190974 0.25221854 0.51523334
vn 0.8389922 0.15579267 0.5213642
vn 0.8124258 0.2729153 0.51524913
vn 0.8096502 0.28110495 0.5152151
vn 0.8364101 0.16888957 0.521435
vn 0.84652406 0.068928786 0.5278693
vn 0.8318565 0.19000956 0.5214509
vn 0.82992095 0.19838537 0.52141577
vn 0.845177 0.08346093 0.52793
vn 0.8447715 -0.017775862 0.53483194
vn 0.8425572 0.10684892 0.5279021
vn 0.84136176 0.11617555 0.5278386
vn 0.84488857 -0.0020360826 0.5349384
vn 0.8342061 -0.10096825 0.54213065
vn 0.84455115 0.023465926 0.5349604
vn 0.844242 0.033615656 0.5349069
vn 0.83587104 -0.08540963 0.5422405
vn 0.81545925 -0.18220483 0.5493884
vn 0.83805376 -0.060141042 0.54226285
vn 0.8387515 -0.050065752 0.5422078
vn 0.81863654 -0.16698025 0.54950154
vn 0.7888139 -0.26069793 0.55660516
vn 0.8232881 -0.14219724 0.54952407
vn 0.82497424 -0.13229845 0.54946756
vn 0.793455 -0.24594887 0.5567211
vn 0.7546342 -0.33567655 0.5637806
vn 0.8005022 -0.22188452 0.5567436
vn 0.8031491 -0.21225604 0.5566856
vn 0.76067656 -0.32154092 0.5638994
vn 0.7133626 -0.4064125 0.570914
vn 0.77002317 -0.2984227 0.56392217
vn 0.7735936 -0.2891564 0.563863
vn 0.7207289 -0.3930248 0.5710354
vn 0.66549915 -0.47225213 0.57800424
vn 0.73225325 -0.3710761 0.57105845
vn 0.73670006 -0.36226267 0.5709981
vn 0.67410266 -0.45973203 0.5781281
vn 0.6116132 -0.5325828 0.5850511
vn 0.6876677 -0.43915185 0.5781511
vn 0.6929373 -0.4308718 0.57808954
vn 0.62135565 -0.52104175 0.5851774
vn 0.5523281 -0.58686024 0.5920548
vn 0.6368053 -0.50201523 0.5852007
vn 0.642836 -0.4943434 0.585138
vn 0.56310093 -0.5763994 0.59218323
vn 0.48831806 -0.6346088 0.59901357
vn 0.5802613 -0.559096 0.5922066
vn 0.58698446 -0.55210143 0.59214294
vn 0.50000244 -0.62531894 0.59914416
vn 0.42029124 -0.67543125 0.6059273
vn 0.51868236 -0.6098906 0.59916776
vn 0.5260224 -0.6036353 0.5991033
vn 0.43276316 -0.66738856 0.6060598
vn 0.34898698 -0.7090061 0.6127956
vn 0.45276293 -0.6539638 0.60608333
vn 0.46064043 -0.6485002 0.60601807
vn 0.36211818 -0.70227283 0.6129301
vn 0.27518475 -0.73508245 0.61961854
vn 0.38323024 -0.6909575 0.61295384
vn 0.39156276 -0.68632877 0.61288774
vn 0.2888368 -0.7297104 0.61975473
vn 0.19965915 -0.7535017 0.62639546
vn 0.31083703 -0.72059345 0.6197785
vn 0.31953523 -0.7168365 0.61971176
vn 0.21369494 -0.7495268 0.62653327
vn 0.123208456 -0.7641808 0.6331251
vn 0.23636065 -0.74267083 0.62655705
vn 0.24533597 -0.73981166 0.6264894
vn 0.13748462 -0.7616259 0.6332645
vn 0.044307508 -0.76701224 0.6401008
vn 0.16058294 -0.7570725 0.6332885
vn 0.16974252 -0.7551288 0.6332204
vn 0.059896357 -0.7658375 0.6402385
vn -0.033853598 -0.76135343 0.64745265
vn 0.08509112 -0.7634648 0.6402194
vn 0.09511527 -0.76236486 0.6401194
vn -0.017164038 -0.7617482 0.64764583
vn -0.10817462 -0.7477584 0.6550997
vn 0.0099311555 -0.76184964 0.6476779
vn 0.020698745 -0.7617133 0.6475835
vn -0.09168536 -0.7497877 0.6552956
vn -0.18011957 -0.7269199 0.6626798
vn -0.06486992 -0.75255406 0.65532756
vn -0.054201774 -0.75348055 0.6552322
vn -0.16398951 -0.7305476 0.66287816
vn -0.24898498 -0.6991768 0.6701927
vn -0.13771361 -0.7359241 0.66291064
vn -0.12724888 -0.7378921 0.6628145
vn -0.23336707 -0.70435244 0.6703935
vn -0.31411085 -0.6649378 0.6776372
vn -0.20788197 -0.7122597 0.67042613
vn -0.19772083 -0.7152381 0.6703289
vn -0.2991518 -0.6715955 0.67784053
vn -0.37488878 -0.6246717 0.6850136
vn -0.2746976 -0.6819302 0.6778735
vn -0.2649362 -0.68587834 0.67777556
vn -0.36072722 -0.6327327 0.68521905
vn -0.43076727 -0.57890546 0.6923207
vn -0.33753213 -0.64536947 0.685252
vn -0.32826155 -0.650238 0.68515325
vn -0.41753307 -0.5882777 0.6925283
vn -0.48125103 -0.5282198 0.6995579
vn -0.39580983 -0.6030696 0.6925616
vn -0.38711512 -0.60880053 0.69246215
vn -0.4690659 -0.5387977 0.6997673
vn -0.5259226 -0.47323117 0.7067232
vn -0.44901586 -0.5555752 0.69980067
vn -0.44097736 -0.5621013 0.69970065
vn -0.51489365 -0.48490024 0.7069344
vn -0.5644272 -0.41459352 0.7138167
vn -0.4966937 -0.5034796 0.7069679
vn -0.4893824 -0.5107284 0.70686734
vn -0.5546494 -0.42723012 0.7140296
vn -0.59648204 -0.35299054 0.72083753
vn -0.5384569 -0.44741234 0.71406317
vn -0.5319356 -0.4553053 0.71396196
vn -0.58803874 -0.36646158 0.72105217
vn -0.6218827 -0.28912014 0.72778535
vn -0.57399166 -0.3880318 0.72108585
vn -0.56831545 -0.3964839 0.72098416
vn -0.614842 -0.30328757 0.72800136
vn -0.6404964 -0.22369632 0.7346593
vn -0.60305405 -0.32602257 0.7280351
vn -0.59826875 -0.3349451 0.7279329
vn -0.6349124 -0.2384164 0.7348768
vn -0.6522661 -0.15743972 0.7414592
vn -0.62547475 -0.26208356 0.7349106
vn -0.6216168 -0.27138472 0.7348081
vn -0.64817905 -0.17256272 0.7416779
vn -0.65721333 -0.09106051 0.7481835
vn -0.6411601 -0.19691977 0.7417117
vn -0.63825744 -0.20650354 0.7416088
vn -0.6546481 -0.10643463 0.7484034
vn -0.6552346 -0.023113834 0.75507176
vn -0.6500915 -0.13123553 0.7484372
vn -0.64816177 -0.14100474 0.74833405
vn -0.6541761 -0.039704513 0.7552994
vn -0.6458423 0.043476164 0.76223195
vn -0.65200704 -0.066456534 0.7552949
vn -0.65100205 -0.0770182 0.75515866
vn -0.6464456 0.025873978 0.76252127
vn -0.6296667 0.105856635 0.7696195
vn -0.64690614 -0.0026022238 0.76256526
vn -0.646923 -0.013837808 0.76242983
vn -0.6319884 0.08847467 0.769911
vn -0.6074878 0.16545807 0.77690554
vn -0.63524127 0.06031544 0.769955
vn -0.6363636 0.049195673 0.7698189
vn -0.6114906 0.14846161 0.7771991
vn -0.5797016 0.22169913 0.78408897
vn -0.617478 0.12088814 0.7772432
vn -0.6196833 0.10999047 0.7771065
vn -0.5853314 0.2052517 0.78438437
vn -0.5467554 0.2740629 0.7911688
vn -0.5939683 0.17853063 0.7844287
vn -0.5972234 0.16796052 0.78429174
vn -0.5539435 0.25831825 0.7914658
vn -0.5091474 0.32207972 0.79814386
vn -0.5651211 0.23270077 0.7915103
vn -0.5693832 0.22255781 0.79137284
vn -0.51781 0.30718473 0.79844254
vn -0.4674158 0.365343 0.8050136
vn -0.53139466 0.28290996 0.79848707
vn -0.5366113 0.27328867 0.79834926
vn -0.4774551 0.35143518 0.8053136
vn -0.4221305 0.4035152 0.8117767
vn -0.49329114 0.32872808 0.8053582
vn -0.49940127 0.31971726 0.80522
vn -0.43343762 0.39071888 0.812078
vn -0.37389368 0.43631577 0.81843275
vn -0.45135093 0.36978266 0.8121226
vn -0.45828632 0.36146274 0.8119841
vn -0.38634703 0.4247455 0.8187351
vn -0.32332307 0.46354005 0.8249805
vn -0.4061422 0.40576845 0.8187799
vn -0.4138261 0.39821422 0.8186412
vn -0.33679107 0.45329708 0.8252839
vn -0.27104563 0.48505268 0.83141935
vn -0.35825709 0.43644527 0.82532865
vn -0.3666067 0.4297225 0.8251897
vn -0.28538978 0.47622308 0.83172363
vn -0.21770017 0.50078374 0.8377483
vn -0.30830368 0.4616387 0.8317684
vn -0.31723142 0.45580366 0.8316293
vn -0.23277165 0.49344087 0.83805335
vn -0.16391411 0.5107374 0.84396654
vn -0.25689393 0.4812453 0.8380981
vn -0.2663059 0.4763464 0.83795905
vn -0.1795601 0.50493854 0.844272
vn -0.11029977 0.5149853 0.8500729
vn -0.20464446 0.49522737 0.8443166
vn -0.21444392 0.49130258 0.8441774
vn -0.1263656 0.51077116 0.850379
vn -0.0574656 0.51366025 0.85606706
vn -0.15216234 0.50361335 0.8504236
vn -0.16225131 0.50069064 0.8502844
vn -0.07378953 0.5110571 0.85637367
vn -0.003993644 0.50669163 0.86211807
vn -0.100037664 0.5064983 0.85641813
vn -0.11031353 0.5045961 0.85627896
vn -0.021447893 0.5056999 0.86244285
vn 0.047479812 0.49373952 0.8683128
vn -0.04951558 0.50370175 0.8624574
vn -0.060523048 0.50279146 0.86228627
vn 0.029094432 0.49448216 0.8687007
vn 0.094364785 0.47550443 0.8746376
vn -0.0005450953 0.49523962 0.8687563
vn -0.012167785 0.495399 0.86858034
vn 0.07622077 0.47803667 0.8750265
vn 0.13811281 0.45286536 0.8808166
vn 0.046934206 0.4816933 0.8750822
vn 0.035440553 0.48299396 0.8749061
vn 0.12038252 0.45714742 0.8812062
vn 0.17831479 0.42626688 0.8868486
vn 0.09172894 0.4636417 0.88126165
vn 0.08047452 0.46606016 0.8810856
vn 0.16116594 0.4322416 0.8872388
vn 0.21461692 0.39619133 0.89273286
vn 0.13341719 0.44148454 0.8872943
vn 0.12250891 0.44498643 0.88711816
vn 0.19821222 0.4037851 0.8931235
vn 0.2467366 0.36314803 0.89846796
vn 0.17163306 0.41566062 0.89317876
vn 0.16117498 0.4202008 0.89300275
vn 0.23122695 0.37227297 0.8988587
vn 0.27444503 0.32767072 0.904053
vn 0.20606336 0.3866416 0.8989139
vn 0.19615246 0.39216617 0.89873797
vn 0.2599724 0.33822438 0.90444386
vn 0.29757994 0.29030907 0.9094871
vn 0.23645574 0.3549233 0.9044988
vn 0.22718327 0.36136907 0.90432304
vn 0.2842754 0.30217522 0.90987784
vn 0.31604865 0.25161523 0.91476935
vn 0.26261997 0.32101923 0.9099326
vn 0.25407052 0.32831436 0.90975696
vn 0.30402893 0.26466763 0.91515976
vn 0.3298183 0.2121453 0.91989905
vn 0.28442624 0.28545472 0.9152144
vn 0.27667567 0.2935206 0.9150389
vn 0.31918737 0.22624634 0.9202891
vn 0.33892056 0.172448 0.92487544
vn 0.30180824 0.24875632 0.9203435
vn 0.29492432 0.25750718 0.92016834
vn 0.3297683 0.1874506 0.9252649
vn 0.3434511 0.13305628 0.92969745
vn 0.31476122 0.2114478 0.925319
vn 0.30880314 0.22079198 0.9251441
vn 0.33585164 0.14880615 0.93008614
vn 0.3435644 0.09448111 0.9343643
vn 0.32333994 0.17404285 0.93014
vn 0.31835696 0.18388359 0.92996544
vn 0.3375762 0.11081803 0.9347523
vn 0.3394716 0.057204865 0.93887526
vn 0.3276576 0.13703635 0.9348056
vn 0.32368928 0.14727321 0.93463147
vn 0.33513585 0.07396441 0.9392621
vn 0.33144495 0.021850698 0.94322145
vn 0.32788146 0.10090036 0.9393151
vn 0.32495695 0.11143018 0.9391413
vn 0.32876784 0.038778517 0.94361424
vn 0.32646614 0.0048326715 0.94519657
vn 0.3245959 0.021571897 0.94560677
vn 0.32416797 0.06619433 0.9436808
vn 0.32226977 0.07702453 0.94350904
vn 0.32130122 0.04923611 0.9456962
vn 0.31990814 0.06033311 0.94552565
g S_fx_lzy_xishou_01_0
f 3/3/3 2/2/2 1/1/1
f 2/2/2 4/4/4 1/1/1
f 1/1/1 4/4/4 5/5/5
f 2/2/2 6/6/6 4/4/4
f 4/4/4 7/7/7 5/5/5
f 5/5/5 7/7/7 8/8/8
f 7/7/7 9/9/9 8/8/8
f 6/6/6 10/10/10 4/4/4
f 4/4/4 10/10/10 7/7/7
f 6/6/6 11/11/11 10/10/10
f 7/7/7 12/12/12 9/9/9
f 10/10/10 12/12/12 7/7/7
f 12/12/12 13/13/13 9/9/9
f 11/11/11 14/14/14 10/10/10
f 10/10/10 14/14/14 12/12/12
f 11/11/11 15/15/15 14/14/14
f 12/12/12 16/16/16 13/13/13
f 14/14/14 16/16/16 12/12/12
f 16/16/16 17/17/17 13/13/13
f 15/15/15 18/18/18 14/14/14
f 14/14/14 18/18/18 16/16/16
f 15/15/15 19/19/19 18/18/18
f 16/16/16 20/20/20 17/17/17
f 18/18/18 20/20/20 16/16/16
f 20/20/20 21/21/21 17/17/17
f 19/19/19 22/22/22 18/18/18
f 18/18/18 22/22/22 20/20/20
f 19/19/19 23/23/23 22/22/22
f 20/20/20 24/24/24 21/21/21
f 22/22/22 24/24/24 20/20/20
f 24/24/24 25/25/25 21/21/21
f 23/23/23 26/26/26 22/22/22
f 22/22/22 26/26/26 24/24/24
f 23/23/23 27/27/27 26/26/26
f 24/24/24 28/28/28 25/25/25
f 26/26/26 28/28/28 24/24/24
f 28/28/28 29/29/29 25/25/25
f 27/27/27 30/30/30 26/26/26
f 26/26/26 30/30/30 28/28/28
f 27/27/27 31/31/31 30/30/30
f 28/28/28 32/32/32 29/29/29
f 30/30/30 32/32/32 28/28/28
f 32/32/32 33/33/33 29/29/29
f 31/31/31 34/34/34 30/30/30
f 30/30/30 34/34/34 32/32/32
f 31/31/31 35/35/35 34/34/34
f 32/32/32 36/36/36 33/33/33
f 34/34/34 36/36/36 32/32/32
f 36/36/36 37/37/37 33/33/33
f 35/35/35 38/38/38 34/34/34
f 34/34/34 38/38/38 36/36/36
f 35/35/35 39/39/39 38/38/38
f 36/36/36 40/40/40 37/37/37
f 38/38/38 40/40/40 36/36/36
f 40/40/40 41/41/41 37/37/37
f 39/39/39 42/42/42 38/38/38
f 38/38/38 42/42/42 40/40/40
f 39/39/39 43/43/43 42/42/42
f 40/40/40 44/44/44 41/41/41
f 42/42/42 44/44/44 40/40/40
f 44/44/44 45/45/45 41/41/41
f 43/43/43 46/46/46 42/42/42
f 42/42/42 46/46/46 44/44/44
f 43/43/43 47/47/47 46/46/46
f 44/44/44 48/48/48 45/45/45
f 46/46/46 48/48/48 44/44/44
f 48/48/48 49/49/49 45/45/45
f 47/47/47 50/50/50 46/46/46
f 46/46/46 50/50/50 48/48/48
f 47/47/47 51/51/51 50/50/50
f 48/48/48 52/52/52 49/49/49
f 50/50/50 52/52/52 48/48/48
f 52/52/52 53/53/53 49/49/49
f 51/51/51 54/54/54 50/50/50
f 50/50/50 54/54/54 52/52/52
f 51/51/51 55/55/55 54/54/54
f 52/52/52 56/56/56 53/53/53
f 54/54/54 56/56/56 52/52/52
f 56/56/56 57/57/57 53/53/53
f 55/55/55 58/58/58 54/54/54
f 54/54/54 58/58/58 56/56/56
f 55/55/55 59/59/59 58/58/58
f 56/56/56 60/60/60 57/57/57
f 58/58/58 60/60/60 56/56/56
f 60/60/60 61/61/61 57/57/57
f 59/59/59 62/62/62 58/58/58
f 58/58/58 62/62/62 60/60/60
f 59/59/59 63/63/63 62/62/62
f 60/60/60 64/64/64 61/61/61
f 62/62/62 64/64/64 60/60/60
f 64/64/64 65/65/65 61/61/61
f 63/63/63 66/66/66 62/62/62
f 62/62/62 66/66/66 64/64/64
f 63/63/63 67/67/67 66/66/66
f 64/64/64 68/68/68 65/65/65
f 66/66/66 68/68/68 64/64/64
f 68/68/68 69/69/69 65/65/65
f 67/67/67 70/70/70 66/66/66
f 66/66/66 70/70/70 68/68/68
f 67/67/67 71/71/71 70/70/70
f 68/68/68 72/72/72 69/69/69
f 70/70/70 72/72/72 68/68/68
f 72/72/72 73/73/73 69/69/69
f 71/71/71 74/74/74 70/70/70
f 70/70/70 74/74/74 72/72/72
f 71/71/71 75/75/75 74/74/74
f 72/72/72 76/76/76 73/73/73
f 74/74/74 76/76/76 72/72/72
f 76/76/76 77/77/77 73/73/73
f 75/75/75 78/78/78 74/74/74
f 74/74/74 78/78/78 76/76/76
f 75/75/75 79/79/79 78/78/78
f 76/76/76 80/80/80 77/77/77
f 78/78/78 80/80/80 76/76/76
f 80/80/80 81/81/81 77/77/77
f 79/79/79 82/82/82 78/78/78
f 78/78/78 82/82/82 80/80/80
f 79/79/79 83/83/83 82/82/82
f 80/80/80 84/84/84 81/81/81
f 82/82/82 84/84/84 80/80/80
f 84/84/84 85/85/85 81/81/81
f 83/83/83 86/86/86 82/82/82
f 82/82/82 86/86/86 84/84/84
f 83/83/83 87/87/87 86/86/86
f 84/84/84 88/88/88 85/85/85
f 86/86/86 88/88/88 84/84/84
f 88/88/88 89/89/89 85/85/85
f 87/87/87 90/90/90 86/86/86
f 86/86/86 90/90/90 88/88/88
f 87/87/87 91/91/91 90/90/90
f 88/88/88 92/92/92 89/89/89
f 90/90/90 92/92/92 88/88/88
f 92/92/92 93/93/93 89/89/89
f 91/91/91 94/94/94 90/90/90
f 90/90/90 94/94/94 92/92/92
f 91/91/91 95/95/95 94/94/94
f 92/92/92 96/96/96 93/93/93
f 94/94/94 96/96/96 92/92/92
f 96/96/96 97/97/97 93/93/93
f 95/95/95 98/98/98 94/94/94
f 94/94/94 98/98/98 96/96/96
f 95/95/95 99/99/99 98/98/98
f 96/96/96 100/100/100 97/97/97
f 98/98/98 100/100/100 96/96/96
f 100/100/100 101/101/101 97/97/97
f 99/99/99 102/102/102 98/98/98
f 98/98/98 102/102/102 100/100/100
f 99/99/99 103/103/103 102/102/102
f 100/100/100 104/104/104 101/101/101
f 102/102/102 104/104/104 100/100/100
f 104/104/104 105/105/105 101/101/101
f 103/103/103 106/106/106 102/102/102
f 102/102/102 106/106/106 104/104/104
f 103/103/103 107/107/107 106/106/106
f 104/104/104 108/108/108 105/105/105
f 106/106/106 108/108/108 104/104/104
f 108/108/108 109/109/109 105/105/105
f 107/107/107 110/110/110 106/106/106
f 106/106/106 110/110/110 108/108/108
f 107/107/107 111/111/111 110/110/110
f 108/108/108 112/112/112 109/109/109
f 110/110/110 112/112/112 108/108/108
f 112/112/112 113/113/113 109/109/109
f 111/111/111 114/114/114 110/110/110
f 110/110/110 114/114/114 112/112/112
f 111/111/111 115/115/115 114/114/114
f 112/112/112 116/116/116 113/113/113
f 114/114/114 116/116/116 112/112/112
f 116/116/116 117/117/117 113/113/113
f 115/115/115 118/118/118 114/114/114
f 114/114/114 118/118/118 116/116/116
f 115/115/115 119/119/119 118/118/118
f 116/116/116 120/120/120 117/117/117
f 118/118/118 120/120/120 116/116/116
f 120/120/120 121/121/121 117/117/117
f 119/119/119 122/122/122 118/118/118
f 118/118/118 122/122/122 120/120/120
f 119/119/119 123/123/123 122/122/122
f 120/120/120 124/124/124 121/121/121
f 122/122/122 124/124/124 120/120/120
f 124/124/124 125/125/125 121/121/121
f 123/123/123 126/126/126 122/122/122
f 122/122/122 126/126/126 124/124/124
f 123/123/123 127/127/127 126/126/126
f 124/124/124 128/128/128 125/125/125
f 126/126/126 128/128/128 124/124/124
f 128/128/128 129/129/129 125/125/125
f 127/127/127 130/130/130 126/126/126
f 126/126/126 130/130/130 128/128/128
f 127/127/127 131/131/131 130/130/130
f 128/128/128 132/132/132 129/129/129
f 130/130/130 132/132/132 128/128/128
f 132/132/132 133/133/133 129/129/129
f 131/131/131 134/134/134 130/130/130
f 130/130/130 134/134/134 132/132/132
f 131/131/131 135/135/135 134/134/134
f 132/132/132 136/136/136 133/133/133
f 134/134/134 136/136/136 132/132/132
f 136/136/136 137/137/137 133/133/133
f 135/135/135 138/138/138 134/134/134
f 134/134/134 138/138/138 136/136/136
f 135/135/135 139/139/139 138/138/138
f 136/136/136 140/140/140 137/137/137
f 138/138/138 140/140/140 136/136/136
f 140/140/140 141/141/141 137/137/137
f 139/139/139 142/142/142 138/138/138
f 138/138/138 142/142/142 140/140/140
f 139/139/139 143/143/143 142/142/142
f 140/140/140 144/144/144 141/141/141
f 142/142/142 144/144/144 140/140/140
f 144/144/144 145/145/145 141/141/141
f 143/143/143 146/146/146 142/142/142
f 142/142/142 146/146/146 144/144/144
f 143/143/143 147/147/147 146/146/146
f 144/144/144 148/148/148 145/145/145
f 146/146/146 148/148/148 144/144/144
f 148/148/148 149/149/149 145/145/145
f 147/147/147 150/150/150 146/146/146
f 146/146/146 150/150/150 148/148/148
f 147/147/147 151/151/151 150/150/150
f 148/148/148 152/152/152 149/149/149
f 150/150/150 152/152/152 148/148/148
f 152/152/152 153/153/153 149/149/149
f 151/151/151 154/154/154 150/150/150
f 150/150/150 154/154/154 152/152/152
f 151/151/151 155/155/155 154/154/154
f 152/152/152 156/156/156 153/153/153
f 154/154/154 156/156/156 152/152/152
f 156/156/156 157/157/157 153/153/153
f 155/155/155 158/158/158 154/154/154
f 154/154/154 158/158/158 156/156/156
f 155/155/155 159/159/159 158/158/158
f 156/156/156 160/160/160 157/157/157
f 158/158/158 160/160/160 156/156/156
f 160/160/160 161/161/161 157/157/157
f 159/159/159 162/162/162 158/158/158
f 158/158/158 162/162/162 160/160/160
f 159/159/159 163/163/163 162/162/162
f 160/160/160 164/164/164 161/161/161
f 162/162/162 164/164/164 160/160/160
f 164/164/164 165/165/165 161/161/161
f 163/163/163 166/166/166 162/162/162
f 162/162/162 166/166/166 164/164/164
f 163/163/163 167/167/167 166/166/166
f 164/164/164 168/168/168 165/165/165
f 166/166/166 168/168/168 164/164/164
f 168/168/168 169/169/169 165/165/165
f 167/167/167 170/170/170 166/166/166
f 166/166/166 170/170/170 168/168/168
f 167/167/167 171/171/171 170/170/170
f 168/168/168 172/172/172 169/169/169
f 170/170/170 172/172/172 168/168/168
f 172/172/172 173/173/173 169/169/169
f 171/171/171 174/174/174 170/170/170
f 170/170/170 174/174/174 172/172/172
f 171/171/171 175/175/175 174/174/174
f 172/172/172 176/176/176 173/173/173
f 174/174/174 176/176/176 172/172/172
f 176/176/176 177/177/177 173/173/173
f 175/175/175 178/178/178 174/174/174
f 174/174/174 178/178/178 176/176/176
f 175/175/175 179/179/179 178/178/178
f 176/176/176 180/180/180 177/177/177
f 178/178/178 180/180/180 176/176/176
f 180/180/180 181/181/181 177/177/177
f 179/179/179 182/182/182 178/178/178
f 178/178/178 182/182/182 180/180/180
f 179/179/179 183/183/183 182/182/182
f 180/180/180 184/184/184 181/181/181
f 182/182/182 184/184/184 180/180/180
f 184/184/184 185/185/185 181/181/181
f 183/183/183 186/186/186 182/182/182
f 182/182/182 186/186/186 184/184/184
f 183/183/183 187/187/187 186/186/186
f 184/184/184 188/188/188 185/185/185
f 186/186/186 188/188/188 184/184/184
f 188/188/188 189/189/189 185/185/185
f 187/187/187 190/190/190 186/186/186
f 186/186/186 190/190/190 188/188/188
f 187/187/187 191/191/191 190/190/190
f 188/188/188 192/192/192 189/189/189
f 190/190/190 192/192/192 188/188/188
f 192/192/192 193/193/193 189/189/189
f 191/191/191 194/194/194 190/190/190
f 190/190/190 194/194/194 192/192/192
f 191/191/191 195/195/195 194/194/194
f 192/192/192 196/196/196 193/193/193
f 194/194/194 196/196/196 192/192/192
f 196/196/196 197/197/197 193/193/193
f 195/195/195 198/198/198 194/194/194
f 194/194/194 198/198/198 196/196/196
f 195/195/195 199/199/199 198/198/198
f 196/196/196 200/200/200 197/197/197
f 198/198/198 200/200/200 196/196/196
f 200/200/200 201/201/201 197/197/197
f 199/199/199 202/202/202 198/198/198
f 198/198/198 202/202/202 200/200/200
f 199/199/199 203/203/203 202/202/202
f 200/200/200 204/204/204 201/201/201
f 202/202/202 204/204/204 200/200/200
f 204/204/204 205/205/205 201/201/201
f 203/203/203 206/206/206 202/202/202
f 202/202/202 206/206/206 204/204/204
f 203/203/203 207/207/207 206/206/206
f 204/204/204 208/208/208 205/205/205
f 206/206/206 208/208/208 204/204/204
f 208/208/208 209/209/209 205/205/205
f 207/207/207 210/210/210 206/206/206
f 206/206/206 210/210/210 208/208/208
f 207/207/207 211/211/211 210/210/210
f 208/208/208 212/212/212 209/209/209
f 210/210/210 212/212/212 208/208/208
f 212/212/212 213/213/213 209/209/209
f 211/211/211 214/214/214 210/210/210
f 210/210/210 214/214/214 212/212/212
f 211/211/211 215/215/215 214/214/214
f 212/212/212 216/216/216 213/213/213
f 214/214/214 216/216/216 212/212/212
f 216/216/216 217/217/217 213/213/213
f 215/215/215 218/218/218 214/214/214
f 214/214/214 218/218/218 216/216/216
f 215/215/215 219/219/219 218/218/218
f 216/216/216 220/220/220 217/217/217
f 218/218/218 220/220/220 216/216/216
f 220/220/220 221/221/221 217/217/217
f 219/219/219 222/222/222 218/218/218
f 218/218/218 222/222/222 220/220/220
f 219/219/219 223/223/223 222/222/222
f 220/220/220 224/224/224 221/221/221
f 222/222/222 224/224/224 220/220/220
f 224/224/224 225/225/225 221/221/221
f 223/223/223 226/226/226 222/222/222
f 222/222/222 226/226/226 224/224/224
f 223/223/223 227/227/227 226/226/226
f 224/224/224 228/228/228 225/225/225
f 226/226/226 228/228/228 224/224/224
f 228/228/228 229/229/229 225/225/225
f 227/227/227 230/230/230 226/226/226
f 226/226/226 230/230/230 228/228/228
f 227/227/227 231/231/231 230/230/230
f 228/228/228 232/232/232 229/229/229
f 230/230/230 232/232/232 228/228/228
f 232/232/232 233/233/233 229/229/229
f 231/231/231 234/234/234 230/230/230
f 230/230/230 234/234/234 232/232/232
f 231/231/231 235/235/235 234/234/234
f 232/232/232 236/236/236 233/233/233
f 234/234/234 236/236/236 232/232/232
f 236/236/236 237/237/237 233/233/233
f 235/235/235 238/238/238 234/234/234
f 234/234/234 238/238/238 236/236/236
f 235/235/235 239/239/239 238/238/238
f 236/236/236 240/240/240 237/237/237
f 238/238/238 240/240/240 236/236/236
f 240/240/240 241/241/241 237/237/237
f 239/239/239 242/242/242 238/238/238
f 238/238/238 242/242/242 240/240/240
f 239/239/239 243/243/243 242/242/242
f 240/240/240 244/244/244 241/241/241
f 242/242/242 244/244/244 240/240/240
f 244/244/244 245/245/245 241/241/241
f 243/243/243 246/246/246 242/242/242
f 242/242/242 246/246/246 244/244/244
f 243/243/243 247/247/247 246/246/246
f 244/244/244 248/248/248 245/245/245
f 246/246/246 248/248/248 244/244/244
f 248/248/248 249/249/249 245/245/245
f 247/247/247 250/250/250 246/246/246
f 246/246/246 250/250/250 248/248/248
f 247/247/247 251/251/251 250/250/250
f 248/248/248 252/252/252 249/249/249
f 250/250/250 252/252/252 248/248/248
f 252/252/252 253/253/253 249/249/249
f 251/251/251 254/254/254 250/250/250
f 250/250/250 254/254/254 252/252/252
f 251/251/251 255/255/255 254/254/254
f 252/252/252 256/256/256 253/253/253
f 254/254/254 256/256/256 252/252/252
f 256/256/256 257/257/257 253/253/253
f 255/255/255 258/258/258 254/254/254
f 254/254/254 258/258/258 256/256/256
f 255/255/255 259/259/259 258/258/258
f 256/256/256 260/260/260 257/257/257
f 258/258/258 260/260/260 256/256/256
f 260/260/260 261/261/261 257/257/257
f 259/259/259 262/262/262 258/258/258
f 258/258/258 262/262/262 260/260/260
f 259/259/259 263/263/263 262/262/262
f 260/260/260 264/264/264 261/261/261
f 262/262/262 264/264/264 260/260/260
f 264/264/264 265/265/265 261/261/261
f 263/263/263 266/266/266 262/262/262
f 262/262/262 266/266/266 264/264/264
f 263/263/263 267/267/267 266/266/266
f 264/264/264 268/268/268 265/265/265
f 266/266/266 268/268/268 264/264/264
f 268/268/268 269/269/269 265/265/265
f 267/267/267 270/270/270 266/266/266
f 266/266/266 270/270/270 268/268/268
f 267/267/267 271/271/271 270/270/270
f 268/268/268 272/272/272 269/269/269
f 270/270/270 272/272/272 268/268/268
f 272/272/272 273/273/273 269/269/269
f 271/271/271 274/274/274 270/270/270
f 270/270/270 274/274/274 272/272/272
f 271/271/271 275/275/275 274/274/274
f 272/272/272 276/276/276 273/273/273
f 274/274/274 276/276/276 272/272/272
f 276/276/276 277/277/277 273/273/273
f 275/275/275 278/278/278 274/274/274
f 274/274/274 278/278/278 276/276/276
f 275/275/275 279/279/279 278/278/278
f 276/276/276 280/280/280 277/277/277
f 278/278/278 280/280/280 276/276/276
f 280/280/280 281/281/281 277/277/277
f 279/279/279 282/282/282 278/278/278
f 278/278/278 282/282/282 280/280/280
f 279/279/279 283/283/283 282/282/282
f 280/280/280 284/284/284 281/281/281
f 282/282/282 284/284/284 280/280/280
f 284/284/284 285/285/285 281/281/281
f 283/283/283 286/286/286 282/282/282
f 282/282/282 286/286/286 284/284/284
f 283/283/283 287/287/287 286/286/286
f 284/284/284 288/288/288 285/285/285
f 286/286/286 288/288/288 284/284/284
f 288/288/288 289/289/289 285/285/285
f 287/287/287 290/290/290 286/286/286
f 286/286/286 290/290/290 288/288/288
f 287/287/287 291/291/291 290/290/290
f 288/288/288 292/292/292 289/289/289
f 290/290/290 292/292/292 288/288/288
f 292/292/292 293/293/293 289/289/289
f 291/291/291 294/294/294 290/290/290
f 290/290/290 294/294/294 292/292/292
f 291/291/291 295/295/295 294/294/294
f 292/292/292 296/296/296 293/293/293
f 294/294/294 296/296/296 292/292/292
f 296/296/296 297/297/297 293/293/293
f 295/295/295 298/298/298 294/294/294
f 294/294/294 298/298/298 296/296/296
f 295/295/295 299/299/299 298/298/298
f 296/296/296 300/300/300 297/297/297
f 298/298/298 300/300/300 296/296/296
f 300/300/300 301/301/301 297/297/297
f 299/299/299 302/302/302 298/298/298
f 298/298/298 302/302/302 300/300/300
f 299/299/299 303/303/303 302/302/302
f 300/300/300 304/304/304 301/301/301
f 302/302/302 304/304/304 300/300/300
f 304/304/304 305/305/305 301/301/301
f 303/303/303 306/306/306 302/302/302
f 302/302/302 306/306/306 304/304/304
f 303/303/303 307/307/307 306/306/306
f 304/304/304 308/308/308 305/305/305
f 306/306/306 308/308/308 304/304/304
f 308/308/308 309/309/309 305/305/305
f 307/307/307 310/310/310 306/306/306
f 306/306/306 310/310/310 308/308/308
f 307/307/307 311/311/311 310/310/310
f 308/308/308 312/312/312 309/309/309
f 310/310/310 312/312/312 308/308/308
f 312/312/312 313/313/313 309/309/309
f 311/311/311 314/314/314 310/310/310
f 310/310/310 314/314/314 312/312/312
f 311/311/311 315/315/315 314/314/314
f 312/312/312 316/316/316 313/313/313
f 314/314/314 316/316/316 312/312/312
f 316/316/316 317/317/317 313/313/313
f 315/315/315 318/318/318 314/314/314
f 314/314/314 318/318/318 316/316/316
f 315/315/315 319/319/319 318/318/318
f 316/316/316 320/320/320 317/317/317
f 318/318/318 320/320/320 316/316/316
f 320/320/320 321/321/321 317/317/317
f 319/319/319 322/322/322 318/318/318
f 318/318/318 322/322/322 320/320/320
f 319/319/319 323/323/323 322/322/322
f 320/320/320 324/324/324 321/321/321
f 322/322/322 324/324/324 320/320/320
f 324/324/324 325/325/325 321/321/321
f 323/323/323 326/326/326 322/322/322
f 322/322/322 326/326/326 324/324/324
f 323/323/323 327/327/327 326/326/326
f 324/324/324 328/328/328 325/325/325
f 326/326/326 328/328/328 324/324/324
f 328/328/328 329/329/329 325/325/325
f 327/327/327 330/330/330 326/326/326
f 326/326/326 330/330/330 328/328/328
f 327/327/327 331/331/331 330/330/330
f 328/328/328 332/332/332 329/329/329
f 330/330/330 332/332/332 328/328/328
f 332/332/332 333/333/333 329/329/329
f 331/331/331 334/334/334 330/330/330
f 330/330/330 334/334/334 332/332/332
f 331/331/331 335/335/335 334/334/334
f 332/332/332 336/336/336 333/333/333
f 334/334/334 336/336/336 332/332/332
f 336/336/336 337/337/337 333/333/333
f 335/335/335 338/338/338 334/334/334
f 334/334/334 338/338/338 336/336/336
f 335/335/335 339/339/339 338/338/338
f 336/336/336 340/340/340 337/337/337
f 338/338/338 340/340/340 336/336/336
f 340/340/340 341/341/341 337/337/337
f 339/339/339 342/342/342 338/338/338
f 338/338/338 342/342/342 340/340/340
f 339/339/339 343/343/343 342/342/342
f 340/340/340 344/344/344 341/341/341
f 342/342/342 344/344/344 340/340/340
f 344/344/344 345/345/345 341/341/341
f 343/343/343 346/346/346 342/342/342
f 342/342/342 346/346/346 344/344/344
f 343/343/343 347/347/347 346/346/346
f 344/344/344 348/348/348 345/345/345
f 346/346/346 348/348/348 344/344/344
f 348/348/348 349/349/349 345/345/345
f 347/347/347 350/350/350 346/346/346
f 346/346/346 350/350/350 348/348/348
f 347/347/347 351/351/351 350/350/350
f 348/348/348 352/352/352 349/349/349
f 350/350/350 352/352/352 348/348/348
f 352/352/352 353/353/353 349/349/349
f 351/351/351 354/354/354 350/350/350
f 350/350/350 354/354/354 352/352/352
f 351/351/351 355/355/355 354/354/354
f 352/352/352 356/356/356 353/353/353
f 354/354/354 356/356/356 352/352/352
f 356/356/356 357/357/357 353/353/353
f 355/355/355 358/358/358 354/354/354
f 354/354/354 358/358/358 356/356/356
f 355/355/355 359/359/359 358/358/358
f 356/356/356 360/360/360 357/357/357
f 358/358/358 360/360/360 356/356/356
f 360/360/360 361/361/361 357/357/357
f 359/359/359 362/362/362 358/358/358
f 358/358/358 362/362/362 360/360/360
f 359/359/359 363/363/363 362/362/362
f 360/360/360 364/364/364 361/361/361
f 362/362/362 364/364/364 360/360/360
f 364/364/364 365/365/365 361/361/361
f 363/363/363 366/366/366 362/362/362
f 362/362/362 366/366/366 364/364/364
f 363/363/363 367/367/367 366/366/366
f 364/364/364 368/368/368 365/365/365
f 366/366/366 368/368/368 364/364/364
f 368/368/368 369/369/369 365/365/365
f 367/367/367 370/370/370 366/366/366
f 366/366/366 370/370/370 368/368/368
f 367/367/367 371/371/371 370/370/370
f 368/368/368 372/372/372 369/369/369
f 370/370/370 372/372/372 368/368/368
f 372/372/372 373/373/373 369/369/369
f 371/371/371 374/374/374 370/370/370
f 370/370/370 374/374/374 372/372/372
f 371/371/371 375/375/375 374/374/374
f 372/372/372 376/376/376 373/373/373
f 374/374/374 376/376/376 372/372/372
f 376/376/376 377/377/377 373/373/373
f 375/375/375 378/378/378 374/374/374
f 374/374/374 378/378/378 376/376/376
f 375/375/375 379/379/379 378/378/378
f 376/376/376 380/380/380 377/377/377
f 378/378/378 380/380/380 376/376/376
f 380/380/380 381/381/381 377/377/377
f 379/379/379 382/382/382 378/378/378
f 378/378/378 382/382/382 380/380/380
f 379/379/379 383/383/383 382/382/382
f 383/383/383 384/384/384 382/382/382
f 380/380/380 385/385/385 381/381/381
f 382/382/382 385/385/385 380/380/380
f 382/382/382 384/384/384 385/385/385
f 385/385/385 386/386/386 381/381/381
f 384/384/384 387/387/387 385/385/385
f 385/385/385 387/387/387 386/386/386
f 387/387/387 388/388/388 386/386/386
