g S_fx_lzy_xishou_01
v 0.5012132 0.012856906 0.21164322
v 0.45755064 -0.040485255 0.07154105
v 0.50997466 -0.03648946 0.2146232
v 0.4510275 0.0042856345 0.07054772
v 0.4051267 -0.044481054 -0.071541086
v 0.4008419 -0.0042856364 -0.07054775
v 0.3527027 -0.04847684 -0.2146232
v 0.35065624 -0.012856906 -0.21164322
v 0.50997466 -0.03648946 0.2146232
v 0.45952368 -0.08669582 0.07240711
v 0.51368177 -0.088050276 0.2172214
v 0.45755064 -0.040485255 0.07154105
v 0.40536562 -0.08534138 -0.07240714
v 0.4051267 -0.044481054 -0.071541086
v 0.35120758 -0.08398692 -0.2172214
v 0.3527027 -0.04847684 -0.2146232
v 0.51368177 -0.088050276 0.2172214
v 0.4567423 -0.13366713 0.07317601
v 0.5120278 -0.14066955 0.21952808
v 0.45952368 -0.08669582 0.07240711
v 0.40145677 -0.12666471 -0.07317604
v 0.40536562 -0.08534138 -0.07240714
v 0.34617126 -0.1196623 -0.21952808
v 0.35120758 -0.08398692 -0.2172214
v 0.5120278 -0.14066955 0.21952808
v 0.44908404 -0.18090317 0.07386707
v 0.504861 -0.1937796 0.22160125
v 0.4567423 -0.13366713 0.07317601
v 0.39330712 -0.16802673 -0.07386711
v 0.40145677 -0.12666471 -0.07317604
v 0.3375302 -0.15515031 -0.22160125
v 0.34617126 -0.1196623 -0.21952808
v 0.504861 -0.1937796 0.22160125
v 0.43647727 -0.2278924 0.07449383
v 0.49208513 -0.24679618 0.22348155
v 0.44908404 -0.18090317 0.07386707
v 0.38086945 -0.20898859 -0.07449388
v 0.39330712 -0.16802673 -0.07386711
v 0.32526156 -0.1900848 -0.22348155
v 0.3375302 -0.15515031 -0.22160125
v 0.49208513 -0.24679618 0.22348155
v 0.41890296 -0.27411193 0.07506609
v 0.47366259 -0.29912084 0.22519833
v 0.43647727 -0.2278924 0.07449383
v 0.36414337 -0.249103 -0.075066134
v 0.38086945 -0.20898859 -0.07449388
v 0.30938372 -0.22409406 -0.22519833
v 0.32526156 -0.1900848 -0.22348155
v 0.47366259 -0.29912084 0.22519833
v 0.39639664 -0.3190339 0.07559112
v 0.4496169 -0.35014972 0.2267734
v 0.41890296 -0.27411193 0.07506609
v 0.34317634 -0.28791806 -0.075591154
v 0.36414337 -0.249103 -0.075066134
v 0.28995606 -0.25680223 -0.2267734
v 0.30938372 -0.22409406 -0.22519833
v 0.4496169 -0.35014972 0.2267734
v 0.36904994 -0.3621302 0.0760746
v 0.42003593 -0.39927667 0.22822383
v 0.39639664 -0.3190339 0.07559112
v 0.31806397 -0.32498375 -0.07607463
v 0.34317634 -0.28791806 -0.075591154
v 0.26707804 -0.28783724 -0.22822383
v 0.28995606 -0.25680223 -0.2267734
v 0.42003593 -0.39927667 0.22822383
v 0.33701065 -0.4028789 0.076521434
v 0.385071 -0.44590122 0.22956435
v 0.36904994 -0.3621302 0.0760746
v 0.28895026 -0.3598566 -0.07652147
v 0.31806397 -0.32498375 -0.07607463
v 0.2408899 -0.31683427 -0.22956435
v 0.26707804 -0.28783724 -0.22822383
v 0.385071 -0.44590122 0.22956435
v 0.3004823 -0.44077003 0.07693501
v 0.34493777 -0.48943526 0.23080507
v 0.33701065 -0.4028789 0.076521434
v 0.2560268 -0.39210483 -0.07693504
v 0.28895026 -0.3598566 -0.07652147
v 0.21157135 -0.34343964 -0.23080507
v 0.2408899 -0.31683427 -0.22956435
v 0.34493777 -0.48943526 0.23080507
v 0.2597238 -0.47531143 0.07731835
v 0.29991558 -0.5293095 0.23195508
v 0.3004823 -0.44077003 0.07693501
v 0.21953201 -0.42131332 -0.077318385
v 0.2560268 -0.39210483 -0.07693504
v 0.17934023 -0.3673152 -0.23195508
v 0.21157135 -0.34343964 -0.23080507
v 0.29991558 -0.5293095 0.23195508
v 0.2150472 -0.5060351 0.07767406
v 0.2503448 -0.56498104 0.23302223
v 0.2597238 -0.47531143 0.07731835
v 0.1797496 -0.44708914 -0.0776741
v 0.21953201 -0.42131332 -0.077318385
v 0.14445202 -0.38814318 -0.23302223
v 0.17934023 -0.3673152 -0.23195508
v 0.2503448 -0.56498104 0.23302223
v 0.1668163 -0.5325021 0.07800436
v 0.19662642 -0.595938 0.23401313
v 0.2150472 -0.5060351 0.07767406
v 0.13700613 -0.46906626 -0.0780044
v 0.1797496 -0.44708914 -0.0776741
v 0.10719599 -0.4056304 -0.23401313
v 0.14445202 -0.38814318 -0.23302223
v 0.19662642 -0.595938 0.23401313
v 0.11544259 -0.5543095 0.07831106
v 0.13921642 -0.6217088 0.23493324
v 0.1668163 -0.5325021 0.07800436
v 0.091668755 -0.4869102 -0.0783111
v 0.13700613 -0.46906626 -0.0780044
v 0.067894936 -0.41951087 -0.23493324
v 0.10719599 -0.4056304 -0.23401313
v 0.13921642 -0.6217088 0.23493324
v 0.061383728 -0.571094 0.078595735
v 0.0786259 -0.64186573 0.23578726
v 0.11544259 -0.5543095 0.07831106
v 0.044141553 -0.5003223 -0.07859577
v 0.091668755 -0.4869102 -0.0783111
v 0.02689938 -0.42955053 -0.23578726
v 0.067894936 -0.41951087 -0.23493324
v 0.0786259 -0.64186573 0.23578726
v 0.0051368154 -0.58253837 0.07885969
v 0.015410496 -0.6560327 0.2365791
v 0.061383728 -0.571094 0.078595735
v -0.0051368647 -0.50904405 -0.078859724
v 0.044141553 -0.5003223 -0.07859577
v -0.015410543 -0.43554977 -0.2365791
v 0.02689938 -0.42955053 -0.23578726
v 0.015410496 -0.6560327 0.2365791
v -0.05275681 -0.58853894 0.07916044
v -0.04980818 -0.6643806 0.23748136
v 0.0051368154 -0.58253837 0.07885969
v -0.055705436 -0.51269716 -0.07916047
v -0.0051368647 -0.50904405 -0.078859724
v -0.058654062 -0.43685544 -0.23748136
v -0.015410543 -0.43554977 -0.2365791
v -0.04980818 -0.6643806 0.23748136
v -0.11177115 -0.5887169 0.07943318
v -0.11651059 -0.6661546 0.23829958
v -0.05275681 -0.58853894 0.07916044
v -0.10703172 -0.51127934 -0.0794332
v -0.055705436 -0.51269716 -0.07916047
v -0.10229228 -0.4338417 -0.23829958
v -0.058654062 -0.43685544 -0.23748136
v -0.11651059 -0.6661546 0.23829958
v -0.17131373 -0.582912 0.07967978
v -0.1840242 -0.661146 0.23903936
v -0.11177115 -0.5887169 0.07943318
v -0.15860328 -0.5046781 -0.0796798
v -0.10703172 -0.51127934 -0.0794332
v -0.14589284 -0.4264441 -0.23903936
v -0.10229228 -0.4338417 -0.23829958
v -0.1840242 -0.661146 0.23903936
v -0.23077217 -0.57102424 0.07990154
v -0.25165236 -0.6492156 0.23970464
v -0.17131373 -0.582912 0.07967978
v -0.20989196 -0.49283287 -0.07990156
v -0.15860328 -0.5046781 -0.0796798
v -0.18901177 -0.4146415 -0.23970464
v -0.14589284 -0.4264441 -0.23903936
v -0.25165236 -0.6492156 0.23970464
v -0.28951988 -0.5530172 0.08010004
v -0.31867865 -0.6302968 0.24030013
v -0.23077217 -0.57102424 0.07990154
v -0.2603611 -0.4757375 -0.08010006
v -0.20989196 -0.49283287 -0.07990156
v -0.2312023 -0.39845785 -0.24030013
v -0.18901177 -0.4146415 -0.23970464
v -0.31867865 -0.6302968 0.24030013
v -0.34692222 -0.52891916 0.08027629
v -0.38437456 -0.60439706 0.24082889
v -0.28951988 -0.5530172 0.08010004
v -0.30946988 -0.45344126 -0.08027632
v -0.2603611 -0.4757375 -0.08010006
v -0.27201754 -0.37796336 -0.24082889
v -0.2312023 -0.39845785 -0.24030013
v -0.38437456 -0.60439706 0.24082889
v -0.40234435 -0.49882454 0.0804314
v -0.44800866 -0.5716001 0.24129425
v -0.34692222 -0.52891916 0.08027629
v -0.35668007 -0.42604902 -0.08043143
v -0.30946988 -0.45344126 -0.08027632
v -0.31101578 -0.3532735 -0.24129425
v -0.27201754 -0.37796336 -0.24082889
v -0.44800866 -0.5716001 0.24129425
v -0.45515633 -0.4628946 0.0805663
v -0.5088523 -0.53206706 0.24169892
v -0.40234435 -0.49882454 0.0804314
v -0.40146032 -0.39372206 -0.08056633
v -0.35668007 -0.42604902 -0.08043143
v -0.34776434 -0.3245496 -0.24169892
v -0.31101578 -0.3532735 -0.24129425
v -0.5088523 -0.53206706 0.24169892
v -0.5047425 -0.4213562 0.08068174
v -0.5661911 -0.48603562 0.24204522
v -0.45515633 -0.4628946 0.0805663
v -0.44329393 -0.3566768 -0.08068175
v -0.40146032 -0.39372206 -0.08056633
v -0.38184538 -0.29199734 -0.24204522
v -0.34776434 -0.3245496 -0.24169892
v -0.5661911 -0.48603562 0.24204522
v -0.55050606 -0.37450224 0.080778696
v -0.6193292 -0.43382022 0.24233608
v -0.5047425 -0.4213562 0.08068174
v -0.48168293 -0.31518424 -0.0807787
v -0.44329393 -0.3566768 -0.08068175
v -0.4128598 -0.25586626 -0.24233608
v -0.38184538 -0.29199734 -0.24204522
v -0.6193292 -0.43382022 0.24233608
v -0.59187806 -0.3226881 0.080857754
v -0.66760147 -0.3758083 0.24257326
v -0.55050606 -0.37450224 0.080778696
v -0.51615465 -0.2695679 -0.08085776
v -0.48168293 -0.31518424 -0.0807787
v -0.44043127 -0.21644771 -0.24257326
v -0.4128598 -0.25586626 -0.24233608
v -0.66760147 -0.3758083 0.24257326
v -0.6283224 -0.2663303 0.080919385
v -0.7103771 -0.31246 0.24275817
v -0.59187806 -0.3226881 0.080857754
v -0.5462678 -0.22020064 -0.0809194
v -0.51615465 -0.2695679 -0.08085776
v -0.46421316 -0.17407098 -0.24275817
v -0.44043127 -0.21644771 -0.24257326
v -0.7103771 -0.31246 0.24275817
v -0.6593433 -0.20590347 0.080964364
v -0.74707043 -0.24430318 0.2428931
v -0.6283224 -0.2663303 0.080919385
v -0.5716163 -0.16750377 -0.08096437
v -0.5462678 -0.22020064 -0.0809194
v -0.48388925 -0.12910406 -0.2428931
v -0.46421316 -0.17407098 -0.24275817
v -0.74707043 -0.24430318 0.2428931
v -0.68449116 -0.14193597 0.080993295
v -0.77714676 -0.17193079 0.2429799
v -0.6593433 -0.20590347 0.080964364
v -0.59183556 -0.111941166 -0.08099331
v -0.5716163 -0.16750377 -0.08096437
v -0.49918 -0.08194635 -0.2429799
v -0.48388925 -0.12910406 -0.2428931
v -0.77714676 -0.17193079 0.2429799
v -0.70336866 -0.07500402 0.08100636
v -0.8001311 -0.095991164 0.2430191
v -0.68449116 -0.14193597 0.080993295
v -0.6066063 -0.054016873 -0.08100637
v -0.59183556 -0.111941166 -0.08099331
v -0.5098439 -0.033029735 -0.2430191
v -0.49918 -0.08194635 -0.2429799
v -0.8001311 -0.095991164 0.2430191
v -0.7156357 -0.0057295356 0.081004195
v -0.8156118 -0.017188726 0.2430126
v -0.70336866 -0.07500402 0.08100636
v -0.6156597 0.0057296543 -0.081004195
v -0.6066063 -0.054016873 -0.08100637
v -0.5156836 0.017188843 -0.24301258
v -0.5098439 -0.033029735 -0.2430191
v -0.8156118 -0.017188726 0.2430126
v -0.7211715 0.06522648 0.08098219
v -0.82371956 0.06372065 0.24294662
v -0.7156357 -0.0057295356 0.081004195
v -0.61862344 0.0667323 -0.08098221
v -0.6156597 0.0057296543 -0.081004195
v -0.5160754 0.068238124 -0.24294658
v -0.5156836 0.017188843 -0.24301258
v -0.82371956 0.06372065 0.24294662
v -0.71960527 0.1372048 0.080939606
v -0.8237125 0.1460456 0.24281885
v -0.7211715 0.06522648 0.08098219
v -0.615498 0.12836401 -0.08093961
v -0.61862344 0.0667323 -0.08098221
v -0.51139075 0.119523205 -0.2428188
v -0.5160754 0.068238124 -0.24294658
v -0.8237125 0.1460456 0.24281885
v -0.7107907 0.20948969 0.080877066
v -0.81539124 0.22896689 0.24263123
v -0.71960527 0.1372048 0.080939606
v -0.60619026 0.19001245 -0.08087707
v -0.615498 0.12836401 -0.08093961
v -0.5015898 0.17053524 -0.24263118
v -0.51139075 0.119523205 -0.2428188
v -0.81539124 0.22896689 0.24263123
v -0.6946547 0.28134498 0.08079527
v -0.798641 0.3116363 0.24238586
v -0.7107907 0.20948969 0.080877066
v -0.5906683 0.25105366 -0.08079529
v -0.60619026 0.19001245 -0.08087707
v -0.48668197 0.22076233 -0.24238582
v -0.5015898 0.17053524 -0.24263118
v -0.798641 0.3116363 0.24238586
v -0.6711995 0.35202292 0.08069436
v -0.7734359 0.39318758 0.24208309
v -0.6946547 0.28134498 0.08079527
v -0.56896305 0.31085825 -0.08069437
v -0.5906683 0.25105366 -0.08079529
v -0.46672663 0.26969355 -0.24208304
v -0.48668197 0.22076233 -0.24238582
v -0.7734359 0.39318758 0.24208309
v -0.6405036 0.42077383 0.08057514
v -0.7398364 0.4727518 0.24172544
v -0.6711995 0.35202292 0.08069436
v -0.54117084 0.36879593 -0.08057515
v -0.56896305 0.31085825 -0.08069437
v -0.44183806 0.31681797 -0.2417254
v -0.46672663 0.26969355 -0.24208304
v -0.7398364 0.4727518 0.24172544
v -0.6027231 0.4868512 0.0804381
v -0.697995 0.54945713 0.24131434
v -0.6405036 0.42077383 0.08057514
v -0.5074513 0.4242452 -0.08043811
v -0.54117084 0.36879593 -0.08057515
v -0.41217947 0.36163923 -0.24131429
v -0.44183806 0.31681797 -0.2417254
v -0.697995 0.54945713 0.24131434
v -0.5580911 0.5495222 0.080283344
v -0.6481541 0.6224472 0.24085005
v -0.6027231 0.4868512 0.0804381
v -0.46802807 0.47659728 -0.080283344
v -0.5074513 0.4242452 -0.08043811
v -0.37796503 0.40367234 -0.24085
v -0.41217947 0.36163923 -0.24131429
v -0.6481541 0.6224472 0.24085005
v -0.5069178 0.6080728 0.080111474
v -0.5906478 0.6908816 0.24033445
v -0.5580911 0.5495222 0.080283344
v -0.42318782 0.525264 -0.08011148
v -0.46802807 0.47659728 -0.080283344
v -0.33945784 0.4424553 -0.2403344
v -0.37796503 0.40367234 -0.24085
v -0.5906478 0.6908816 0.24033445
v -0.44958606 0.6618197 0.07992278
v -0.5258945 0.7539557 0.23976837
v -0.5069178 0.6080728 0.080111474
v -0.37327754 0.5696836 -0.07992279
v -0.42318782 0.525264 -0.08011148
v -0.29696906 0.47754753 -0.23976833
v -0.33945784 0.4424553 -0.2403344
v -0.5258945 0.7539557 0.23976837
v -0.38655245 0.710113 0.07971781
v -0.45440164 0.81089824 0.23915343
v -0.44958606 0.6618197 0.07992278
v -0.31870326 0.60932773 -0.079717815
v -0.37327754 0.5696836 -0.07992279
v -0.25085407 0.5085424 -0.23915343
v -0.29696906 0.47754753 -0.23976833
v -0.45440164 0.81089824 0.23915343
v -0.31834036 0.75234914 0.07949654
v -0.37675625 0.86099124 0.23848963
v -0.38655245 0.710113 0.07971781
v -0.25992453 0.64370704 -0.07949655
v -0.31870326 0.60932773 -0.079717815
v -0.20150867 0.53506494 -0.23848963
v -0.25085407 0.5085424 -0.23915343
v -0.37675625 0.86099124 0.23848963
v -0.2455376 0.7879742 0.07925938
v -0.2936206 0.90357196 0.23777816
v -0.31834036 0.75234914 0.07949654
v -0.19745462 0.67237633 -0.07925939
v -0.25992453 0.64370704 -0.07949655
v -0.14937164 0.5567785 -0.23777816
v -0.20150867 0.53506494 -0.23848963
v -0.2936206 0.90357196 0.23777816
v -0.16879137 0.8164919 0.07900682
v -0.20573187 0.9380418 0.2370205
v -0.2455376 0.7879742 0.07925938
v -0.13185088 0.69494194 -0.079006836
v -0.19745462 0.67237633 -0.07925939
v -0.09491039 0.573392 -0.2370205
v -0.14937164 0.5567785 -0.23777816
v -0.20573187 0.9380418 0.2370205
v -0.08880279 0.83747005 0.078738876
v -0.11389072 0.9638765 0.23621663
v -0.16879137 0.8164919 0.07900682
v -0.06371487 0.7110637 -0.07873889
v -0.13185088 0.69494194 -0.079006836
v -0.038626943 0.58465725 -0.23621663
v -0.09491039 0.573392 -0.2370205
v -0.11389072 0.9638765 0.23621663
v -0.006317458 0.85054594 0.07845606
v -0.018952396 0.9806294 0.23536819
v -0.08880279 0.83747005 0.078738876
v 0.0063174795 0.7204625 -0.078456074
v -0.06371487 0.7110637 -0.07873889
v 0.018952416 0.590379 -0.23536819
v -0.038626943 0.58465725 -0.23621663
v -0.018952396 0.9806294 0.23536819
v 0.07787752 0.85558033 0.07810826
v 0.078177854 0.9883876 0.23432481
v -0.006317458 0.85054594 0.07845606
v 0.07757719 0.722773 -0.07810828
v 0.0063174795 0.7204625 -0.078456074
v 0.077276856 0.58996576 -0.23432481
v 0.018952416 0.590379 -0.23536819
v 0.078177854 0.9883876 0.23432481
v 0.16299002 0.852213 0.07774113
v 0.17663638 0.98642874 0.23322341
v 0.07787752 0.85558033 0.07810826
v 0.14934362 0.7179974 -0.07774115
v 0.07757719 0.722773 -0.07810828
v 0.13569725 0.58378166 -0.23322341
v 0.077276856 0.58996576 -0.23432481
v 0.17663638 0.98642874 0.23322341
v 0.24817728 0.84031355 0.07735451
v 0.27544513 0.97456837 0.23206358
v 0.16299002 0.852213 0.07774113
v 0.22090943 0.7060586 -0.077354535
v 0.14934362 0.7179974 -0.07774115
v 0.19364159 0.5718038 -0.23206358
v 0.13569725 0.58378166 -0.23322341
v 0.27544513 0.97456837 0.23206358
v 0.33257648 0.81983674 0.07694929
v 0.37359667 0.9527213 0.23084791
v 0.24817728 0.84031355 0.07735451
v 0.29155627 0.6869522 -0.07694931
v 0.22090943 0.7060586 -0.077354535
v 0.25053608 0.5540676 -0.23084791
v 0.19364159 0.5718038 -0.23206358
v 0.37359667 0.9527213 0.23084791
v 0.4153186 0.79082555 0.07652533
v 0.4700752 0.92090607 0.22957604
v 0.33257648 0.81983674 0.07694929
v 0.36056206 0.6607451 -0.07652536
v 0.29155627 0.6869522 -0.07694931
v 0.30580547 0.5306647 -0.22957604
v 0.25053608 0.5540676 -0.23084791
v 0.4700752 0.92090607 0.22957604
v 0.49553546 0.75341094 0.07608321
v 0.56385964 0.8792441 0.2282497
v 0.4153186 0.79082555 0.07652533
v 0.42721128 0.6275778 -0.07608325
v 0.36056206 0.6607451 -0.07652536
v 0.35888717 0.5017447 -0.2282497
v 0.30580547 0.5306647 -0.22957604
v 0.56385964 0.8792441 0.2282497
v 0.5723694 0.70781296 0.07562295
v 0.6539399 0.8279633 0.22686891
v 0.49553546 0.75341094 0.07608321
v 0.4907989 0.5876625 -0.07562298
v 0.42721128 0.6275778 -0.07608325
v 0.40922847 0.46751213 -0.22686891
v 0.35888717 0.5017447 -0.2282497
v 0.6539399 0.8279633 0.22686891
v 0.6449811 0.65433925 0.0751451
v 0.7393213 0.7673957 0.22543535
v 0.5723694 0.70781296 0.07562295
v 0.5506409 0.541283 -0.07514514
v 0.4907989 0.5876625 -0.07562298
v 0.45630074 0.42822662 -0.22543535
v 0.40922847 0.46751213 -0.22686891
v 0.7393213 0.7673957 0.22543535
v 0.7125601 0.5933843 0.07465
v 0.81904274 0.6979753 0.22395004
v 0.6449811 0.65433925 0.0751451
v 0.60607755 0.4887933 -0.074650034
v 0.5506409 0.541283 -0.07514514
v 0.49959496 0.38420233 -0.22395004
v 0.45630074 0.42822662 -0.22543535
v 0.81904274 0.6979753 0.22395004
v 0.7743334 0.52542603 0.074137785
v 0.89218277 0.6202372 0.2224134
v 0.7125601 0.5933843 0.07465
v 0.65648407 0.43061483 -0.07413782
v 0.60607755 0.4887933 -0.074650034
v 0.5386348 0.33580372 -0.2224134
v 0.49959496 0.38420233 -0.22395004
v 0.89218277 0.6202372 0.2224134
v 0.82957256 0.45102358 0.073608644
v 0.9578692 0.53481466 0.22082599
v 0.7743334 0.52542603 0.074137785
v 0.70127594 0.36723253 -0.07360869
v 0.65648407 0.43061483 -0.07413782
v 0.57297933 0.2834415 -0.22082599
v 0.5386348 0.33580372 -0.2224134
v 0.9578692 0.53481466 0.22082599
v 0.87760574 0.37080893 0.07306308
v 1.015295 0.4424273 0.21918927
v 0.82957256 0.45102358 0.073608644
v 0.7399164 0.29919058 -0.07306313
v 0.70127594 0.36723253 -0.07360869
v 0.6022271 0.2275722 -0.21918932
v 0.57297933 0.2834415 -0.22082599
v 1.015295 0.4424273 0.21918927
v 0.9178211 0.2854871 0.07250104
v 1.0637217 0.34388426 0.21750316
v 0.87760574 0.37080893 0.07306308
v 0.7719205 0.22708991 -0.07250108
v 0.7399164 0.29919058 -0.07306313
v 0.62601995 0.16869274 -0.2175032
v 0.6022271 0.2275722 -0.21918932
v 1.0637217 0.34388426 0.21750316
v 0.9496772 0.19582585 0.07192291
v 1.102491 0.24007003 0.21576878
v 0.9178211 0.2854871 0.07250104
v 0.79686356 0.15158166 -0.071922965
v 0.7719205 0.22708991 -0.07250108
v 0.6440498 0.10733749 -0.21576883
v 0.62601995 0.16869274 -0.2175032
v 1.102491 0.24007003 0.21576878
v 0.9727081 0.102652356 0.07132891
v 1.1310319 0.13194364 0.2139868
v 0.9496772 0.19582585 0.07192291
v 0.8143843 0.07336107 -0.07132896
v 0.79686356 0.15158166 -0.071922965
v 0.65606046 0.04406979 -0.21398683
v 0.6440498 0.10733749 -0.21576883
v 1.1310319 0.13194364 0.2139868
v 0.9865306 0.0068399357 0.07071941
v 1.1488703 0.020520128 0.2121583
v 0.9727081 0.102652356 0.07132891
v 0.82419086 -0.006840255 -0.07071947
v 0.8143843 0.07336107 -0.07132896
v 0.66185117 -0.020520443 -0.21215835
v 0.65606046 0.04406979 -0.21398683
v 1.1488703 0.020520128 0.2121583
v 0.990981 -0.09069645 0.07000523
v 1.1560307 -0.0931383 0.21001574
v 0.9865306 0.0068399357 0.07071941
v 0.82593125 -0.0882546 -0.07000529
v 0.82419086 -0.006840255 -0.07071947
v 0.66088146 -0.08581275 -0.21001579
v 0.66185117 -0.020520443 -0.21215835
v 1.1560307 -0.0931383 0.21001574
v 0.98571867 -0.18903089 0.06927151
v 1.151839 -0.20799139 0.20781457
v 0.990981 -0.09069645 0.07000523
v 0.81959844 -0.1700704 -0.069271564
v 0.82593125 -0.0882546 -0.07000529
v 0.6534782 -0.1511099 -0.20781462
v 0.66088146 -0.08581275 -0.21001579
v 1.151839 -0.20799139 0.20781457
v 0.97063154 -0.28718874 0.068518266
v 1.1361313 -0.32289428 0.20555484
v 0.98571867 -0.18903089 0.06927151
v 0.8051317 -0.25148323 -0.06851832
v 0.81959844 -0.1700704 -0.069271564
v 0.63963187 -0.2157777 -0.20555489
v 0.6534782 -0.1511099 -0.20781462
v 1.1361313 -0.32289428 0.20555484
v 0.9457053 -0.38418266 0.06774586
v 1.108861 -0.4366816 0.20323762
v 0.97063154 -0.28718874 0.068518266
v 0.7825497 -0.33168373 -0.06774591
v 0.8051317 -0.25148323 -0.06851832
v 0.619394 -0.2791848 -0.20323767
v 0.63963187 -0.2157777 -0.20555489
v 1.108861 -0.4366816 0.20323762
v 0.91102546 -0.47902152 0.06695492
v 1.0700978 -0.5481837 0.2008648
v 0.9457053 -0.38418266 0.06774586
v 0.7519531 -0.4098594 -0.06695497
v 0.7825497 -0.33168373 -0.06774591
v 0.59288085 -0.34069723 -0.20086485
v 0.619394 -0.2791848 -0.20323767
v 1.0700978 -0.5481837 0.2008648
v 0.8667785 -0.5707182 0.06614533
v 1.0200334 -0.6562294 0.19843602
v 0.91102546 -0.47902152 0.06695492
v 0.71352357 -0.48520696 -0.066145375
v 0.7519531 -0.4098594 -0.06695497
v 0.56026864 -0.39969578 -0.19843607
v 0.59288085 -0.34069723 -0.20086485
v 1.0200334 -0.6562294 0.19843602
v 0.8132513 -0.658302 0.06531773
v 0.95897853 -0.7596644 0.19595324
v 0.8667785 -0.5707182 0.06614533
v 0.6675241 -0.55693954 -0.06531778
v 0.71352357 -0.48520696 -0.066145375
v 0.5217969 -0.45557716 -0.19595326
v 0.56026864 -0.39969578 -0.19843607
v 0.95897853 -0.7596644 0.19595324
v 0.7508296 -0.74082905 0.06447224
v 0.8873641 -0.8573626 0.19341676
v 0.8132513 -0.658302 0.06531773
v 0.614295 -0.62429553 -0.06447229
v 0.6675241 -0.55693954 -0.06531778
v 0.47776052 -0.50776196 -0.1934168
v 0.5217969 -0.45557716 -0.19595326
v 0.8873641 -0.8573626 0.19341676
v 0.6799946 -0.8173934 0.06360912
v 0.8057339 -0.9482417 0.19082743
v 0.7508296 -0.74082905 0.06447224
v 0.5542552 -0.6865452 -0.063609175
v 0.614295 -0.62429553 -0.06447229
v 0.4285158 -0.5556969 -0.19082746
v 0.47776052 -0.50776196 -0.1934168
v 0.8057339 -0.9482417 0.19082743
v 0.60132074 -0.8871337 0.06272877
v 0.71474427 -1.0312693 0.18818636
v 0.6799946 -0.8173934 0.06360912
v 0.48789722 -0.742998 -0.062728815
v 0.5542552 -0.6865452 -0.063609175
v 0.37447372 -0.59886247 -0.18818639
v 0.4285158 -0.5556969 -0.19082746
v 0.71474427 -1.0312693 0.18818636
v 0.5154723 -0.94924444 0.06183145
v 0.61516184 -1.1054761 0.18549438
v 0.60132074 -0.8871337 0.06272877
v 0.41578272 -0.79301274 -0.061831485
v 0.48789722 -0.742998 -0.062728815
v 0.31609318 -0.6367811 -0.18549442
v 0.37447372 -0.59886247 -0.18818639
v 0.61516184 -1.1054761 0.18549438
v 0.4231936 -1.0029867 0.060917247
v 0.50784826 -1.1699713 0.18275179
v 0.5154723 -0.94924444 0.06183145
v 0.33853897 -0.83600193 -0.06091729
v 0.41578272 -0.79301274 -0.061831485
v 0.25388435 -0.6690173 -0.18275182
v 0.31609318 -0.6367811 -0.18549442
v 0.50784826 -1.1699713 0.18275179
v 0.32530823 -1.0476931 0.059986897
v 0.39376304 -1.2239463 0.17996073
v 0.4231936 -1.0029867 0.060917247
v 0.25685343 -0.8714399 -0.059986938
v 0.33853897 -0.83600193 -0.06091729
v 0.18839866 -0.6951867 -0.17996076
v 0.25388435 -0.6690173 -0.18275182
v 0.39376304 -1.2239463 0.17996073
v 0.22270758 -1.0827793 0.05904026
v 0.2739481 -1.2666904 0.17712083
v 0.32530823 -1.0476931 0.059986897
v 0.17146705 -0.8988683 -0.059040297
v 0.25685343 -0.8714399 -0.059986938
v 0.12022653 -0.71495724 -0.17712083
v 0.18839866 -0.6951867 -0.17996076
v 0.2739481 -1.2666904 0.17712083
v 0.11634149 -1.1077493 0.058077667
v 0.14951536 -1.297597 0.17423303
v 0.22270758 -1.0827793 0.05904026
v 0.083167605 -0.9179017 -0.058077697
v 0.17146705 -0.8988683 -0.059040297
v 0.049993746 -0.72805405 -0.17423303
v 0.12022653 -0.71495724 -0.17712083
v 0.14951536 -1.297597 0.17423303
v 0.0072163353 -1.1222014 0.05709964
v 0.021649703 -1.3161699 0.17129895
v 0.11634149 -1.1077493 0.058077667
v -0.0072170305 -0.928233 -0.05709967
v 0.083167605 -0.9179017 -0.058077697
v -0.021650394 -0.7342647 -0.17129895
v 0.049993746 -0.72805405 -0.17423303
v 0.021649703 -1.3161699 0.17129895
v -0.103624254 -1.1259416 0.05598255
v -0.1084253 -1.3223541 0.1679477
v 0.0072163353 -1.1222014 0.05709964
v -0.09882322 -0.9295293 -0.055982575
v -0.0072170305 -0.928233 -0.05709967
v -0.094022185 -0.7331169 -0.1679477
v -0.021650394 -0.7342647 -0.17129895
v -0.1084253 -1.3223541 0.1679477
v -0.21511748 -1.1186616 0.05484642
v -0.23948693 -1.3155606 0.16453929
v -0.103624254 -1.1259416 0.05598255
v -0.19074802 -0.92176276 -0.054846447
v -0.09882322 -0.9295293 -0.055982575
v -0.16637857 -0.72486395 -0.16453929
v -0.094022185 -0.7331169 -0.1679477
v -0.23948693 -1.3155606 0.16453929
v -0.32616317 -1.10027 0.053691924
v -0.37023222 -1.2956558 0.1610758
v -0.21511748 -1.1186616 0.05484642
v -0.28209418 -0.90488416 -0.053691942
v -0.19074802 -0.92176276 -0.054846447
v -0.23802514 -0.70949835 -0.1610758
v -0.16637857 -0.72486395 -0.16453929
v -0.37023222 -1.2956558 0.1610758
v -0.4356464 -1.0707872 0.052518964
v -0.4993375 -1.2626408 0.1575569
v -0.32616317 -1.10027 0.053691924
v -0.37195536 -0.87893337 -0.05251898
v -0.28209418 -0.90488416 -0.053691942
v -0.30826434 -0.68707967 -0.1575569
v -0.23802514 -0.70949835 -0.1610758
v -0.4993375 -1.2626408 0.1575569
v -0.5424513 -1.030346 0.05132831
v -0.6254738 -1.2166511 0.15398495
v -0.4356464 -1.0707872 0.052518964
v -0.45942888 -0.844041 -0.051328324
v -0.37195536 -0.87893337 -0.05251898
v -0.37640646 -0.6577359 -0.15398495
v -0.30826434 -0.68707967 -0.1575569
v -0.6254738 -1.2166511 0.15398495
v -0.6454771 -0.9791908 0.05012027
v -0.74732924 -1.1579559 0.15036082
v -0.5424513 -1.030346 0.05132831
v -0.543625 -0.80042577 -0.050120275
v -0.45942888 -0.844041 -0.051328324
v -0.44177282 -0.62166077 -0.15036082
v -0.37640646 -0.6577359 -0.15398495
v -0.74732924 -1.1579559 0.15036082
v -0.74364305 -0.91767806 0.04889514
v -0.8636149 -1.0869585 0.14668542
v -0.6454771 -0.9791908 0.05012027
v -0.6236711 -0.74839765 -0.048895143
v -0.543625 -0.80042577 -0.050120275
v -0.5036992 -0.5791172 -0.1466854
v -0.44177282 -0.62166077 -0.15036082
v -0.8636149 -1.0869585 0.14668542
v -0.8359024 -0.8462741 0.047653317
v -0.9730786 -1.0041959 0.14295997
v -0.74364305 -0.91767806 0.04889514
v -0.6987262 -0.6883523 -0.047653325
v -0.6236711 -0.74839765 -0.048895143
v -0.56154996 -0.5304305 -0.14295995
v -0.5036992 -0.5791172 -0.1466854
v -0.9730786 -1.0041959 0.14295997
v -0.9212532 -0.76555157 0.046395287
v -1.0745207 -0.9103323 0.13918586
v -0.8359024 -0.8462741 0.047653317
v -0.76798564 -0.6207709 -0.046395283
v -0.6987262 -0.6883523 -0.047653325
v -0.61471814 -0.47599018 -0.13918585
v -0.56154996 -0.5304305 -0.14295995
v -1.0745207 -0.9103323 0.13918586
v -0.9987524 -0.67618257 0.04512108
v -1.1668117 -0.80615187 0.13536324
v -0.9212532 -0.76555157 0.046395287
v -0.83069324 -0.54621327 -0.045121077
v -0.76798564 -0.6207709 -0.046395283
v -0.66263413 -0.41624397 -0.13536322
v -0.61471814 -0.47599018 -0.13918585
v -1.1668117 -0.80615187 0.13536324
v -1.0675195 -0.5789379 0.043831334
v -1.2488934 -0.6925592 0.131494
v -0.9987524 -0.67618257 0.04512108
v -0.8861458 -0.46531665 -0.04383133
v -0.83069324 -0.54621327 -0.045121077
v -0.704772 -0.35169545 -0.13149397
v -0.66263413 -0.41624397 -0.13536322
v -1.2488934 -0.6925592 0.131494
v -1.1267523 -0.47467682 0.042526152
v -1.3198019 -0.5705641 0.12757845
v -1.0675195 -0.5789379 0.043831334
v -0.9337025 -0.3787895 -0.04252614
v -0.8861458 -0.46531665 -0.04383133
v -0.7406529 -0.28290224 -0.12757842
v -0.704772 -0.35169545 -0.13149397
v -1.3198019 -0.5705641 0.12757845
v -1.1757315 -0.36434254 0.041206073
v -1.3786709 -0.44128042 0.12361821
v -1.1267523 -0.47467682 0.042526152
v -0.97279227 -0.28740466 -0.041206058
v -0.9337025 -0.3787895 -0.04252614
v -0.7698529 -0.21046676 -0.12361819
v -0.7406529 -0.28290224 -0.12757842
v -1.3786709 -0.44128042 0.12361821
v -1.2138346 -0.24894728 0.039871164
v -1.4247493 -0.3059029 0.11961348
v -1.1757315 -0.36434254 0.041206073
v -1.00292 -0.19199164 -0.03987115
v -0.97279227 -0.28740466 -0.041206058
v -0.7920054 -0.13503602 -0.11961345
v -0.7698529 -0.21046676 -0.12361819
v -1.4247493 -0.3059029 0.11961348
v -1.240537 -0.129572 0.038521603
v -1.4574013 -0.16571242 0.115564786
v -1.2138346 -0.24894728 0.039871164
v -1.0236729 -0.093431614 -0.03852158
v -1.00292 -0.19199164 -0.03987115
v -0.8068089 -0.05729122 -0.11556474
v -0.7920054 -0.13503602 -0.11961345
v -1.4574013 -0.16571242 0.115564786
v -1.2553592 -0.008222266 0.037156783
v -1.4759301 -0.024666855 0.111470334
v -1.240537 -0.129572 0.038521603
v -1.0347884 0.008222323 -0.03715676
v -1.0236729 -0.093431614 -0.03852158
v -0.81421745 0.024666907 -0.1114703
v -0.8068089 -0.05729122 -0.11556474
vt 1.0000005 1.0000007
vt 0.9895838 0.66666734
vt 0.98958373 1.0000007
vt 1.0000005 0.66666734
vt 0.9895838 0.33333397
vt 1.0000005 0.33333397
vt 0.9895838 7.1525574E-07
vt 1.0000005 7.1525574E-07
vt 0.98958373 1.0000007
vt 0.9791671 0.66666734
vt 0.9791671 1.0000007
vt 0.9895838 0.66666734
vt 0.9791671 0.33333397
vt 0.9895838 0.33333397
vt 0.9791671 7.1525574E-07
vt 0.9895838 7.1525574E-07
vt 0.9791671 1.0000007
vt 0.9687504 0.66666734
vt 0.9687504 1.0000007
vt 0.9791671 0.66666734
vt 0.9687505 0.33333397
vt 0.9791671 0.33333397
vt 0.9687505 7.1525574E-07
vt 0.9791671 7.1525574E-07
vt 0.9687504 1.0000007
vt 0.9583338 0.66666734
vt 0.95833373 1.0000007
vt 0.9687504 0.66666734
vt 0.9583338 0.33333397
vt 0.9687505 0.33333397
vt 0.9583338 7.1525574E-07
vt 0.9687505 7.1525574E-07
vt 0.95833373 1.0000007
vt 0.9479171 0.66666734
vt 0.9479171 1.0000007
vt 0.9583338 0.66666734
vt 0.9479171 0.33333397
vt 0.9583338 0.33333397
vt 0.9479171 7.1525574E-07
vt 0.9583338 7.1525574E-07
vt 0.9479171 1.0000007
vt 0.9375004 0.66666734
vt 0.9375004 1.0000007
vt 0.9479171 0.66666734
vt 0.9375005 0.33333397
vt 0.9479171 0.33333397
vt 0.9375005 7.1525574E-07
vt 0.9479171 7.1525574E-07
vt 0.9375004 1.0000007
vt 0.9270838 0.66666734
vt 0.92708373 1.0000007
vt 0.9375004 0.66666734
vt 0.9270838 0.33333397
vt 0.9375005 0.33333397
vt 0.9270838 7.1525574E-07
vt 0.9375005 7.1525574E-07
vt 0.92708373 1.0000007
vt 0.9166671 0.66666734
vt 0.9166671 1.0000007
vt 0.9270838 0.66666734
vt 0.9166671 0.33333397
vt 0.9270838 0.33333397
vt 0.9166671 7.1525574E-07
vt 0.9270838 7.1525574E-07
vt 0.9166671 1.0000007
vt 0.9062504 0.66666734
vt 0.9062504 1.0000007
vt 0.9166671 0.66666734
vt 0.9062505 0.33333397
vt 0.9166671 0.33333397
vt 0.9062505 7.1525574E-07
vt 0.9166671 7.1525574E-07
vt 0.9062504 1.0000007
vt 0.8958338 0.66666734
vt 0.89583373 1.0000007
vt 0.9062504 0.66666734
vt 0.8958338 0.33333397
vt 0.9062505 0.33333397
vt 0.8958338 7.1525574E-07
vt 0.9062505 7.1525574E-07
vt 0.89583373 1.0000007
vt 0.8854171 0.66666734
vt 0.8854171 1.0000007
vt 0.8958338 0.66666734
vt 0.8854171 0.33333397
vt 0.8958338 0.33333397
vt 0.88541716 7.1525574E-07
vt 0.8958338 7.1525574E-07
vt 0.8854171 1.0000007
vt 0.8750005 0.66666734
vt 0.8750004 1.0000007
vt 0.8854171 0.66666734
vt 0.8750005 0.33333397
vt 0.8854171 0.33333397
vt 0.8750005 7.1525574E-07
vt 0.88541716 7.1525574E-07
vt 0.8750004 1.0000007
vt 0.8645838 0.66666734
vt 0.86458373 1.0000007
vt 0.8750005 0.66666734
vt 0.8645838 0.33333397
vt 0.8750005 0.33333397
vt 0.8645838 7.1525574E-07
vt 0.8750005 7.1525574E-07
vt 0.86458373 1.0000007
vt 0.8541671 0.66666734
vt 0.8541671 1.0000007
vt 0.8645838 0.66666734
vt 0.8541671 0.33333397
vt 0.8645838 0.33333397
vt 0.8541671 7.1525574E-07
vt 0.8645838 7.1525574E-07
vt 0.8541671 1.0000007
vt 0.8437504 0.66666734
vt 0.8437504 1.0000007
vt 0.8541671 0.66666734
vt 0.8437505 0.33333397
vt 0.8541671 0.33333397
vt 0.8437505 7.1525574E-07
vt 0.8541671 7.1525574E-07
vt 0.8437504 1.0000007
vt 0.83333373 0.66666734
vt 0.83333373 1.0000007
vt 0.8437504 0.66666734
vt 0.8333338 0.33333397
vt 0.8437505 0.33333397
vt 0.8333338 7.1525574E-07
vt 0.8437505 7.1525574E-07
vt 0.83333373 1.0000007
vt 0.8229171 0.66666734
vt 0.8229171 1.0000007
vt 0.83333373 0.66666734
vt 0.8229171 0.33333397
vt 0.8333338 0.33333397
vt 0.8229171 7.1525574E-07
vt 0.8333338 7.1525574E-07
vt 0.8229171 1.0000007
vt 0.8125004 0.66666734
vt 0.8125004 1.0000007
vt 0.8229171 0.66666734
vt 0.8125004 0.33333397
vt 0.8229171 0.33333397
vt 0.8125005 7.1525574E-07
vt 0.8229171 7.1525574E-07
vt 0.8125004 1.0000007
vt 0.80208373 0.66666734
vt 0.80208373 1.0000007
vt 0.8125004 0.66666734
vt 0.80208373 0.33333397
vt 0.8125004 0.33333397
vt 0.8020838 7.1525574E-07
vt 0.8125005 7.1525574E-07
vt 0.80208373 1.0000007
vt 0.7916671 0.66666734
vt 0.79166704 1.0000007
vt 0.80208373 0.66666734
vt 0.7916671 0.33333397
vt 0.80208373 0.33333397
vt 0.7916671 7.1525574E-07
vt 0.8020838 7.1525574E-07
vt 0.79166704 1.0000007
vt 0.7812504 0.66666734
vt 0.78125036 1.0000007
vt 0.7916671 0.66666734
vt 0.7812504 0.33333397
vt 0.7916671 0.33333397
vt 0.7812504 7.1525574E-07
vt 0.7916671 7.1525574E-07
vt 0.78125036 1.0000007
vt 0.77083373 0.66666734
vt 0.77083373 1.0000007
vt 0.7812504 0.66666734
vt 0.77083373 0.33333397
vt 0.7812504 0.33333397
vt 0.77083373 7.1525574E-07
vt 0.7812504 7.1525574E-07
vt 0.77083373 1.0000007
vt 0.76041704 0.66666734
vt 0.76041704 1.0000007
vt 0.77083373 0.66666734
vt 0.7604171 0.33333397
vt 0.77083373 0.33333397
vt 0.7604171 7.1525574E-07
vt 0.77083373 7.1525574E-07
vt 0.76041704 1.0000007
vt 0.75000036 0.66666734
vt 0.75000036 1.0000007
vt 0.76041704 0.66666734
vt 0.7500004 0.33333397
vt 0.7604171 0.33333397
vt 0.7500004 7.1525574E-07
vt 0.7604171 7.1525574E-07
vt 0.75000036 1.0000007
vt 0.73958373 0.66666734
vt 0.73958373 1.0000007
vt 0.75000036 0.66666734
vt 0.73958373 0.33333397
vt 0.7500004 0.33333397
vt 0.73958373 7.1525574E-07
vt 0.7500004 7.1525574E-07
vt 0.73958373 1.0000007
vt 0.7291671 0.66666734
vt 0.7291671 1.0000007
vt 0.73958373 0.66666734
vt 0.7291671 0.33333397
vt 0.73958373 0.33333397
vt 0.7291671 7.1525574E-07
vt 0.73958373 7.1525574E-07
vt 0.7291671 1.0000007
vt 0.7187504 0.66666734
vt 0.7187504 1.0000007
vt 0.7291671 0.66666734
vt 0.7187505 0.33333397
vt 0.7291671 0.33333397
vt 0.7187505 7.1525574E-07
vt 0.7291671 7.1525574E-07
vt 0.7187504 1.0000007
vt 0.70833373 0.66666734
vt 0.70833373 1.0000007
vt 0.7187504 0.66666734
vt 0.7083338 0.33333397
vt 0.7187505 0.33333397
vt 0.7083338 7.1525574E-07
vt 0.7187505 7.1525574E-07
vt 0.70833373 1.0000007
vt 0.6979171 0.66666734
vt 0.6979171 1.0000007
vt 0.70833373 0.66666734
vt 0.6979171 0.33333397
vt 0.7083338 0.33333397
vt 0.6979171 7.1525574E-07
vt 0.7083338 7.1525574E-07
vt 0.6979171 1.0000007
vt 0.6875005 0.66666734
vt 0.6875005 1.0000007
vt 0.6979171 0.66666734
vt 0.6875005 0.33333397
vt 0.6979171 0.33333397
vt 0.6875005 7.1525574E-07
vt 0.6979171 7.1525574E-07
vt 0.6875005 1.0000007
vt 0.6770838 0.66666734
vt 0.6770838 1.0000007
vt 0.6875005 0.66666734
vt 0.67708385 0.33333397
vt 0.6875005 0.33333397
vt 0.67708385 7.1525574E-07
vt 0.6875005 7.1525574E-07
vt 0.6770838 1.0000007
vt 0.6666671 0.66666734
vt 0.6666671 1.0000007
vt 0.6770838 0.66666734
vt 0.66666716 0.33333397
vt 0.67708385 0.33333397
vt 0.66666716 7.1525574E-07
vt 0.67708385 7.1525574E-07
vt 0.6666671 1.0000007
vt 0.6562505 0.66666734
vt 0.6562505 1.0000007
vt 0.6666671 0.66666734
vt 0.6562505 0.33333397
vt 0.66666716 0.33333397
vt 0.6562505 7.1525574E-07
vt 0.66666716 7.1525574E-07
vt 0.6562505 1.0000007
vt 0.64583385 0.66666734
vt 0.64583385 1.0000007
vt 0.6562505 0.66666734
vt 0.64583385 0.33333397
vt 0.6562505 0.33333397
vt 0.64583385 7.1525574E-07
vt 0.6562505 7.1525574E-07
vt 0.64583385 1.0000007
vt 0.63541716 0.66666734
vt 0.63541716 1.0000007
vt 0.64583385 0.66666734
vt 0.6354172 0.33333397
vt 0.64583385 0.33333397
vt 0.6354172 7.1525574E-07
vt 0.64583385 7.1525574E-07
vt 0.63541716 1.0000007
vt 0.6250005 0.66666734
vt 0.6250005 1.0000007
vt 0.63541716 0.66666734
vt 0.62500054 0.33333397
vt 0.6354172 0.33333397
vt 0.62500054 7.1525574E-07
vt 0.6354172 7.1525574E-07
vt 0.6250005 1.0000007
vt 0.61458385 0.66666734
vt 0.61458385 1.0000007
vt 0.6250005 0.66666734
vt 0.61458385 0.33333397
vt 0.62500054 0.33333397
vt 0.61458385 7.1525574E-07
vt 0.62500054 7.1525574E-07
vt 0.61458385 1.0000007
vt 0.6041672 0.66666734
vt 0.6041672 1.0000007
vt 0.61458385 0.66666734
vt 0.6041672 0.33333397
vt 0.61458385 0.33333397
vt 0.6041672 7.1525574E-07
vt 0.61458385 7.1525574E-07
vt 0.6041672 1.0000007
vt 0.59375054 0.66666734
vt 0.59375054 1.0000007
vt 0.6041672 0.66666734
vt 0.5937506 0.33333397
vt 0.6041672 0.33333397
vt 0.5937506 7.1525574E-07
vt 0.6041672 7.1525574E-07
vt 0.59375054 1.0000007
vt 0.58333385 0.66666734
vt 0.58333385 1.0000007
vt 0.59375054 0.66666734
vt 0.5833339 0.33333397
vt 0.5937506 0.33333397
vt 0.5833339 7.1525574E-07
vt 0.5937506 7.1525574E-07
vt 0.58333385 1.0000007
vt 0.5729172 0.66666734
vt 0.5729172 1.0000007
vt 0.58333385 0.66666734
vt 0.5729172 0.33333397
vt 0.5833339 0.33333397
vt 0.5729172 7.1525574E-07
vt 0.5833339 7.1525574E-07
vt 0.5729172 1.0000007
vt 0.5625006 0.66666734
vt 0.5625006 1.0000007
vt 0.5729172 0.66666734
vt 0.5625006 0.33333397
vt 0.5729172 0.33333397
vt 0.5625006 7.1525574E-07
vt 0.5729172 7.1525574E-07
vt 0.5625006 1.0000007
vt 0.5520839 0.66666734
vt 0.5520839 1.0000007
vt 0.5625006 0.66666734
vt 0.55208397 0.33333397
vt 0.5625006 0.33333397
vt 0.55208397 7.1525574E-07
vt 0.5625006 7.1525574E-07
vt 0.5520839 1.0000007
vt 0.5416672 0.66666734
vt 0.5416672 1.0000007
vt 0.5520839 0.66666734
vt 0.5416673 0.33333397
vt 0.55208397 0.33333397
vt 0.5416673 7.1525574E-07
vt 0.55208397 7.1525574E-07
vt 0.5416672 1.0000007
vt 0.5312506 0.66666734
vt 0.5312506 1.0000007
vt 0.5416672 0.66666734
vt 0.5312506 0.33333397
vt 0.5416673 0.33333397
vt 0.5312506 7.1525574E-07
vt 0.5416673 7.1525574E-07
vt 0.5312506 1.0000007
vt 0.52083397 0.66666734
vt 0.52083397 1.0000007
vt 0.5312506 0.66666734
vt 0.52083397 0.33333397
vt 0.5312506 0.33333397
vt 0.52083397 7.1525574E-07
vt 0.5312506 7.1525574E-07
vt 0.52083397 1.0000007
vt 0.5104173 0.66666734
vt 0.5104173 1.0000007
vt 0.52083397 0.66666734
vt 0.51041734 0.33333397
vt 0.52083397 0.33333397
vt 0.51041734 7.1525574E-07
vt 0.52083397 7.1525574E-07
vt 0.5104173 1.0000007
vt 0.5000006 0.66666734
vt 0.5000006 1.0000007
vt 0.5104173 0.66666734
vt 0.50000066 0.33333397
vt 0.51041734 0.33333397
vt 0.50000066 7.1525574E-07
vt 0.51041734 7.1525574E-07
vt 0.5000006 1.0000007
vt 0.48958397 0.66666734
vt 0.48958397 1.0000007
vt 0.5000006 0.66666734
vt 0.48958397 0.33333397
vt 0.50000066 0.33333397
vt 0.48958403 7.1525574E-07
vt 0.50000066 7.1525574E-07
vt 0.48958397 1.0000007
vt 0.47916728 0.66666734
vt 0.47916728 1.0000007
vt 0.48958397 0.66666734
vt 0.47916728 0.33333397
vt 0.48958397 0.33333397
vt 0.47916734 7.1525574E-07
vt 0.48958403 7.1525574E-07
vt 0.47916728 1.0000007
vt 0.4687506 0.66666734
vt 0.4687506 1.0000007
vt 0.47916728 0.66666734
vt 0.4687506 0.33333397
vt 0.47916728 0.33333397
vt 0.46875066 7.1525574E-07
vt 0.47916734 7.1525574E-07
vt 0.4687506 1.0000007
vt 0.4583339 0.66666734
vt 0.4583339 1.0000007
vt 0.4687506 0.66666734
vt 0.4583339 0.33333397
vt 0.4687506 0.33333397
vt 0.45833397 7.1525574E-07
vt 0.46875066 7.1525574E-07
vt 0.4583339 1.0000007
vt 0.44791722 0.66666734
vt 0.44791722 1.0000007
vt 0.4583339 0.66666734
vt 0.44791722 0.33333397
vt 0.4583339 0.33333397
vt 0.44791728 7.1525574E-07
vt 0.45833397 7.1525574E-07
vt 0.44791722 1.0000007
vt 0.43750054 0.66666734
vt 0.43750054 1.0000007
vt 0.44791722 0.66666734
vt 0.43750054 0.33333397
vt 0.44791722 0.33333397
vt 0.4375006 7.1525574E-07
vt 0.44791728 7.1525574E-07
vt 0.43750054 1.0000007
vt 0.42708385 0.66666734
vt 0.42708385 1.0000007
vt 0.43750054 0.66666734
vt 0.42708385 0.33333397
vt 0.43750054 0.33333397
vt 0.4270839 7.1525574E-07
vt 0.4375006 7.1525574E-07
vt 0.42708385 1.0000007
vt 0.41666716 0.66666734
vt 0.41666716 1.0000007
vt 0.42708385 0.66666734
vt 0.41666716 0.33333397
vt 0.42708385 0.33333397
vt 0.41666722 7.1525574E-07
vt 0.4270839 7.1525574E-07
vt 0.41666716 1.0000007
vt 0.40625048 0.66666734
vt 0.40625048 1.0000007
vt 0.41666716 0.66666734
vt 0.40625048 0.33333397
vt 0.41666716 0.33333397
vt 0.40625054 7.1525574E-07
vt 0.41666722 7.1525574E-07
vt 0.40625048 1.0000007
vt 0.3958338 0.66666734
vt 0.3958338 1.0000007
vt 0.40625048 0.66666734
vt 0.3958338 0.33333397
vt 0.40625048 0.33333397
vt 0.39583385 7.1525574E-07
vt 0.40625054 7.1525574E-07
vt 0.3958338 1.0000007
vt 0.3854171 0.66666734
vt 0.3854171 1.0000007
vt 0.3958338 0.66666734
vt 0.3854171 0.33333397
vt 0.3958338 0.33333397
vt 0.38541716 7.1525574E-07
vt 0.39583385 7.1525574E-07
vt 0.3854171 1.0000007
vt 0.37500042 0.66666734
vt 0.37500042 1.0000007
vt 0.3854171 0.66666734
vt 0.37500042 0.33333397
vt 0.3854171 0.33333397
vt 0.37500048 7.1525574E-07
vt 0.38541716 7.1525574E-07
vt 0.37500042 1.0000007
vt 0.36458373 0.66666734
vt 0.36458373 1.0000007
vt 0.37500042 0.66666734
vt 0.36458373 0.33333397
vt 0.37500042 0.33333397
vt 0.3645838 7.1525574E-07
vt 0.37500048 7.1525574E-07
vt 0.36458373 1.0000007
vt 0.35416704 0.66666734
vt 0.35416704 1.0000007
vt 0.36458373 0.66666734
vt 0.35416704 0.33333397
vt 0.36458373 0.33333397
vt 0.3541671 7.1525574E-07
vt 0.3645838 7.1525574E-07
vt 0.35416704 1.0000007
vt 0.34375036 0.66666734
vt 0.34375036 1.0000007
vt 0.35416704 0.66666734
vt 0.34375036 0.33333397
vt 0.35416704 0.33333397
vt 0.34375042 7.1525574E-07
vt 0.3541671 7.1525574E-07
vt 0.34375036 1.0000007
vt 0.33333367 0.66666734
vt 0.33333367 1.0000007
vt 0.34375036 0.66666734
vt 0.33333367 0.33333397
vt 0.34375036 0.33333397
vt 0.33333373 7.1525574E-07
vt 0.34375042 7.1525574E-07
vt 0.33333367 1.0000007
vt 0.32291698 0.66666734
vt 0.32291698 1.0000007
vt 0.33333367 0.66666734
vt 0.32291698 0.33333397
vt 0.33333367 0.33333397
vt 0.32291704 7.1525574E-07
vt 0.33333373 7.1525574E-07
vt 0.32291698 1.0000007
vt 0.3125003 0.66666734
vt 0.3125003 1.0000007
vt 0.32291698 0.66666734
vt 0.3125003 0.3333339
vt 0.32291698 0.33333397
vt 0.31250036 7.1525574E-07
vt 0.32291704 7.1525574E-07
vt 0.3125003 1.0000007
vt 0.3020836 0.66666734
vt 0.3020836 1.0000007
vt 0.3125003 0.66666734
vt 0.3020836 0.3333339
vt 0.3125003 0.3333339
vt 0.30208367 7.1525574E-07
vt 0.31250036 7.1525574E-07
vt 0.3020836 1.0000007
vt 0.29166692 0.66666734
vt 0.29166692 1.0000007
vt 0.3020836 0.66666734
vt 0.29166692 0.3333339
vt 0.3020836 0.3333339
vt 0.29166698 7.1525574E-07
vt 0.30208367 7.1525574E-07
vt 0.29166692 1.0000007
vt 0.28125024 0.66666734
vt 0.28125024 1.0000007
vt 0.29166692 0.66666734
vt 0.28125024 0.3333339
vt 0.29166692 0.3333339
vt 0.2812503 7.1525574E-07
vt 0.29166698 7.1525574E-07
vt 0.28125024 1.0000007
vt 0.27083355 0.66666734
vt 0.27083355 1.0000007
vt 0.28125024 0.66666734
vt 0.27083355 0.3333339
vt 0.28125024 0.3333339
vt 0.2708336 7.1525574E-07
vt 0.2812503 7.1525574E-07
vt 0.27083355 1.0000007
vt 0.26041687 0.66666734
vt 0.26041687 1.0000007
vt 0.27083355 0.66666734
vt 0.26041687 0.3333339
vt 0.27083355 0.3333339
vt 0.26041692 7.1525574E-07
vt 0.2708336 7.1525574E-07
vt 0.26041687 1.0000007
vt 0.25000018 0.66666734
vt 0.25000018 1.0000007
vt 0.26041687 0.66666734
vt 0.25000018 0.3333339
vt 0.26041687 0.3333339
vt 0.25000024 7.1525574E-07
vt 0.26041692 7.1525574E-07
vt 0.25000018 1.0000007
vt 0.23958349 0.66666734
vt 0.23958349 1.0000007
vt 0.25000018 0.66666734
vt 0.23958349 0.3333339
vt 0.25000018 0.3333339
vt 0.23958355 7.1525574E-07
vt 0.25000024 7.1525574E-07
vt 0.23958349 1.0000007
vt 0.2291668 0.66666734
vt 0.2291668 1.0000007
vt 0.23958349 0.66666734
vt 0.2291668 0.3333339
vt 0.23958349 0.3333339
vt 0.22916687 7.1525574E-07
vt 0.23958355 7.1525574E-07
vt 0.2291668 1.0000007
vt 0.21875012 0.66666734
vt 0.21875012 1.0000007
vt 0.2291668 0.66666734
vt 0.21875012 0.3333339
vt 0.2291668 0.3333339
vt 0.21875018 7.1525574E-07
vt 0.22916687 7.1525574E-07
vt 0.21875012 1.0000007
vt 0.20833343 0.66666734
vt 0.20833343 1.0000007
vt 0.21875012 0.66666734
vt 0.20833343 0.3333339
vt 0.21875012 0.3333339
vt 0.20833349 7.1525574E-07
vt 0.21875018 7.1525574E-07
vt 0.20833343 1.0000007
vt 0.19791675 0.66666734
vt 0.19791675 1.0000007
vt 0.20833343 0.66666734
vt 0.19791675 0.3333339
vt 0.20833343 0.3333339
vt 0.1979168 7.1525574E-07
vt 0.20833349 7.1525574E-07
vt 0.19791675 1.0000007
vt 0.18750006 0.66666734
vt 0.18750006 1.0000007
vt 0.19791675 0.66666734
vt 0.18750006 0.3333339
vt 0.19791675 0.3333339
vt 0.18750012 7.1525574E-07
vt 0.1979168 7.1525574E-07
vt 0.18750006 1.0000007
vt 0.17708337 0.66666734
vt 0.17708337 1.0000007
vt 0.18750006 0.66666734
vt 0.17708337 0.3333339
vt 0.18750006 0.3333339
vt 0.17708343 7.1525574E-07
vt 0.18750012 7.1525574E-07
vt 0.17708337 1.0000007
vt 0.16666669 0.66666734
vt 0.16666669 1.0000007
vt 0.17708337 0.66666734
vt 0.16666669 0.3333339
vt 0.17708337 0.3333339
vt 0.16666675 7.1525574E-07
vt 0.17708343 7.1525574E-07
vt 0.16666669 1.0000007
vt 0.15625 0.66666734
vt 0.15625 1.0000007
vt 0.16666669 0.66666734
vt 0.15625 0.3333339
vt 0.16666669 0.3333339
vt 0.15625006 7.1525574E-07
vt 0.16666675 7.1525574E-07
vt 0.15625 1.0000007
vt 0.14583331 0.66666734
vt 0.14583331 1.0000007
vt 0.15625 0.66666734
vt 0.14583331 0.3333339
vt 0.15625 0.3333339
vt 0.14583337 7.1525574E-07
vt 0.15625006 7.1525574E-07
vt 0.14583331 1.0000007
vt 0.13541663 0.66666734
vt 0.13541663 1.0000007
vt 0.14583331 0.66666734
vt 0.13541663 0.3333339
vt 0.14583331 0.3333339
vt 0.13541669 7.1525574E-07
vt 0.14583337 7.1525574E-07
vt 0.13541663 1.0000007
vt 0.12499994 0.66666734
vt 0.12499994 1.0000007
vt 0.13541663 0.66666734
vt 0.12499994 0.3333339
vt 0.13541663 0.3333339
vt 0.125 7.1525574E-07
vt 0.13541669 7.1525574E-07
vt 0.12499994 1.0000007
vt 0.114583254 0.66666734
vt 0.114583254 1.0000007
vt 0.12499994 0.66666734
vt 0.114583254 0.3333339
vt 0.12499994 0.3333339
vt 0.11458331 7.1525574E-07
vt 0.125 7.1525574E-07
vt 0.114583254 1.0000007
vt 0.10416657 0.66666734
vt 0.10416657 1.0000007
vt 0.114583254 0.66666734
vt 0.10416657 0.3333339
vt 0.114583254 0.3333339
vt 0.10416663 7.1525574E-07
vt 0.11458331 7.1525574E-07
vt 0.10416657 1.0000007
vt 0.09374988 0.66666734
vt 0.09374988 1.0000007
vt 0.10416657 0.66666734
vt 0.09374988 0.3333339
vt 0.10416657 0.3333339
vt 0.09374994 7.1525574E-07
vt 0.10416663 7.1525574E-07
vt 0.09374988 1.0000007
vt 0.083333194 0.66666734
vt 0.083333194 1.0000007
vt 0.09374988 0.66666734
vt 0.083333194 0.3333339
vt 0.09374988 0.3333339
vt 0.083333254 7.1525574E-07
vt 0.09374994 7.1525574E-07
vt 0.083333194 1.0000007
vt 0.07291651 0.66666734
vt 0.07291651 1.0000007
vt 0.083333194 0.66666734
vt 0.07291651 0.3333339
vt 0.083333194 0.3333339
vt 0.07291657 7.1525574E-07
vt 0.083333254 7.1525574E-07
vt 0.07291651 1.0000007
vt 0.06249982 0.66666734
vt 0.06249982 1.0000007
vt 0.07291651 0.66666734
vt 0.06249982 0.3333339
vt 0.07291651 0.3333339
vt 0.06249988 7.1525574E-07
vt 0.07291657 7.1525574E-07
vt 0.06249982 1.0000007
vt 0.052083135 0.66666734
vt 0.052083135 1.0000007
vt 0.06249982 0.66666734
vt 0.052083135 0.3333339
vt 0.06249982 0.3333339
vt 0.052083194 7.1525574E-07
vt 0.06249988 7.1525574E-07
vt 0.052083135 1.0000007
vt 0.041666448 0.66666734
vt 0.041666448 1.0000007
vt 0.052083135 0.66666734
vt 0.041666448 0.3333339
vt 0.052083135 0.3333339
vt 0.041666508 7.1525574E-07
vt 0.052083194 7.1525574E-07
vt 0.041666448 1.0000007
vt 0.031249762 0.66666734
vt 0.031249762 1.0000007
vt 0.041666448 0.66666734
vt 0.031249762 0.3333339
vt 0.041666448 0.3333339
vt 0.031249821 7.1525574E-07
vt 0.041666508 7.1525574E-07
vt 0.031249762 1.0000007
vt 0.020833075 0.66666734
vt 0.020833075 1.0000007
vt 0.031249762 0.66666734
vt 0.020833075 0.3333339
vt 0.031249762 0.3333339
vt 0.020833135 7.1525574E-07
vt 0.031249821 7.1525574E-07
vt 0.020833075 1.0000007
vt 0.0104163885 0.66666734
vt 0.0104163885 1.0000007
vt 0.020833075 0.66666734
vt 0.0104163885 0.3333339
vt 0.020833075 0.3333339
vt 0.010416448 7.1525574E-07
vt 0.020833135 7.1525574E-07
vt 0.0104163885 1.0000007
vt -3.5762787E-07 0.66666734
vt -3.5762787E-07 1.0000007
vt 0.0104163885 0.66666734
vt -3.5762787E-07 0.3333339
vt 0.0104163885 0.3333339
vt -3.5762787E-07 7.1525574E-07
vt 0.010416448 7.1525574E-07
vn 0.929807 0.136572 -0.34177035
vn 0.929807 0.13657202 -0.34177035
vn 0.929807 0.136572 -0.34177038
vn 0.929807 0.13657202 -0.34177035
vn 0.9322415 0.11858332 -0.3418537
vn 0.9322415 0.11858332 -0.3418537
vn 0.9348586 0.0959819 -0.34179938
vn 0.9348586 0.09598191 -0.3417994
vn 0.9368395 0.042124417 -0.3472137
vn 0.9368394 0.042124417 -0.34721372
vn 0.9368394 0.042124417 -0.3472137
vn 0.9368394 0.04212441 -0.3472137
vn 0.93746066 0.023815697 -0.34727556
vn 0.93746066 0.023815697 -0.3472755
vn 0.9377969 0.0003233205 -0.34718445
vn 0.9377969 0.0003233205 -0.34718445
vn 0.93426996 -0.052500438 -0.3526803
vn 0.93426996 -0.052500434 -0.3526803
vn 0.93426996 -0.052500434 -0.3526803
vn 0.93426996 -0.052500434 -0.3526803
vn 0.9330459 -0.07069867 -0.35274228
vn 0.9330459 -0.07069867 -0.3527423
vn 0.93101466 -0.09407259 -0.35264984
vn 0.9310148 -0.094072595 -0.35264987
vn 0.9221672 -0.14610586 -0.358135
vn 0.9221672 -0.14610586 -0.358135
vn 0.9221672 -0.14610587 -0.358135
vn 0.9221672 -0.14610586 -0.358135
vn 0.9191305 -0.16399382 -0.35819718
vn 0.9191305 -0.16399382 -0.35819718
vn 0.9147671 -0.18698402 -0.35810348
vn 0.91476715 -0.18698402 -0.35810348
vn 0.90072 -0.23772757 -0.363578
vn 0.90072 -0.23772757 -0.36357802
vn 0.90072 -0.23772757 -0.36357802
vn 0.90072 -0.23772758 -0.363578
vn 0.8959244 -0.2551182 -0.36364037
vn 0.89592427 -0.2551182 -0.3636403
vn 0.88929176 -0.27747947 -0.3635456
vn 0.88929176 -0.2774795 -0.3635456
vn 0.8702095 -0.32644722 -0.3690092
vn 0.8702094 -0.3264472 -0.3690092
vn 0.8702095 -0.32644722 -0.36900923
vn 0.8702094 -0.3264472 -0.3690092
vn 0.8637293 -0.34315884 -0.36907148
vn 0.8637293 -0.34315884 -0.36907154
vn 0.8549197 -0.36464912 -0.36897615
vn 0.8549196 -0.36464918 -0.36897615
vn 0.83100957 -0.4113721 -0.3744277
vn 0.83100957 -0.41137207 -0.3744277
vn 0.83100957 -0.41137207 -0.37442774
vn 0.83100957 -0.41137204 -0.3744277
vn 0.8229358 -0.42723975 -0.37448996
vn 0.8229358 -0.42723975 -0.37448996
vn 0.812063 -0.44764158 -0.3743938
vn 0.81206304 -0.44764155 -0.3743938
vn 0.7835821 -0.4916555 -0.3798343
vn 0.7835821 -0.49165553 -0.37983435
vn 0.7835821 -0.4916555 -0.37983435
vn 0.7835821 -0.4916555 -0.37983435
vn 0.7740202 -0.5065288 -0.37989637
vn 0.7740202 -0.5065288 -0.37989643
vn 0.7612176 -0.5256425 -0.37979963
vn 0.76121753 -0.5256425 -0.37979966
vn 0.7284617 -0.5665183 -0.385228
vn 0.7284617 -0.5665183 -0.38522795
vn 0.7284617 -0.5665183 -0.38522795
vn 0.7284617 -0.5665183 -0.38522795
vn 0.71753705 -0.5802518 -0.38529006
vn 0.71753705 -0.5802518 -0.38529003
vn 0.70296556 -0.5978844 -0.38519293
vn 0.70296556 -0.5978844 -0.38519293
vn 0.66626835 -0.6352258 -0.390608
vn 0.66626835 -0.6352257 -0.390608
vn 0.66626835 -0.6352257 -0.390608
vn 0.66626835 -0.6352258 -0.39060804
vn 0.6541117 -0.6476996 -0.39066994
vn 0.6541117 -0.6476996 -0.39066997
vn 0.63794035 -0.6636907 -0.3905725
vn 0.6379404 -0.6636906 -0.3905725
vn 0.5976827 -0.697122 -0.39597526
vn 0.5976827 -0.697122 -0.39597526
vn 0.5976827 -0.697122 -0.39597523
vn 0.5976827 -0.697122 -0.39597526
vn 0.5844356 -0.7082299 -0.39603704
vn 0.58443564 -0.70822996 -0.39603704
vn 0.56684685 -0.7224381 -0.39593926
vn 0.5668468 -0.72243816 -0.39593923
vn 0.5234442 -0.7516254 -0.40132967
vn 0.5234441 -0.7516254 -0.40132967
vn 0.5234442 -0.7516254 -0.4013296
vn 0.5234441 -0.7516255 -0.4013296
vn 0.50926024 -0.7612747 -0.40139115
vn 0.50926024 -0.7612747 -0.40139112
vn 0.49045432 -0.773575 -0.40129316
vn 0.49045432 -0.773575 -0.4012932
vn 0.44434384 -0.79823416 -0.4066702
vn 0.4443439 -0.79823416 -0.4066703
vn 0.4443439 -0.79823416 -0.4066703
vn 0.4443439 -0.7982341 -0.40667027
vn 0.42938375 -0.8063492 -0.40673155
vn 0.42938375 -0.8063492 -0.40673155
vn 0.40957025 -0.8166403 -0.40663347
vn 0.40957028 -0.81664026 -0.40663347
vn 0.36122128 -0.8365273 -0.41199666
vn 0.36122128 -0.8365273 -0.4119967
vn 0.3612213 -0.8365272 -0.41199672
vn 0.36122125 -0.8365273 -0.41199666
vn 0.34564894 -0.8430512 -0.41205773
vn 0.3456489 -0.8430512 -0.41205767
vn 0.32504135 -0.8512564 -0.41195956
vn 0.32504135 -0.8512564 -0.4119596
vn 0.27494723 -0.86617374 -0.4173093
vn 0.27494726 -0.8661737 -0.41730934
vn 0.2749473 -0.86617374 -0.4173093
vn 0.27494726 -0.8661737 -0.41730934
vn 0.2589262 -0.87106794 -0.4173701
vn 0.25892627 -0.87106794 -0.4173701
vn 0.2377408 -0.87713355 -0.4172721
vn 0.2377408 -0.87713355 -0.4172721
vn 0.18641318 -0.88693434 -0.422608
vn 0.18641318 -0.8869344 -0.422608
vn 0.18641318 -0.88693434 -0.422608
vn 0.18641318 -0.8869344 -0.422608
vn 0.17011453 -0.8901755 -0.4226684
vn 0.1701145 -0.8901755 -0.42266843
vn 0.14857502 -0.8940692 -0.42257035
vn 0.14857502 -0.8940692 -0.4225703
vn 0.10046586 -0.89793926 -0.4284994
vn 0.100465864 -0.89793926 -0.42849946
vn 0.10046586 -0.89793926 -0.4284994
vn 0.10046586 -0.89793926 -0.42849943
vn 0.080099024 -0.8999402 -0.42859274
vn 0.08009903 -0.8999402 -0.4285928
vn 0.05317264 -0.90200365 -0.42844135
vn 0.05317264 -0.90200365 -0.4284414
vn 0.010204754 -0.9003555 -0.43503523
vn 0.010204754 -0.9003555 -0.43503523
vn 0.010204754 -0.90035564 -0.4350353
vn 0.010204754 -0.90035564 -0.4350353
vn -0.010116119 -0.90031135 -0.43512866
vn -0.010116119 -0.90031135 -0.43512866
vn -0.03698715 -0.8996819 -0.43497628
vn -0.036987156 -0.8996819 -0.4349763
vn -0.079490155 -0.8937092 -0.44154876
vn -0.07949016 -0.8937092 -0.44154876
vn -0.079490155 -0.8937092 -0.44154873
vn -0.07949015 -0.8937092 -0.44154876
vn -0.09955527 -0.8916508 -0.4416419
vn -0.099555254 -0.8916508 -0.4416419
vn -0.12609327 -0.8883627 -0.44148862
vn -0.12609328 -0.88836277 -0.44148862
vn -0.16770609 -0.8781435 -0.44803882
vn -0.1677061 -0.8781434 -0.4480388
vn -0.16770609 -0.8781435 -0.44803882
vn -0.16770609 -0.8781435 -0.4480388
vn -0.18732318 -0.8741212 -0.4481319
vn -0.18732318 -0.8741212 -0.4481319
vn -0.21327192 -0.8682344 -0.4479778
vn -0.21327195 -0.8682344 -0.44797787
vn -0.25356203 -0.85389143 -0.454506
vn -0.25356203 -0.85389143 -0.45450604
vn -0.25356203 -0.85389143 -0.454506
vn -0.25356203 -0.85389143 -0.454506
vn -0.2725399 -0.847975 -0.45459917
vn -0.2725399 -0.847975 -0.45459917
vn -0.29764208 -0.83957696 -0.4544443
vn -0.2976421 -0.83957696 -0.45444435
vn -0.33620933 -0.8212726 -0.46094972
vn -0.33620933 -0.8212726 -0.46094972
vn -0.33620933 -0.8212726 -0.4609498
vn -0.33620933 -0.8212726 -0.46094972
vn -0.35436717 -0.81354994 -0.46104276
vn -0.3543672 -0.8135499 -0.46104276
vn -0.37837994 -0.80275244 -0.46088728
vn -0.37837994 -0.80275244 -0.46088728
vn -0.41483653 -0.7806897 -0.46736938
vn -0.41483653 -0.7806897 -0.4673694
vn -0.41483653 -0.7806897 -0.46736938
vn -0.41483647 -0.7806897 -0.46736938
vn -0.43200484 -0.77126575 -0.46746215
vn -0.43200484 -0.77126575 -0.46746215
vn -0.45469943 -0.75820404 -0.46730626
vn -0.4546994 -0.758204 -0.4673063
vn -0.4886827 -0.7326229 -0.47376457
vn -0.48868263 -0.7326229 -0.4737645
vn -0.4886827 -0.7326229 -0.47376457
vn -0.48868266 -0.732623 -0.47376445
vn -0.5047058 -0.72161734 -0.47385707
vn -0.5047058 -0.72161734 -0.47385707
vn -0.5258706 -0.70644736 -0.4737007
vn -0.5258706 -0.7064473 -0.4737007
vn -0.5570389 -0.67762685 -0.48013487
vn -0.5570389 -0.67762685 -0.48013487
vn -0.55703896 -0.67762685 -0.48013487
vn -0.5570389 -0.6776268 -0.48013487
vn -0.57177633 -0.6651719 -0.48022732
vn -0.5717763 -0.66517186 -0.48022732
vn -0.5912197 -0.6480676 -0.4800704
vn -0.5912198 -0.6480676 -0.48007038
vn -0.6192675 -0.6163155 -0.48648006
vn -0.6192675 -0.6163155 -0.48648006
vn -0.6192675 -0.6163155 -0.48648006
vn -0.6192675 -0.6163155 -0.48648006
vn -0.6325894 -0.6025596 -0.4865722
vn -0.63258934 -0.6025596 -0.48657227
vn -0.6501349 -0.58371675 -0.48641494
vn -0.6501349 -0.58371675 -0.4864149
vn -0.6747898 -0.54937017 -0.4927994
vn -0.6747898 -0.54937017 -0.4927994
vn -0.6747898 -0.54937017 -0.49279934
vn -0.6747898 -0.5493701 -0.49279934
vn -0.68658787 -0.534467 -0.49289143
vn -0.68658787 -0.53446704 -0.49289143
vn -0.7020867 -0.51408935 -0.4927336
vn -0.7020867 -0.51408935 -0.4927336
vn -0.7231075 -0.47751567 -0.49909356
vn -0.7231075 -0.47751567 -0.49909356
vn -0.7231074 -0.47751567 -0.49909356
vn -0.7231074 -0.47751564 -0.49909353
vn -0.73328847 -0.46162993 -0.4991852
vn -0.73328847 -0.46163 -0.4991852
vn -0.7466102 -0.4399374 -0.49902728
vn -0.74661016 -0.43993744 -0.49902734
vn -0.7637995 -0.4015221 -0.5053616
vn -0.7637995 -0.4015221 -0.5053617
vn -0.7637995 -0.40152213 -0.5053617
vn -0.7637995 -0.4015221 -0.5053616
vn -0.77228516 -0.38482866 -0.5054527
vn -0.77228516 -0.38482866 -0.5054527
vn -0.78332204 -0.362055 -0.50529474
vn -0.7833221 -0.36205497 -0.5052947
vn -0.7965253 -0.32219642 -0.5116023
vn -0.7965253 -0.32219642 -0.5116022
vn -0.79652524 -0.3221964 -0.5116023
vn -0.79652524 -0.3221964 -0.51160234
vn -0.8032575 -0.30487263 -0.51169336
vn -0.80325747 -0.30487263 -0.5116933
vn -0.8119279 -0.28125608 -0.511535
vn -0.81192786 -0.28125608 -0.511535
vn -0.82102776 -0.24037413 -0.5178163
vn -0.82102776 -0.24037415 -0.5178163
vn -0.8210277 -0.24037413 -0.51781636
vn -0.82102776 -0.24037415 -0.51781625
vn -0.82596827 -0.22259495 -0.51790726
vn -0.82596827 -0.22259495 -0.51790726
vn -0.832217 -0.19837159 -0.51774865
vn -0.832217 -0.19837159 -0.51774865
vn -0.83713937 -0.15690026 -0.5240038
vn -0.83713937 -0.15690027 -0.5240038
vn -0.83713937 -0.15690027 -0.5240038
vn -0.83713937 -0.15690027 -0.5240038
vn -0.840265 -0.13885227 -0.52409434
vn -0.840265 -0.13885227 -0.52409434
vn -0.8440573 -0.11427365 -0.52393585
vn -0.8440573 -0.11427366 -0.5239359
vn -0.84411585 -0.07614237 -0.5307267
vn -0.84411585 -0.07614237 -0.5307267
vn -0.84411585 -0.07614237 -0.5307267
vn -0.84411585 -0.07614236 -0.5307267
vn -0.8457097 -0.05447212 -0.5308557
vn -0.8457097 -0.054472122 -0.5308558
vn -0.8472366 -0.024954218 -0.5306292
vn -0.8472367 -0.024954217 -0.5306292
vn -0.8428761 0.007999811 -0.53804827
vn -0.8428761 0.007999811 -0.53804827
vn -0.8428761 0.007999811 -0.53804827
vn -0.8428761 0.007999811 -0.53804827
vn -0.8423125 0.029577445 -0.5381774
vn -0.8423125 0.029577445 -0.5381773
vn -0.8409117 0.05897427 -0.53794944
vn -0.8409117 0.05897427 -0.5379493
vn -0.83325434 0.09111811 -0.54532987
vn -0.83325434 0.09111811 -0.5453299
vn -0.83325434 0.09111811 -0.54532987
vn -0.83325434 0.09111812 -0.5453299
vn -0.8305691 0.11238289 -0.5454586
vn -0.8305691 0.112382874 -0.5454586
vn -0.82628214 0.14135897 -0.5452297
vn -0.8262822 0.14135899 -0.5452296
vn -0.8154471 0.17237492 -0.55256945
vn -0.8154471 0.17237492 -0.55256945
vn -0.8154471 0.1723749 -0.55256945
vn -0.81544703 0.17237492 -0.5525695
vn -0.81069684 0.19312021 -0.55269796
vn -0.81069684 0.19312021 -0.55269796
vn -0.8035947 0.22139223 -0.5524681
vn -0.8035947 0.22139223 -0.5524681
vn -0.78973454 0.2509557 -0.5597682
vn -0.78973466 0.25095573 -0.55976814
vn -0.78973466 0.25095573 -0.5597682
vn -0.78973466 0.25095573 -0.5597682
vn -0.7829921 0.27099615 -0.5598968
vn -0.7829921 0.27099615 -0.5598968
vn -0.77316725 0.2983058 -0.559666
vn -0.77316725 0.2983058 -0.559666
vn -0.7564698 0.32611063 -0.5669262
vn -0.7564698 0.32611063 -0.5669261
vn -0.7564698 0.3261106 -0.5669261
vn -0.7564698 0.32611063 -0.5669261
vn -0.7478313 0.34525004 -0.56705457
vn -0.7478312 0.34525007 -0.56705457
vn -0.7354105 0.3713264 -0.56682277
vn -0.7354105 0.3713264 -0.5668228
vn -0.71608394 0.39711592 -0.5740408
vn -0.71608394 0.39711592 -0.5740408
vn -0.71608394 0.39711592 -0.5740408
vn -0.71608394 0.39711592 -0.5740408
vn -0.70566255 0.41517526 -0.57416886
vn -0.70566255 0.41517526 -0.57416886
vn -0.6907963 0.43976983 -0.5739363
vn -0.6907963 0.4397698 -0.5739364
vn -0.66908216 0.46329033 -0.581112
vn -0.66908216 0.46329027 -0.5811121
vn -0.66908216 0.4632903 -0.581112
vn -0.6690821 0.4632903 -0.5811121
vn -0.65700006 0.48011547 -0.5812401
vn -0.65700006 0.4801154 -0.58124006
vn -0.63985157 0.503012 -0.58100677
vn -0.63985157 0.503012 -0.5810067
vn -0.6160193 0.52403307 -0.5881407
vn -0.6160193 0.524033 -0.5881408
vn -0.6160193 0.524033 -0.58814067
vn -0.6160193 0.52403307 -0.5881407
vn -0.6024215 0.53947055 -0.5882684
vn -0.6024216 0.53947055 -0.58826846
vn -0.58318776 0.5604529 -0.5880346
vn -0.58318776 0.5604529 -0.5880346
vn -0.55751604 0.5787932 -0.5951254
vn -0.55751604 0.5787932 -0.5951254
vn -0.55751604 0.5787932 -0.5951254
vn -0.55751604 0.5787932 -0.5951254
vn -0.5425538 0.59271365 -0.5952529
vn -0.54255384 0.59271365 -0.5952529
vn -0.52143794 0.611601 -0.59501815
vn -0.5214379 0.61160094 -0.5950182
vn -0.49423 0.62710005 -0.60206497
vn -0.49423 0.62710005 -0.602065
vn -0.49422997 0.62710005 -0.60206497
vn -0.49422997 0.62710005 -0.60206497
vn -0.47807613 0.639381 -0.602192
vn -0.47807613 0.639381 -0.602192
vn -0.4553173 0.6559983 -0.60195714
vn -0.4553173 0.6559983 -0.60195714
vn -0.42688408 0.6685348 -0.6089591
vn -0.42688406 0.6685348 -0.6089591
vn -0.42688408 0.66853476 -0.6089591
vn -0.42688406 0.66853476 -0.6089591
vn -0.40970302 0.6790862 -0.60908574
vn -0.409703 0.6790862 -0.6090857
vn -0.38552547 0.6933047 -0.60885024
vn -0.38552547 0.6933047 -0.60885024
vn -0.35620207 0.7027801 -0.6158085
vn -0.35620207 0.7027801 -0.61580855
vn -0.3562021 0.7027801 -0.6158085
vn -0.35620207 0.7027801 -0.6158085
vn -0.33818033 0.7115183 -0.6159349
vn -0.33818033 0.7115182 -0.61593485
vn -0.312841 0.7232186 -0.61569893
vn -0.312841 0.7232186 -0.61569893
vn -0.28295165 0.7295841 -0.62261164
vn -0.28295162 0.7295841 -0.62261164
vn -0.28295168 0.7295841 -0.62261164
vn -0.28295168 0.7295842 -0.6226117
vn -0.26427957 0.7364468 -0.62273777
vn -0.2642796 0.7364468 -0.6227378
vn -0.23804319 0.74553806 -0.6225017
vn -0.23804316 0.74553806 -0.62250173
vn -0.20791999 0.74877506 -0.62936884
vn -0.20791999 0.74877506 -0.62936884
vn -0.20791999 0.74877506 -0.62936884
vn -0.20791999 0.74877506 -0.62936884
vn -0.1887807 0.75372297 -0.62949467
vn -0.18878067 0.75372297 -0.62949467
vn -0.16190165 0.7601461 -0.62925816
vn -0.16190165 0.7601461 -0.62925816
vn -0.13187397 0.7602718 -0.6360786
vn -0.13187395 0.7602718 -0.63607866
vn -0.13187397 0.7602718 -0.6360786
vn -0.13187397 0.7602718 -0.63607854
vn -0.112475015 0.7632784 -0.6362038
vn -0.11247502 0.7632784 -0.6362038
vn -0.08524231 0.76699364 -0.6359674
vn -0.0852423 0.76699364 -0.6359673
vn -0.058793645 0.76340383 -0.6432402
vn -0.05879364 0.76340383 -0.6432401
vn -0.058793645 0.76340383 -0.6432402
vn -0.058793645 0.76340383 -0.6432402
vn -0.036129307 0.7646689 -0.6434098
vn -0.036129303 0.7646688 -0.64340985
vn -0.004308229 0.7657796 -0.64308864
vn -0.0043082293 0.7657796 -0.64308864
vn 0.016813163 0.758955 -0.65092605
vn 0.016813163 0.758955 -0.65092605
vn 0.01681316 0.758955 -0.650926
vn 0.016813163 0.758955 -0.65092605
vn 0.039343692 0.7579756 -0.65109533
vn 0.039343692 0.7579756 -0.65109533
vn 0.07098045 0.7559472 -0.6507732
vn 0.070980445 0.7559472 -0.6507732
vn 0.09093041 0.7470271 -0.6585455
vn 0.090930425 0.7470271 -0.6585455
vn 0.090930425 0.7470271 -0.6585455
vn 0.090930425 0.7470271 -0.6585455
vn 0.11311945 0.7438408 -0.65871453
vn 0.11311945 0.7438408 -0.65871465
vn 0.14428025 0.7387181 -0.65839094
vn 0.14428028 0.7387181 -0.65839094
vn 0.16284056 0.7278708 -0.66609836
vn 0.16284056 0.7278708 -0.66609836
vn 0.16284056 0.7278708 -0.6660983
vn 0.16284056 0.7278708 -0.66609836
vn 0.18446408 0.7225381 -0.66626704
vn 0.18446408 0.7225381 -0.66626704
vn 0.214831 0.7144006 -0.66594255
vn 0.21483098 0.7144006 -0.66594255
vn 0.23181857 0.701816 -0.67358327
vn 0.23181857 0.701816 -0.67358327
vn 0.23181857 0.701816 -0.67358327
vn 0.23181857 0.70181596 -0.6735833
vn 0.25268418 0.69441307 -0.6737516
vn 0.25268415 0.69441295 -0.67375165
vn 0.28198403 0.68336123 -0.6734259
vn 0.28198403 0.68336123 -0.6734259
vn 0.29722592 0.66924995 -0.6810001
vn 0.29722595 0.6692499 -0.6810002
vn 0.29722592 0.66924995 -0.6810001
vn 0.2972259 0.66924995 -0.68100005
vn 0.31712863 0.6598782 -0.68116826
vn 0.31712863 0.6598782 -0.6811683
vn 0.3450698 0.64605075 -0.6808417
vn 0.34506977 0.6460507 -0.6808417
vn 0.35843506 0.63063544 -0.68834823
vn 0.35843503 0.63063544 -0.6883482
vn 0.35843503 0.63063544 -0.6883482
vn 0.35843506 0.63063544 -0.68834823
vn 0.37720305 0.6194056 -0.6885162
vn 0.37720305 0.6194056 -0.6885162
vn 0.4035387 0.6029537 -0.68818855
vn 0.4035387 0.6029537 -0.68818855
vn 0.41490892 0.586475 -0.69562757
vn 0.41490892 0.586475 -0.69562757
vn 0.41490892 0.586475 -0.69562757
vn 0.4149089 0.5864751 -0.69562745
vn 0.43236446 0.57352465 -0.6957949
vn 0.43236446 0.57352465 -0.6957949
vn 0.45683825 0.5546394 -0.69546676
vn 0.45683822 0.5546394 -0.6954667
vn 0.466146 0.5373364 -0.7028353
vn 0.466146 0.5373365 -0.70283526
vn 0.466146 0.53733647 -0.7028353
vn 0.466146 0.5373364 -0.70283526
vn 0.48213598 0.52281255 -0.7030021
vn 0.48213595 0.5228125 -0.7030021
vn 0.50452816 0.5016986 -0.7026734
vn 0.50452816 0.5016987 -0.7026734
vn 0.51171523 0.48382673 -0.7099713
vn 0.51171523 0.48382667 -0.70997125
vn 0.51171523 0.48382673 -0.70997125
vn 0.5117153 0.48382673 -0.7099712
vn 0.52610224 0.46788943 -0.71013784
vn 0.52610224 0.4678895 -0.7101379
vn 0.54621375 0.44477236 -0.70980847
vn 0.5462137 0.44477233 -0.7098085
vn 0.5512583 0.42658472 -0.7170355
vn 0.5512583 0.42658472 -0.7170355
vn 0.5512583 0.42658466 -0.7170355
vn 0.5512583 0.42658472 -0.7170355
vn 0.5639228 0.4094052 -0.71720177
vn 0.5639228 0.40940514 -0.71720177
vn 0.5815792 0.38452625 -0.7168718
vn 0.58157915 0.38452625 -0.7168718
vn 0.5844898 0.36627468 -0.72402656
vn 0.5844898 0.36627468 -0.72402656
vn 0.5844898 0.3662747 -0.7240266
vn 0.5844898 0.36627465 -0.72402656
vn 0.59532684 0.34803915 -0.7241924
vn 0.59532684 0.34803918 -0.7241924
vn 0.61037433 0.32166216 -0.7238623
vn 0.61037433 0.3216622 -0.72386223
vn 0.6111881 0.30359375 -0.73094445
vn 0.6111881 0.30359378 -0.7309446
vn 0.6111881 0.30359375 -0.7309445
vn 0.6111881 0.30359375 -0.7309446
vn 0.6201176 0.28448674 -0.73110986
vn 0.6201176 0.2844867 -0.73110986
vn 0.63243806 0.2568731 -0.7307793
vn 0.6324381 0.25687313 -0.73077923
vn 0.6312166 0.23923494 -0.73778874
vn 0.63121665 0.23923494 -0.7377887
vn 0.63121665 0.23923494 -0.73778874
vn 0.63121665 0.23923491 -0.73778874
vn 0.63817173 0.21945718 -0.7379535
vn 0.6381717 0.21945718 -0.73795354
vn 0.64766675 0.19089347 -0.73762286
vn 0.64766675 0.19089347 -0.73762286
vn 0.64450717 0.17390706 -0.7445582
vn 0.64450717 0.17390706 -0.7445581
vn 0.64450717 0.17390709 -0.7445582
vn 0.64450717 0.1739071 -0.7445582
vn 0.6494442 0.15365759 -0.7447224
vn 0.6494442 0.15365759 -0.7447224
vn 0.6560474 0.124429554 -0.7443917
vn 0.6560475 0.124429576 -0.7443917
vn 0.65106887 0.10830636 -0.75125164
vn 0.6510689 0.10830636 -0.75125164
vn 0.6510689 0.10830636 -0.75125164
vn 0.6510689 0.10830636 -0.75125164
vn 0.653963 0.08779166 -0.7514153
vn 0.653963 0.08779166 -0.7514153
vn 0.6576362 0.05819557 -0.7510845
vn 0.65763617 0.05819557 -0.7510845
vn 0.65029967 0.04600809 -0.7582833
vn 0.6502997 0.04600809 -0.75828326
vn 0.65029967 0.046008095 -0.7582833
vn 0.6502997 0.04600809 -0.75828326
vn 0.6512885 0.022531042 -0.7584957
vn 0.6512885 0.02253104 -0.7584956
vn 0.65208054 -0.011336063 -0.75806487
vn 0.65208054 -0.011336063 -0.75806487
vn 0.64291 -0.017968936 -0.7657309
vn 0.64291 -0.017968938 -0.765731
vn 0.64291 -0.017968936 -0.765731
vn 0.64291 -0.017968936 -0.765731
vn 0.6415811 -0.04129433 -0.7659429
vn 0.64158106 -0.041294325 -0.7659429
vn 0.63904345 -0.07493986 -0.7655113
vn 0.63904345 -0.07493986 -0.7655113
vn 0.62924474 -0.080015555 -0.77307725
vn 0.62924474 -0.08001556 -0.7730773
vn 0.6292447 -0.080015555 -0.7730773
vn 0.62924474 -0.080015555 -0.77307725
vn 0.6256372 -0.102967925 -0.77328897
vn 0.62563705 -0.10296792 -0.77328897
vn 0.61982036 -0.13607319 -0.77285624
vn 0.6198204 -0.1360732 -0.77285624
vn 0.609615 -0.13952343 -0.7803222
vn 0.609615 -0.13952343 -0.7803222
vn 0.609615 -0.13952343 -0.7803222
vn 0.6096151 -0.13952343 -0.7803222
vn 0.60378903 -0.16188413 -0.78053343
vn 0.60378903 -0.16188413 -0.78053343
vn 0.59477556 -0.19412939 -0.7800999
vn 0.59477556 -0.19412936 -0.7800999
vn 0.58439094 -0.19592871 -0.7874637
vn 0.58439094 -0.19592874 -0.7874637
vn 0.58439094 -0.19592874 -0.7874637
vn 0.58439094 -0.19592874 -0.7874637
vn 0.57642996 -0.21748045 -0.7876743
vn 0.57642996 -0.21748044 -0.78767425
vn 0.5643359 -0.24855141 -0.78724027
vn 0.5643359 -0.24855141 -0.78724027
vn 0.5540009 -0.24869879 -0.7945011
vn 0.5540009 -0.24869877 -0.794501
vn 0.5540009 -0.24869877 -0.794501
vn 0.5540009 -0.2486988 -0.794501
vn 0.5440034 -0.2692479 -0.7947112
vn 0.54400337 -0.26924786 -0.7947112
vn 0.5289674 -0.2988619 -0.7942764
vn 0.5289674 -0.2988619 -0.7942764
vn 0.5189125 -0.29737887 -0.80143344
vn 0.5189125 -0.29737887 -0.80143344
vn 0.5189125 -0.29737887 -0.80143344
vn 0.5189125 -0.29737887 -0.80143344
vn 0.507002 -0.31672934 -0.8016429
vn 0.507002 -0.31672934 -0.8016429
vn 0.48920023 -0.34459916 -0.8012082
vn 0.4892003 -0.34459913 -0.8012082
vn 0.4796447 -0.34155157 -0.80825955
vn 0.47964463 -0.34155157 -0.80825955
vn 0.47964463 -0.3415516 -0.8082596
vn 0.47964463 -0.34155163 -0.80825955
vn 0.46595487 -0.35953403 -0.8084685
vn 0.46595487 -0.35953403 -0.8084685
vn 0.44557962 -0.38540995 -0.8080334
vn 0.4455796 -0.38540995 -0.8080334
vn 0.4367438 -0.38087234 -0.8149792
vn 0.4367438 -0.38087234 -0.8149792
vn 0.43674377 -0.38087237 -0.81497914
vn 0.4367438 -0.3808723 -0.8149792
vn 0.42142805 -0.39732566 -0.8151875
vn 0.42142805 -0.39732566 -0.8151875
vn 0.3986995 -0.4209719 -0.8147523
vn 0.3986995 -0.42097187 -0.81475234
vn 0.39078224 -0.41506296 -0.82159114
vn 0.39078224 -0.41506302 -0.82159114
vn 0.3907823 -0.41506302 -0.82159114
vn 0.39078224 -0.41506302 -0.82159114
vn 0.37400872 -0.4298423 -0.8217987
vn 0.37400874 -0.4298423 -0.8217987
vn 0.34916997 -0.4510456 -0.8213636
vn 0.34917003 -0.45104563 -0.82136357
vn 0.34235954 -0.443903 -0.82809424
vn 0.3423595 -0.44390294 -0.82809424
vn 0.3423595 -0.44390294 -0.82809424
vn 0.34235954 -0.44390294 -0.82809424
vn 0.32430586 -0.45688388 -0.82830113
vn 0.32430586 -0.4568839 -0.8283012
vn 0.29761553 -0.47546026 -0.8278663
vn 0.29761553 -0.47546026 -0.82786626
vn 0.2920822 -0.46724463 -0.83448815
vn 0.2920822 -0.46724463 -0.83448815
vn 0.29208216 -0.46724463 -0.83448815
vn 0.2920822 -0.46724463 -0.83448815
vn 0.2729356 -0.4783213 -0.8346945
vn 0.2729356 -0.4783213 -0.8346945
vn 0.24466582 -0.49411467 -0.8342597
vn 0.24466582 -0.49411467 -0.8342597
vn 0.2405546 -0.48501185 -0.8407716
vn 0.2405546 -0.48501188 -0.8407716
vn 0.24055463 -0.48501185 -0.8407716
vn 0.24055463 -0.48501188 -0.8407716
vn 0.22051919 -0.4940939 -0.84097713
vn 0.22051919 -0.4940939 -0.84097713
vn 0.1909683 -0.5069699 -0.8405431
vn 0.19096828 -0.5069699 -0.840543
vn 0.18839951 -0.49718443 -0.84694344
vn 0.18839952 -0.4971845 -0.84694344
vn 0.18839951 -0.49718443 -0.84694344
vn 0.1883995 -0.49718443 -0.84694344
vn 0.16767319 -0.504208 -0.8471482
vn 0.16767319 -0.504208 -0.8471482
vn 0.13713036 -0.5140717 -0.84671456
vn 0.13713035 -0.51407164 -0.84671456
vn 0.13620555 -0.5038181 -0.8530037
vn 0.13620555 -0.50381815 -0.8530037
vn 0.13620557 -0.5038181 -0.8530038
vn 0.13620555 -0.50381815 -0.8530037
vn 0.11499767 -0.5087358 -0.85320765
vn 0.11499767 -0.50873584 -0.85320765
vn 0.083769165 -0.5155173 -0.85277456
vn 0.08376916 -0.5155173 -0.85277456
vn 0.08455538 -0.5050282 -0.8589511
vn 0.084555395 -0.50502825 -0.8589511
vn 0.08455539 -0.5050282 -0.8589511
vn 0.08455538 -0.5050282 -0.8589511
vn 0.063081555 -0.50781363 -0.85915416
vn 0.063081555 -0.50781363 -0.85915416
vn 0.03148437 -0.51147354 -0.8587221
vn 0.031484365 -0.51147354 -0.8587221
vn 0.03665402 -0.50027853 -0.8650884
vn 0.036654025 -0.50027853 -0.8650884
vn 0.036654025 -0.5002786 -0.8650884
vn 0.03665402 -0.50027853 -0.8650884
vn 0.012464642 -0.50102353 -0.86534387
vn 0.012464643 -0.50102353 -0.865344
vn -0.023111228 -0.5015857 -0.86479926
vn -0.023111228 -0.50158566 -0.86479926
vn -0.012116951 -0.4902501 -0.8714976
vn -0.01211695 -0.4902501 -0.8714976
vn -0.01211695 -0.4902501 -0.8714976
vn -0.012116951 -0.4902501 -0.8714976
vn -0.0361421 -0.48861197 -0.87175226
vn -0.0361421 -0.48861203 -0.87175226
vn -0.07146081 -0.48568553 -0.8712077
vn -0.07146081 -0.48568553 -0.8712077
vn -0.05854956 -0.4755077 -0.87776095
vn -0.058549576 -0.47550777 -0.87776095
vn -0.05854956 -0.47550765 -0.87776095
vn -0.058549568 -0.4755077 -0.87776095
vn -0.0821717 -0.4715272 -0.8780148
vn -0.08217169 -0.47152713 -0.8780148
vn -0.11688371 -0.46517017 -0.87747073
vn -0.116883695 -0.46517015 -0.87747073
vn -0.10217694 -0.45642108 -0.88387764
vn -0.10217693 -0.45642108 -0.88387764
vn -0.10217694 -0.45642108 -0.88387764
vn -0.10217694 -0.45642108 -0.88387764
vn -0.12517984 -0.45015863 -0.8841308
vn -0.12517984 -0.45015863 -0.8841308
vn -0.15896532 -0.44045874 -0.883587
vn -0.15896532 -0.44045874 -0.883587
vn -0.14261495 -0.43339697 -0.88984716
vn -0.14261495 -0.43339697 -0.88984716
vn -0.14261496 -0.43339697 -0.88984716
vn -0.14261495 -0.433397 -0.88984716
vn -0.16477443 -0.4249383 -0.89009935
vn -0.16477442 -0.42493823 -0.89009935
vn -0.1973019 -0.41202062 -0.88955665
vn -0.19730191 -0.41202062 -0.88955665
vn -0.17951022 -0.406885 -0.89566773
vn -0.17951022 -0.40688497 -0.89566773
vn -0.17951022 -0.40688497 -0.89566773
vn -0.17951022 -0.40688497 -0.89566773
vn -0.20062141 -0.39633378 -0.8959189
vn -0.20062143 -0.39633378 -0.89591885
vn -0.23158817 -0.38035083 -0.8953771
vn -0.23158817 -0.38035083 -0.8953771
vn -0.21257494 -0.3773603 -0.9013385
vn -0.21257496 -0.3773603 -0.9013385
vn -0.21257496 -0.3773603 -0.9013385
vn -0.21257496 -0.3773603 -0.9013385
vn -0.23244348 -0.3648397 -0.90158856
vn -0.2324435 -0.36483973 -0.9015887
vn -0.26156357 -0.3459725 -0.901048
vn -0.2615636 -0.3459725 -0.901048
vn -0.24158025 -0.34532073 -0.9068586
vn -0.24158023 -0.34532076 -0.9068586
vn -0.24158025 -0.3453208 -0.9068586
vn -0.24158025 -0.3453208 -0.9068586
vn -0.26002544 -0.3309717 -0.9071078
vn -0.26002544 -0.3309717 -0.9071078
vn -0.287031 -0.30942976 -0.9065685
vn -0.287031 -0.30942973 -0.9065685
vn -0.26636082 -0.31127766 -0.91222703
vn -0.26636082 -0.31127766 -0.91222703
vn -0.26636085 -0.3112777 -0.91222703
vn -0.26636082 -0.31127766 -0.91222703
vn -0.28321597 -0.29525924 -0.9124751
vn -0.28321597 -0.29525924 -0.9124751
vn -0.30786157 -0.2712775 -0.91193736
vn -0.30786154 -0.27127746 -0.91193736
vn -0.28680426 -0.27575684 -0.9174429
vn -0.28680426 -0.27575687 -0.9174429
vn -0.28680423 -0.2757568 -0.9174429
vn -0.28680426 -0.27575684 -0.9174429
vn -0.3019251 -0.2582372 -0.9176899
vn -0.30192512 -0.2582372 -0.9176899
vn -0.323998 -0.23206525 -0.9171537
vn -0.323998 -0.23206525 -0.9171537
vn -0.3028734 -0.23927131 -0.9225058
vn -0.3028734 -0.23927131 -0.9225058
vn -0.3028734 -0.23927131 -0.9225058
vn -0.3028734 -0.23927131 -0.9225058
vn -0.31612706 -0.22043853 -0.92275167
vn -0.3161271 -0.22043854 -0.92275167
vn -0.3354317 -0.1923557 -0.92221737
vn -0.33543167 -0.19235568 -0.92221737
vn -0.31457874 -0.20234327 -0.9274144
vn -0.31457874 -0.20234326 -0.9274143
vn -0.31457874 -0.20234326 -0.9274143
vn -0.31457874 -0.20234326 -0.9274143
vn -0.32585615 -0.18239057 -0.9276591
vn -0.3258562 -0.18239057 -0.9276591
vn -0.34223327 -0.15268351 -0.92712677
vn -0.3422333 -0.15268353 -0.92712677
vn -0.32199854 -0.1654682 -0.932168
vn -0.32199854 -0.1654682 -0.932168
vn -0.32199854 -0.1654682 -0.932168
vn -0.32199854 -0.1654682 -0.932168
vn -0.331208 -0.14460294 -0.9324115
vn -0.33120796 -0.14460294 -0.9324115
vn -0.34452334 -0.11358037 -0.9318815
vn -0.34452334 -0.11358036 -0.9318815
vn -0.32526132 -0.12913264 -0.9367657
vn -0.3252613 -0.12913264 -0.9367657
vn -0.3252613 -0.12913263 -0.9367657
vn -0.32526132 -0.12913264 -0.9367657
vn -0.33233422 -0.10756437 -0.9370079
vn -0.33233422 -0.10756437 -0.9370079
vn -0.34248927 -0.07553673 -0.93648034
vn -0.34248924 -0.07553673 -0.9364802
vn -0.32455128 -0.093789056 -0.9412067
vn -0.32455128 -0.09378906 -0.9412067
vn -0.32455128 -0.09378906 -0.94120675
vn -0.32455128 -0.09378907 -0.94120675
vn -0.32943928 -0.0717353 -0.94144773
vn -0.32943922 -0.0717353 -0.94144773
vn -0.336365 -0.039026607 -0.9409227
vn -0.33636507 -0.039026607 -0.9409227
vn -0.31990808 -0.06033311 -0.94552565
vn -0.31990814 -0.06033311 -0.94552565
vn -0.31990814 -0.06033311 -0.94552565
vn -0.3199081 -0.06033311 -0.94552565
vn -0.32272565 -0.03753602 -0.9457479
vn -0.32272565 -0.037536018 -0.9457479
vn -0.32646617 -0.0048326715 -0.94519657
vn -0.32646614 -0.0048326715 -0.94519657
g S_fx_lzy_xishou_01_0
f 3/3/3 2/2/2 1/1/1
f 2/2/2 4/4/4 1/1/1
f 2/2/2 5/5/5 4/4/4
f 5/5/5 6/6/6 4/4/4
f 5/5/5 7/7/7 6/6/6
f 7/7/7 8/8/8 6/6/6
f 11/11/11 10/10/10 9/9/9
f 10/10/10 12/12/12 9/9/9
f 10/10/10 13/13/13 12/12/12
f 13/13/13 14/14/14 12/12/12
f 13/13/13 15/15/15 14/14/14
f 15/15/15 16/16/16 14/14/14
f 19/19/19 18/18/18 17/17/17
f 18/18/18 20/20/20 17/17/17
f 18/18/18 21/21/21 20/20/20
f 21/21/21 22/22/22 20/20/20
f 21/21/21 23/23/23 22/22/22
f 23/23/23 24/24/24 22/22/22
f 27/27/27 26/26/26 25/25/25
f 26/26/26 28/28/28 25/25/25
f 26/26/26 29/29/29 28/28/28
f 29/29/29 30/30/30 28/28/28
f 29/29/29 31/31/31 30/30/30
f 31/31/31 32/32/32 30/30/30
f 35/35/35 34/34/34 33/33/33
f 34/34/34 36/36/36 33/33/33
f 34/34/34 37/37/37 36/36/36
f 37/37/37 38/38/38 36/36/36
f 37/37/37 39/39/39 38/38/38
f 39/39/39 40/40/40 38/38/38
f 43/43/43 42/42/42 41/41/41
f 42/42/42 44/44/44 41/41/41
f 42/42/42 45/45/45 44/44/44
f 45/45/45 46/46/46 44/44/44
f 45/45/45 47/47/47 46/46/46
f 47/47/47 48/48/48 46/46/46
f 51/51/51 50/50/50 49/49/49
f 50/50/50 52/52/52 49/49/49
f 50/50/50 53/53/53 52/52/52
f 53/53/53 54/54/54 52/52/52
f 53/53/53 55/55/55 54/54/54
f 55/55/55 56/56/56 54/54/54
f 59/59/59 58/58/58 57/57/57
f 58/58/58 60/60/60 57/57/57
f 58/58/58 61/61/61 60/60/60
f 61/61/61 62/62/62 60/60/60
f 61/61/61 63/63/63 62/62/62
f 63/63/63 64/64/64 62/62/62
f 67/67/67 66/66/66 65/65/65
f 66/66/66 68/68/68 65/65/65
f 66/66/66 69/69/69 68/68/68
f 69/69/69 70/70/70 68/68/68
f 69/69/69 71/71/71 70/70/70
f 71/71/71 72/72/72 70/70/70
f 75/75/75 74/74/74 73/73/73
f 74/74/74 76/76/76 73/73/73
f 74/74/74 77/77/77 76/76/76
f 77/77/77 78/78/78 76/76/76
f 77/77/77 79/79/79 78/78/78
f 79/79/79 80/80/80 78/78/78
f 83/83/83 82/82/82 81/81/81
f 82/82/82 84/84/84 81/81/81
f 82/82/82 85/85/85 84/84/84
f 85/85/85 86/86/86 84/84/84
f 85/85/85 87/87/87 86/86/86
f 87/87/87 88/88/88 86/86/86
f 91/91/91 90/90/90 89/89/89
f 90/90/90 92/92/92 89/89/89
f 90/90/90 93/93/93 92/92/92
f 93/93/93 94/94/94 92/92/92
f 93/93/93 95/95/95 94/94/94
f 95/95/95 96/96/96 94/94/94
f 99/99/99 98/98/98 97/97/97
f 98/98/98 100/100/100 97/97/97
f 98/98/98 101/101/101 100/100/100
f 101/101/101 102/102/102 100/100/100
f 101/101/101 103/103/103 102/102/102
f 103/103/103 104/104/104 102/102/102
f 107/107/107 106/106/106 105/105/105
f 106/106/106 108/108/108 105/105/105
f 106/106/106 109/109/109 108/108/108
f 109/109/109 110/110/110 108/108/108
f 109/109/109 111/111/111 110/110/110
f 111/111/111 112/112/112 110/110/110
f 115/115/115 114/114/114 113/113/113
f 114/114/114 116/116/116 113/113/113
f 114/114/114 117/117/117 116/116/116
f 117/117/117 118/118/118 116/116/116
f 117/117/117 119/119/119 118/118/118
f 119/119/119 120/120/120 118/118/118
f 123/123/123 122/122/122 121/121/121
f 122/122/122 124/124/124 121/121/121
f 122/122/122 125/125/125 124/124/124
f 125/125/125 126/126/126 124/124/124
f 125/125/125 127/127/127 126/126/126
f 127/127/127 128/128/128 126/126/126
f 131/131/131 130/130/130 129/129/129
f 130/130/130 132/132/132 129/129/129
f 130/130/130 133/133/133 132/132/132
f 133/133/133 134/134/134 132/132/132
f 133/133/133 135/135/135 134/134/134
f 135/135/135 136/136/136 134/134/134
f 139/139/139 138/138/138 137/137/137
f 138/138/138 140/140/140 137/137/137
f 138/138/138 141/141/141 140/140/140
f 141/141/141 142/142/142 140/140/140
f 141/141/141 143/143/143 142/142/142
f 143/143/143 144/144/144 142/142/142
f 147/147/147 146/146/146 145/145/145
f 146/146/146 148/148/148 145/145/145
f 146/146/146 149/149/149 148/148/148
f 149/149/149 150/150/150 148/148/148
f 149/149/149 151/151/151 150/150/150
f 151/151/151 152/152/152 150/150/150
f 155/155/155 154/154/154 153/153/153
f 154/154/154 156/156/156 153/153/153
f 154/154/154 157/157/157 156/156/156
f 157/157/157 158/158/158 156/156/156
f 157/157/157 159/159/159 158/158/158
f 159/159/159 160/160/160 158/158/158
f 163/163/163 162/162/162 161/161/161
f 162/162/162 164/164/164 161/161/161
f 162/162/162 165/165/165 164/164/164
f 165/165/165 166/166/166 164/164/164
f 165/165/165 167/167/167 166/166/166
f 167/167/167 168/168/168 166/166/166
f 171/171/171 170/170/170 169/169/169
f 170/170/170 172/172/172 169/169/169
f 170/170/170 173/173/173 172/172/172
f 173/173/173 174/174/174 172/172/172
f 173/173/173 175/175/175 174/174/174
f 175/175/175 176/176/176 174/174/174
f 179/179/179 178/178/178 177/177/177
f 178/178/178 180/180/180 177/177/177
f 178/178/178 181/181/181 180/180/180
f 181/181/181 182/182/182 180/180/180
f 181/181/181 183/183/183 182/182/182
f 183/183/183 184/184/184 182/182/182
f 187/187/187 186/186/186 185/185/185
f 186/186/186 188/188/188 185/185/185
f 186/186/186 189/189/189 188/188/188
f 189/189/189 190/190/190 188/188/188
f 189/189/189 191/191/191 190/190/190
f 191/191/191 192/192/192 190/190/190
f 195/195/195 194/194/194 193/193/193
f 194/194/194 196/196/196 193/193/193
f 194/194/194 197/197/197 196/196/196
f 197/197/197 198/198/198 196/196/196
f 197/197/197 199/199/199 198/198/198
f 199/199/199 200/200/200 198/198/198
f 203/203/203 202/202/202 201/201/201
f 202/202/202 204/204/204 201/201/201
f 202/202/202 205/205/205 204/204/204
f 205/205/205 206/206/206 204/204/204
f 205/205/205 207/207/207 206/206/206
f 207/207/207 208/208/208 206/206/206
f 211/211/211 210/210/210 209/209/209
f 210/210/210 212/212/212 209/209/209
f 210/210/210 213/213/213 212/212/212
f 213/213/213 214/214/214 212/212/212
f 213/213/213 215/215/215 214/214/214
f 215/215/215 216/216/216 214/214/214
f 219/219/219 218/218/218 217/217/217
f 218/218/218 220/220/220 217/217/217
f 218/218/218 221/221/221 220/220/220
f 221/221/221 222/222/222 220/220/220
f 221/221/221 223/223/223 222/222/222
f 223/223/223 224/224/224 222/222/222
f 227/227/227 226/226/226 225/225/225
f 226/226/226 228/228/228 225/225/225
f 226/226/226 229/229/229 228/228/228
f 229/229/229 230/230/230 228/228/228
f 229/229/229 231/231/231 230/230/230
f 231/231/231 232/232/232 230/230/230
f 235/235/235 234/234/234 233/233/233
f 234/234/234 236/236/236 233/233/233
f 234/234/234 237/237/237 236/236/236
f 237/237/237 238/238/238 236/236/236
f 237/237/237 239/239/239 238/238/238
f 239/239/239 240/240/240 238/238/238
f 243/243/243 242/242/242 241/241/241
f 242/242/242 244/244/244 241/241/241
f 242/242/242 245/245/245 244/244/244
f 245/245/245 246/246/246 244/244/244
f 245/245/245 247/247/247 246/246/246
f 247/247/247 248/248/248 246/246/246
f 251/251/251 250/250/250 249/249/249
f 250/250/250 252/252/252 249/249/249
f 250/250/250 253/253/253 252/252/252
f 253/253/253 254/254/254 252/252/252
f 253/253/253 255/255/255 254/254/254
f 255/255/255 256/256/256 254/254/254
f 259/259/259 258/258/258 257/257/257
f 258/258/258 260/260/260 257/257/257
f 258/258/258 261/261/261 260/260/260
f 261/261/261 262/262/262 260/260/260
f 261/261/261 263/263/263 262/262/262
f 263/263/263 264/264/264 262/262/262
f 267/267/267 266/266/266 265/265/265
f 266/266/266 268/268/268 265/265/265
f 266/266/266 269/269/269 268/268/268
f 269/269/269 270/270/270 268/268/268
f 269/269/269 271/271/271 270/270/270
f 271/271/271 272/272/272 270/270/270
f 275/275/275 274/274/274 273/273/273
f 274/274/274 276/276/276 273/273/273
f 274/274/274 277/277/277 276/276/276
f 277/277/277 278/278/278 276/276/276
f 277/277/277 279/279/279 278/278/278
f 279/279/279 280/280/280 278/278/278
f 283/283/283 282/282/282 281/281/281
f 282/282/282 284/284/284 281/281/281
f 282/282/282 285/285/285 284/284/284
f 285/285/285 286/286/286 284/284/284
f 285/285/285 287/287/287 286/286/286
f 287/287/287 288/288/288 286/286/286
f 291/291/291 290/290/290 289/289/289
f 290/290/290 292/292/292 289/289/289
f 290/290/290 293/293/293 292/292/292
f 293/293/293 294/294/294 292/292/292
f 293/293/293 295/295/295 294/294/294
f 295/295/295 296/296/296 294/294/294
f 299/299/299 298/298/298 297/297/297
f 298/298/298 300/300/300 297/297/297
f 298/298/298 301/301/301 300/300/300
f 301/301/301 302/302/302 300/300/300
f 301/301/301 303/303/303 302/302/302
f 303/303/303 304/304/304 302/302/302
f 307/307/307 306/306/306 305/305/305
f 306/306/306 308/308/308 305/305/305
f 306/306/306 309/309/309 308/308/308
f 309/309/309 310/310/310 308/308/308
f 309/309/309 311/311/311 310/310/310
f 311/311/311 312/312/312 310/310/310
f 315/315/315 314/314/314 313/313/313
f 314/314/314 316/316/316 313/313/313
f 314/314/314 317/317/317 316/316/316
f 317/317/317 318/318/318 316/316/316
f 317/317/317 319/319/319 318/318/318
f 319/319/319 320/320/320 318/318/318
f 323/323/323 322/322/322 321/321/321
f 322/322/322 324/324/324 321/321/321
f 322/322/322 325/325/325 324/324/324
f 325/325/325 326/326/326 324/324/324
f 325/325/325 327/327/327 326/326/326
f 327/327/327 328/328/328 326/326/326
f 331/331/331 330/330/330 329/329/329
f 330/330/330 332/332/332 329/329/329
f 330/330/330 333/333/333 332/332/332
f 333/333/333 334/334/334 332/332/332
f 333/333/333 335/335/335 334/334/334
f 335/335/335 336/336/336 334/334/334
f 339/339/339 338/338/338 337/337/337
f 338/338/338 340/340/340 337/337/337
f 338/338/338 341/341/341 340/340/340
f 341/341/341 342/342/342 340/340/340
f 341/341/341 343/343/343 342/342/342
f 343/343/343 344/344/344 342/342/342
f 347/347/347 346/346/346 345/345/345
f 346/346/346 348/348/348 345/345/345
f 346/346/346 349/349/349 348/348/348
f 349/349/349 350/350/350 348/348/348
f 349/349/349 351/351/351 350/350/350
f 351/351/351 352/352/352 350/350/350
f 355/355/355 354/354/354 353/353/353
f 354/354/354 356/356/356 353/353/353
f 354/354/354 357/357/357 356/356/356
f 357/357/357 358/358/358 356/356/356
f 357/357/357 359/359/359 358/358/358
f 359/359/359 360/360/360 358/358/358
f 363/363/363 362/362/362 361/361/361
f 362/362/362 364/364/364 361/361/361
f 362/362/362 365/365/365 364/364/364
f 365/365/365 366/366/366 364/364/364
f 365/365/365 367/367/367 366/366/366
f 367/367/367 368/368/368 366/366/366
f 371/371/371 370/370/370 369/369/369
f 370/370/370 372/372/372 369/369/369
f 370/370/370 373/373/373 372/372/372
f 373/373/373 374/374/374 372/372/372
f 373/373/373 375/375/375 374/374/374
f 375/375/375 376/376/376 374/374/374
f 379/379/379 378/378/378 377/377/377
f 378/378/378 380/380/380 377/377/377
f 378/378/378 381/381/381 380/380/380
f 381/381/381 382/382/382 380/380/380
f 381/381/381 383/383/383 382/382/382
f 383/383/383 384/384/384 382/382/382
f 387/387/387 386/386/386 385/385/385
f 386/386/386 388/388/388 385/385/385
f 386/386/386 389/389/389 388/388/388
f 389/389/389 390/390/390 388/388/388
f 389/389/389 391/391/391 390/390/390
f 391/391/391 392/392/392 390/390/390
f 395/395/395 394/394/394 393/393/393
f 394/394/394 396/396/396 393/393/393
f 394/394/394 397/397/397 396/396/396
f 397/397/397 398/398/398 396/396/396
f 397/397/397 399/399/399 398/398/398
f 399/399/399 400/400/400 398/398/398
f 403/403/403 402/402/402 401/401/401
f 402/402/402 404/404/404 401/401/401
f 402/402/402 405/405/405 404/404/404
f 405/405/405 406/406/406 404/404/404
f 405/405/405 407/407/407 406/406/406
f 407/407/407 408/408/408 406/406/406
f 411/411/411 410/410/410 409/409/409
f 410/410/410 412/412/412 409/409/409
f 410/410/410 413/413/413 412/412/412
f 413/413/413 414/414/414 412/412/412
f 413/413/413 415/415/415 414/414/414
f 415/415/415 416/416/416 414/414/414
f 419/419/419 418/418/418 417/417/417
f 418/418/418 420/420/420 417/417/417
f 418/418/418 421/421/421 420/420/420
f 421/421/421 422/422/422 420/420/420
f 421/421/421 423/423/423 422/422/422
f 423/423/423 424/424/424 422/422/422
f 427/427/427 426/426/426 425/425/425
f 426/426/426 428/428/428 425/425/425
f 426/426/426 429/429/429 428/428/428
f 429/429/429 430/430/430 428/428/428
f 429/429/429 431/431/431 430/430/430
f 431/431/431 432/432/432 430/430/430
f 435/435/435 434/434/434 433/433/433
f 434/434/434 436/436/436 433/433/433
f 434/434/434 437/437/437 436/436/436
f 437/437/437 438/438/438 436/436/436
f 437/437/437 439/439/439 438/438/438
f 439/439/439 440/440/440 438/438/438
f 443/443/443 442/442/442 441/441/441
f 442/442/442 444/444/444 441/441/441
f 442/442/442 445/445/445 444/444/444
f 445/445/445 446/446/446 444/444/444
f 445/445/445 447/447/447 446/446/446
f 447/447/447 448/448/448 446/446/446
f 451/451/451 450/450/450 449/449/449
f 450/450/450 452/452/452 449/449/449
f 450/450/450 453/453/453 452/452/452
f 453/453/453 454/454/454 452/452/452
f 453/453/453 455/455/455 454/454/454
f 455/455/455 456/456/456 454/454/454
f 459/459/459 458/458/458 457/457/457
f 458/458/458 460/460/460 457/457/457
f 458/458/458 461/461/461 460/460/460
f 461/461/461 462/462/462 460/460/460
f 461/461/461 463/463/463 462/462/462
f 463/463/463 464/464/464 462/462/462
f 467/467/467 466/466/466 465/465/465
f 466/466/466 468/468/468 465/465/465
f 466/466/466 469/469/469 468/468/468
f 469/469/469 470/470/470 468/468/468
f 469/469/469 471/471/471 470/470/470
f 471/471/471 472/472/472 470/470/470
f 475/475/475 474/474/474 473/473/473
f 474/474/474 476/476/476 473/473/473
f 474/474/474 477/477/477 476/476/476
f 477/477/477 478/478/478 476/476/476
f 477/477/477 479/479/479 478/478/478
f 479/479/479 480/480/480 478/478/478
f 483/483/483 482/482/482 481/481/481
f 482/482/482 484/484/484 481/481/481
f 482/482/482 485/485/485 484/484/484
f 485/485/485 486/486/486 484/484/484
f 485/485/485 487/487/487 486/486/486
f 487/487/487 488/488/488 486/486/486
f 491/491/491 490/490/490 489/489/489
f 490/490/490 492/492/492 489/489/489
f 490/490/490 493/493/493 492/492/492
f 493/493/493 494/494/494 492/492/492
f 493/493/493 495/495/495 494/494/494
f 495/495/495 496/496/496 494/494/494
f 499/499/499 498/498/498 497/497/497
f 498/498/498 500/500/500 497/497/497
f 498/498/498 501/501/501 500/500/500
f 501/501/501 502/502/502 500/500/500
f 501/501/501 503/503/503 502/502/502
f 503/503/503 504/504/504 502/502/502
f 507/507/507 506/506/506 505/505/505
f 506/506/506 508/508/508 505/505/505
f 506/506/506 509/509/509 508/508/508
f 509/509/509 510/510/510 508/508/508
f 509/509/509 511/511/511 510/510/510
f 511/511/511 512/512/512 510/510/510
f 515/515/515 514/514/514 513/513/513
f 514/514/514 516/516/516 513/513/513
f 514/514/514 517/517/517 516/516/516
f 517/517/517 518/518/518 516/516/516
f 517/517/517 519/519/519 518/518/518
f 519/519/519 520/520/520 518/518/518
f 523/523/523 522/522/522 521/521/521
f 522/522/522 524/524/524 521/521/521
f 522/522/522 525/525/525 524/524/524
f 525/525/525 526/526/526 524/524/524
f 525/525/525 527/527/527 526/526/526
f 527/527/527 528/528/528 526/526/526
f 531/531/531 530/530/530 529/529/529
f 530/530/530 532/532/532 529/529/529
f 530/530/530 533/533/533 532/532/532
f 533/533/533 534/534/534 532/532/532
f 533/533/533 535/535/535 534/534/534
f 535/535/535 536/536/536 534/534/534
f 539/539/539 538/538/538 537/537/537
f 538/538/538 540/540/540 537/537/537
f 538/538/538 541/541/541 540/540/540
f 541/541/541 542/542/542 540/540/540
f 541/541/541 543/543/543 542/542/542
f 543/543/543 544/544/544 542/542/542
f 547/547/547 546/546/546 545/545/545
f 546/546/546 548/548/548 545/545/545
f 546/546/546 549/549/549 548/548/548
f 549/549/549 550/550/550 548/548/548
f 549/549/549 551/551/551 550/550/550
f 551/551/551 552/552/552 550/550/550
f 555/555/555 554/554/554 553/553/553
f 554/554/554 556/556/556 553/553/553
f 554/554/554 557/557/557 556/556/556
f 557/557/557 558/558/558 556/556/556
f 557/557/557 559/559/559 558/558/558
f 559/559/559 560/560/560 558/558/558
f 563/563/563 562/562/562 561/561/561
f 562/562/562 564/564/564 561/561/561
f 562/562/562 565/565/565 564/564/564
f 565/565/565 566/566/566 564/564/564
f 565/565/565 567/567/567 566/566/566
f 567/567/567 568/568/568 566/566/566
f 571/571/571 570/570/570 569/569/569
f 570/570/570 572/572/572 569/569/569
f 570/570/570 573/573/573 572/572/572
f 573/573/573 574/574/574 572/572/572
f 573/573/573 575/575/575 574/574/574
f 575/575/575 576/576/576 574/574/574
f 579/579/579 578/578/578 577/577/577
f 578/578/578 580/580/580 577/577/577
f 578/578/578 581/581/581 580/580/580
f 581/581/581 582/582/582 580/580/580
f 581/581/581 583/583/583 582/582/582
f 583/583/583 584/584/584 582/582/582
f 587/587/587 586/586/586 585/585/585
f 586/586/586 588/588/588 585/585/585
f 586/586/586 589/589/589 588/588/588
f 589/589/589 590/590/590 588/588/588
f 589/589/589 591/591/591 590/590/590
f 591/591/591 592/592/592 590/590/590
f 595/595/595 594/594/594 593/593/593
f 594/594/594 596/596/596 593/593/593
f 594/594/594 597/597/597 596/596/596
f 597/597/597 598/598/598 596/596/596
f 597/597/597 599/599/599 598/598/598
f 599/599/599 600/600/600 598/598/598
f 603/603/603 602/602/602 601/601/601
f 602/602/602 604/604/604 601/601/601
f 602/602/602 605/605/605 604/604/604
f 605/605/605 606/606/606 604/604/604
f 605/605/605 607/607/607 606/606/606
f 607/607/607 608/608/608 606/606/606
f 611/611/611 610/610/610 609/609/609
f 610/610/610 612/612/612 609/609/609
f 610/610/610 613/613/613 612/612/612
f 613/613/613 614/614/614 612/612/612
f 613/613/613 615/615/615 614/614/614
f 615/615/615 616/616/616 614/614/614
f 619/619/619 618/618/618 617/617/617
f 618/618/618 620/620/620 617/617/617
f 618/618/618 621/621/621 620/620/620
f 621/621/621 622/622/622 620/620/620
f 621/621/621 623/623/623 622/622/622
f 623/623/623 624/624/624 622/622/622
f 627/627/627 626/626/626 625/625/625
f 626/626/626 628/628/628 625/625/625
f 626/626/626 629/629/629 628/628/628
f 629/629/629 630/630/630 628/628/628
f 629/629/629 631/631/631 630/630/630
f 631/631/631 632/632/632 630/630/630
f 635/635/635 634/634/634 633/633/633
f 634/634/634 636/636/636 633/633/633
f 634/634/634 637/637/637 636/636/636
f 637/637/637 638/638/638 636/636/636
f 637/637/637 639/639/639 638/638/638
f 639/639/639 640/640/640 638/638/638
f 643/643/643 642/642/642 641/641/641
f 642/642/642 644/644/644 641/641/641
f 642/642/642 645/645/645 644/644/644
f 645/645/645 646/646/646 644/644/644
f 645/645/645 647/647/647 646/646/646
f 647/647/647 648/648/648 646/646/646
f 651/651/651 650/650/650 649/649/649
f 650/650/650 652/652/652 649/649/649
f 650/650/650 653/653/653 652/652/652
f 653/653/653 654/654/654 652/652/652
f 653/653/653 655/655/655 654/654/654
f 655/655/655 656/656/656 654/654/654
f 659/659/659 658/658/658 657/657/657
f 658/658/658 660/660/660 657/657/657
f 658/658/658 661/661/661 660/660/660
f 661/661/661 662/662/662 660/660/660
f 661/661/661 663/663/663 662/662/662
f 663/663/663 664/664/664 662/662/662
f 667/667/667 666/666/666 665/665/665
f 666/666/666 668/668/668 665/665/665
f 666/666/666 669/669/669 668/668/668
f 669/669/669 670/670/670 668/668/668
f 669/669/669 671/671/671 670/670/670
f 671/671/671 672/672/672 670/670/670
f 675/675/675 674/674/674 673/673/673
f 674/674/674 676/676/676 673/673/673
f 674/674/674 677/677/677 676/676/676
f 677/677/677 678/678/678 676/676/676
f 677/677/677 679/679/679 678/678/678
f 679/679/679 680/680/680 678/678/678
f 683/683/683 682/682/682 681/681/681
f 682/682/682 684/684/684 681/681/681
f 682/682/682 685/685/685 684/684/684
f 685/685/685 686/686/686 684/684/684
f 685/685/685 687/687/687 686/686/686
f 687/687/687 688/688/688 686/686/686
f 691/691/691 690/690/690 689/689/689
f 690/690/690 692/692/692 689/689/689
f 690/690/690 693/693/693 692/692/692
f 693/693/693 694/694/694 692/692/692
f 693/693/693 695/695/695 694/694/694
f 695/695/695 696/696/696 694/694/694
f 699/699/699 698/698/698 697/697/697
f 698/698/698 700/700/700 697/697/697
f 698/698/698 701/701/701 700/700/700
f 701/701/701 702/702/702 700/700/700
f 701/701/701 703/703/703 702/702/702
f 703/703/703 704/704/704 702/702/702
f 707/707/707 706/706/706 705/705/705
f 706/706/706 708/708/708 705/705/705
f 706/706/706 709/709/709 708/708/708
f 709/709/709 710/710/710 708/708/708
f 709/709/709 711/711/711 710/710/710
f 711/711/711 712/712/712 710/710/710
f 715/715/715 714/714/714 713/713/713
f 714/714/714 716/716/716 713/713/713
f 714/714/714 717/717/717 716/716/716
f 717/717/717 718/718/718 716/716/716
f 717/717/717 719/719/719 718/718/718
f 719/719/719 720/720/720 718/718/718
f 723/723/723 722/722/722 721/721/721
f 722/722/722 724/724/724 721/721/721
f 722/722/722 725/725/725 724/724/724
f 725/725/725 726/726/726 724/724/724
f 725/725/725 727/727/727 726/726/726
f 727/727/727 728/728/728 726/726/726
f 731/731/731 730/730/730 729/729/729
f 730/730/730 732/732/732 729/729/729
f 730/730/730 733/733/733 732/732/732
f 733/733/733 734/734/734 732/732/732
f 733/733/733 735/735/735 734/734/734
f 735/735/735 736/736/736 734/734/734
f 739/739/739 738/738/738 737/737/737
f 738/738/738 740/740/740 737/737/737
f 738/738/738 741/741/741 740/740/740
f 741/741/741 742/742/742 740/740/740
f 741/741/741 743/743/743 742/742/742
f 743/743/743 744/744/744 742/742/742
f 747/747/747 746/746/746 745/745/745
f 746/746/746 748/748/748 745/745/745
f 746/746/746 749/749/749 748/748/748
f 749/749/749 750/750/750 748/748/748
f 749/749/749 751/751/751 750/750/750
f 751/751/751 752/752/752 750/750/750
f 755/755/755 754/754/754 753/753/753
f 754/754/754 756/756/756 753/753/753
f 754/754/754 757/757/757 756/756/756
f 757/757/757 758/758/758 756/756/756
f 757/757/757 759/759/759 758/758/758
f 759/759/759 760/760/760 758/758/758
f 763/763/763 762/762/762 761/761/761
f 762/762/762 764/764/764 761/761/761
f 762/762/762 765/765/765 764/764/764
f 765/765/765 766/766/766 764/764/764
f 765/765/765 767/767/767 766/766/766
f 767/767/767 768/768/768 766/766/766
